%TF.GenerationSoftware,KiCad,Pcbnew,9.0.4*%
%TF.CreationDate,2025-11-06T14:53:54-06:00*%
%TF.ProjectId,Spy,5370792e-6b69-4636-9164-5f7063625858,rev?*%
%TF.SameCoordinates,Original*%
%TF.FileFunction,Drillmap*%
%TF.FilePolarity,Positive*%
%FSLAX45Y45*%
G04 Gerber Fmt 4.5, Leading zero omitted, Abs format (unit mm)*
G04 Created by KiCad (PCBNEW 9.0.4) date 2025-11-06 14:53:54*
%MOMM*%
%LPD*%
G01*
G04 APERTURE LIST*
%ADD10C,0.050000*%
%ADD11C,0.200000*%
%ADD12C,0.228600*%
%ADD13C,0.330200*%
G04 APERTURE END LIST*
D10*
X7562500Y-3587500D02*
X16312500Y-3587500D01*
X16312500Y-17012500D01*
X7562500Y-17012500D01*
X7562500Y-3587500D01*
D11*
D12*
X8916200Y-4550200D02*
X9144800Y-4778800D01*
X9144800Y-4550200D02*
X8916200Y-4778800D01*
X15901200Y-4550200D02*
X16129800Y-4778800D01*
X16129800Y-4550200D02*
X15901200Y-4778800D01*
D13*
X12199550Y-16599500D02*
G75*
G02*
X11869350Y-16599500I-165100J0D01*
G01*
X11869350Y-16599500D02*
G75*
G02*
X12199550Y-16599500I165100J0D01*
G01*
X13215550Y-16599500D02*
G75*
G02*
X12885350Y-16599500I-165100J0D01*
G01*
X12885350Y-16599500D02*
G75*
G02*
X13215550Y-16599500I165100J0D01*
G01*
D11*
X7820777Y-17326484D02*
X7820777Y-17126484D01*
X7820777Y-17126484D02*
X7868396Y-17126484D01*
X7868396Y-17126484D02*
X7896967Y-17136008D01*
X7896967Y-17136008D02*
X7916015Y-17155055D01*
X7916015Y-17155055D02*
X7925539Y-17174103D01*
X7925539Y-17174103D02*
X7935062Y-17212198D01*
X7935062Y-17212198D02*
X7935062Y-17240770D01*
X7935062Y-17240770D02*
X7925539Y-17278865D01*
X7925539Y-17278865D02*
X7916015Y-17297912D01*
X7916015Y-17297912D02*
X7896967Y-17316960D01*
X7896967Y-17316960D02*
X7868396Y-17326484D01*
X7868396Y-17326484D02*
X7820777Y-17326484D01*
X8020777Y-17326484D02*
X8020777Y-17193150D01*
X8020777Y-17231246D02*
X8030301Y-17212198D01*
X8030301Y-17212198D02*
X8039824Y-17202674D01*
X8039824Y-17202674D02*
X8058872Y-17193150D01*
X8058872Y-17193150D02*
X8077920Y-17193150D01*
X8144586Y-17326484D02*
X8144586Y-17193150D01*
X8144586Y-17126484D02*
X8135062Y-17136008D01*
X8135062Y-17136008D02*
X8144586Y-17145531D01*
X8144586Y-17145531D02*
X8154110Y-17136008D01*
X8154110Y-17136008D02*
X8144586Y-17126484D01*
X8144586Y-17126484D02*
X8144586Y-17145531D01*
X8268396Y-17326484D02*
X8249348Y-17316960D01*
X8249348Y-17316960D02*
X8239824Y-17297912D01*
X8239824Y-17297912D02*
X8239824Y-17126484D01*
X8373158Y-17326484D02*
X8354110Y-17316960D01*
X8354110Y-17316960D02*
X8344586Y-17297912D01*
X8344586Y-17297912D02*
X8344586Y-17126484D01*
X8601729Y-17326484D02*
X8601729Y-17126484D01*
X8601729Y-17126484D02*
X8668396Y-17269341D01*
X8668396Y-17269341D02*
X8735063Y-17126484D01*
X8735063Y-17126484D02*
X8735063Y-17326484D01*
X8916015Y-17326484D02*
X8916015Y-17221722D01*
X8916015Y-17221722D02*
X8906491Y-17202674D01*
X8906491Y-17202674D02*
X8887444Y-17193150D01*
X8887444Y-17193150D02*
X8849348Y-17193150D01*
X8849348Y-17193150D02*
X8830301Y-17202674D01*
X8916015Y-17316960D02*
X8896967Y-17326484D01*
X8896967Y-17326484D02*
X8849348Y-17326484D01*
X8849348Y-17326484D02*
X8830301Y-17316960D01*
X8830301Y-17316960D02*
X8820777Y-17297912D01*
X8820777Y-17297912D02*
X8820777Y-17278865D01*
X8820777Y-17278865D02*
X8830301Y-17259817D01*
X8830301Y-17259817D02*
X8849348Y-17250293D01*
X8849348Y-17250293D02*
X8896967Y-17250293D01*
X8896967Y-17250293D02*
X8916015Y-17240770D01*
X9011253Y-17193150D02*
X9011253Y-17393150D01*
X9011253Y-17202674D02*
X9030301Y-17193150D01*
X9030301Y-17193150D02*
X9068396Y-17193150D01*
X9068396Y-17193150D02*
X9087444Y-17202674D01*
X9087444Y-17202674D02*
X9096967Y-17212198D01*
X9096967Y-17212198D02*
X9106491Y-17231246D01*
X9106491Y-17231246D02*
X9106491Y-17288389D01*
X9106491Y-17288389D02*
X9096967Y-17307436D01*
X9096967Y-17307436D02*
X9087444Y-17316960D01*
X9087444Y-17316960D02*
X9068396Y-17326484D01*
X9068396Y-17326484D02*
X9030301Y-17326484D01*
X9030301Y-17326484D02*
X9011253Y-17316960D01*
X9192205Y-17307436D02*
X9201729Y-17316960D01*
X9201729Y-17316960D02*
X9192205Y-17326484D01*
X9192205Y-17326484D02*
X9182682Y-17316960D01*
X9182682Y-17316960D02*
X9192205Y-17307436D01*
X9192205Y-17307436D02*
X9192205Y-17326484D01*
X9192205Y-17202674D02*
X9201729Y-17212198D01*
X9201729Y-17212198D02*
X9192205Y-17221722D01*
X9192205Y-17221722D02*
X9182682Y-17212198D01*
X9182682Y-17212198D02*
X9192205Y-17202674D01*
X9192205Y-17202674D02*
X9192205Y-17221722D01*
X7360000Y-17555000D02*
X7560000Y-17755000D01*
X7560000Y-17555000D02*
X7360000Y-17755000D01*
X7811253Y-17565531D02*
X7820777Y-17556008D01*
X7820777Y-17556008D02*
X7839824Y-17546484D01*
X7839824Y-17546484D02*
X7887443Y-17546484D01*
X7887443Y-17546484D02*
X7906491Y-17556008D01*
X7906491Y-17556008D02*
X7916015Y-17565531D01*
X7916015Y-17565531D02*
X7925539Y-17584579D01*
X7925539Y-17584579D02*
X7925539Y-17603627D01*
X7925539Y-17603627D02*
X7916015Y-17632198D01*
X7916015Y-17632198D02*
X7801729Y-17746484D01*
X7801729Y-17746484D02*
X7925539Y-17746484D01*
X8011253Y-17727436D02*
X8020777Y-17736960D01*
X8020777Y-17736960D02*
X8011253Y-17746484D01*
X8011253Y-17746484D02*
X8001729Y-17736960D01*
X8001729Y-17736960D02*
X8011253Y-17727436D01*
X8011253Y-17727436D02*
X8011253Y-17746484D01*
X8096967Y-17565531D02*
X8106491Y-17556008D01*
X8106491Y-17556008D02*
X8125539Y-17546484D01*
X8125539Y-17546484D02*
X8173158Y-17546484D01*
X8173158Y-17546484D02*
X8192205Y-17556008D01*
X8192205Y-17556008D02*
X8201729Y-17565531D01*
X8201729Y-17565531D02*
X8211253Y-17584579D01*
X8211253Y-17584579D02*
X8211253Y-17603627D01*
X8211253Y-17603627D02*
X8201729Y-17632198D01*
X8201729Y-17632198D02*
X8087443Y-17746484D01*
X8087443Y-17746484D02*
X8211253Y-17746484D01*
X8325539Y-17632198D02*
X8306491Y-17622674D01*
X8306491Y-17622674D02*
X8296967Y-17613150D01*
X8296967Y-17613150D02*
X8287443Y-17594103D01*
X8287443Y-17594103D02*
X8287443Y-17584579D01*
X8287443Y-17584579D02*
X8296967Y-17565531D01*
X8296967Y-17565531D02*
X8306491Y-17556008D01*
X8306491Y-17556008D02*
X8325539Y-17546484D01*
X8325539Y-17546484D02*
X8363634Y-17546484D01*
X8363634Y-17546484D02*
X8382682Y-17556008D01*
X8382682Y-17556008D02*
X8392205Y-17565531D01*
X8392205Y-17565531D02*
X8401729Y-17584579D01*
X8401729Y-17584579D02*
X8401729Y-17594103D01*
X8401729Y-17594103D02*
X8392205Y-17613150D01*
X8392205Y-17613150D02*
X8382682Y-17622674D01*
X8382682Y-17622674D02*
X8363634Y-17632198D01*
X8363634Y-17632198D02*
X8325539Y-17632198D01*
X8325539Y-17632198D02*
X8306491Y-17641722D01*
X8306491Y-17641722D02*
X8296967Y-17651246D01*
X8296967Y-17651246D02*
X8287443Y-17670293D01*
X8287443Y-17670293D02*
X8287443Y-17708389D01*
X8287443Y-17708389D02*
X8296967Y-17727436D01*
X8296967Y-17727436D02*
X8306491Y-17736960D01*
X8306491Y-17736960D02*
X8325539Y-17746484D01*
X8325539Y-17746484D02*
X8363634Y-17746484D01*
X8363634Y-17746484D02*
X8382682Y-17736960D01*
X8382682Y-17736960D02*
X8392205Y-17727436D01*
X8392205Y-17727436D02*
X8401729Y-17708389D01*
X8401729Y-17708389D02*
X8401729Y-17670293D01*
X8401729Y-17670293D02*
X8392205Y-17651246D01*
X8392205Y-17651246D02*
X8382682Y-17641722D01*
X8382682Y-17641722D02*
X8363634Y-17632198D01*
X8573158Y-17546484D02*
X8535063Y-17546484D01*
X8535063Y-17546484D02*
X8516015Y-17556008D01*
X8516015Y-17556008D02*
X8506491Y-17565531D01*
X8506491Y-17565531D02*
X8487444Y-17594103D01*
X8487444Y-17594103D02*
X8477920Y-17632198D01*
X8477920Y-17632198D02*
X8477920Y-17708389D01*
X8477920Y-17708389D02*
X8487444Y-17727436D01*
X8487444Y-17727436D02*
X8496967Y-17736960D01*
X8496967Y-17736960D02*
X8516015Y-17746484D01*
X8516015Y-17746484D02*
X8554110Y-17746484D01*
X8554110Y-17746484D02*
X8573158Y-17736960D01*
X8573158Y-17736960D02*
X8582682Y-17727436D01*
X8582682Y-17727436D02*
X8592205Y-17708389D01*
X8592205Y-17708389D02*
X8592205Y-17660770D01*
X8592205Y-17660770D02*
X8582682Y-17641722D01*
X8582682Y-17641722D02*
X8573158Y-17632198D01*
X8573158Y-17632198D02*
X8554110Y-17622674D01*
X8554110Y-17622674D02*
X8516015Y-17622674D01*
X8516015Y-17622674D02*
X8496967Y-17632198D01*
X8496967Y-17632198D02*
X8487444Y-17641722D01*
X8487444Y-17641722D02*
X8477920Y-17660770D01*
X8677920Y-17746484D02*
X8677920Y-17613150D01*
X8677920Y-17632198D02*
X8687444Y-17622674D01*
X8687444Y-17622674D02*
X8706491Y-17613150D01*
X8706491Y-17613150D02*
X8735063Y-17613150D01*
X8735063Y-17613150D02*
X8754110Y-17622674D01*
X8754110Y-17622674D02*
X8763634Y-17641722D01*
X8763634Y-17641722D02*
X8763634Y-17746484D01*
X8763634Y-17641722D02*
X8773158Y-17622674D01*
X8773158Y-17622674D02*
X8792205Y-17613150D01*
X8792205Y-17613150D02*
X8820777Y-17613150D01*
X8820777Y-17613150D02*
X8839825Y-17622674D01*
X8839825Y-17622674D02*
X8849348Y-17641722D01*
X8849348Y-17641722D02*
X8849348Y-17746484D01*
X8944586Y-17746484D02*
X8944586Y-17613150D01*
X8944586Y-17632198D02*
X8954110Y-17622674D01*
X8954110Y-17622674D02*
X8973158Y-17613150D01*
X8973158Y-17613150D02*
X9001729Y-17613150D01*
X9001729Y-17613150D02*
X9020777Y-17622674D01*
X9020777Y-17622674D02*
X9030301Y-17641722D01*
X9030301Y-17641722D02*
X9030301Y-17746484D01*
X9030301Y-17641722D02*
X9039825Y-17622674D01*
X9039825Y-17622674D02*
X9058872Y-17613150D01*
X9058872Y-17613150D02*
X9087444Y-17613150D01*
X9087444Y-17613150D02*
X9106491Y-17622674D01*
X9106491Y-17622674D02*
X9116015Y-17641722D01*
X9116015Y-17641722D02*
X9116015Y-17746484D01*
X9506491Y-17536960D02*
X9335063Y-17794103D01*
X9763634Y-17546484D02*
X9782682Y-17546484D01*
X9782682Y-17546484D02*
X9801729Y-17556008D01*
X9801729Y-17556008D02*
X9811253Y-17565531D01*
X9811253Y-17565531D02*
X9820777Y-17584579D01*
X9820777Y-17584579D02*
X9830301Y-17622674D01*
X9830301Y-17622674D02*
X9830301Y-17670293D01*
X9830301Y-17670293D02*
X9820777Y-17708389D01*
X9820777Y-17708389D02*
X9811253Y-17727436D01*
X9811253Y-17727436D02*
X9801729Y-17736960D01*
X9801729Y-17736960D02*
X9782682Y-17746484D01*
X9782682Y-17746484D02*
X9763634Y-17746484D01*
X9763634Y-17746484D02*
X9744587Y-17736960D01*
X9744587Y-17736960D02*
X9735063Y-17727436D01*
X9735063Y-17727436D02*
X9725539Y-17708389D01*
X9725539Y-17708389D02*
X9716015Y-17670293D01*
X9716015Y-17670293D02*
X9716015Y-17622674D01*
X9716015Y-17622674D02*
X9725539Y-17584579D01*
X9725539Y-17584579D02*
X9735063Y-17565531D01*
X9735063Y-17565531D02*
X9744587Y-17556008D01*
X9744587Y-17556008D02*
X9763634Y-17546484D01*
X9916015Y-17727436D02*
X9925539Y-17736960D01*
X9925539Y-17736960D02*
X9916015Y-17746484D01*
X9916015Y-17746484D02*
X9906491Y-17736960D01*
X9906491Y-17736960D02*
X9916015Y-17727436D01*
X9916015Y-17727436D02*
X9916015Y-17746484D01*
X10049348Y-17546484D02*
X10068396Y-17546484D01*
X10068396Y-17546484D02*
X10087444Y-17556008D01*
X10087444Y-17556008D02*
X10096968Y-17565531D01*
X10096968Y-17565531D02*
X10106491Y-17584579D01*
X10106491Y-17584579D02*
X10116015Y-17622674D01*
X10116015Y-17622674D02*
X10116015Y-17670293D01*
X10116015Y-17670293D02*
X10106491Y-17708389D01*
X10106491Y-17708389D02*
X10096968Y-17727436D01*
X10096968Y-17727436D02*
X10087444Y-17736960D01*
X10087444Y-17736960D02*
X10068396Y-17746484D01*
X10068396Y-17746484D02*
X10049348Y-17746484D01*
X10049348Y-17746484D02*
X10030301Y-17736960D01*
X10030301Y-17736960D02*
X10020777Y-17727436D01*
X10020777Y-17727436D02*
X10011253Y-17708389D01*
X10011253Y-17708389D02*
X10001729Y-17670293D01*
X10001729Y-17670293D02*
X10001729Y-17622674D01*
X10001729Y-17622674D02*
X10011253Y-17584579D01*
X10011253Y-17584579D02*
X10020777Y-17565531D01*
X10020777Y-17565531D02*
X10030301Y-17556008D01*
X10030301Y-17556008D02*
X10049348Y-17546484D01*
X10211253Y-17746484D02*
X10249348Y-17746484D01*
X10249348Y-17746484D02*
X10268396Y-17736960D01*
X10268396Y-17736960D02*
X10277920Y-17727436D01*
X10277920Y-17727436D02*
X10296968Y-17698865D01*
X10296968Y-17698865D02*
X10306491Y-17660770D01*
X10306491Y-17660770D02*
X10306491Y-17584579D01*
X10306491Y-17584579D02*
X10296968Y-17565531D01*
X10296968Y-17565531D02*
X10287444Y-17556008D01*
X10287444Y-17556008D02*
X10268396Y-17546484D01*
X10268396Y-17546484D02*
X10230301Y-17546484D01*
X10230301Y-17546484D02*
X10211253Y-17556008D01*
X10211253Y-17556008D02*
X10201729Y-17565531D01*
X10201729Y-17565531D02*
X10192206Y-17584579D01*
X10192206Y-17584579D02*
X10192206Y-17632198D01*
X10192206Y-17632198D02*
X10201729Y-17651246D01*
X10201729Y-17651246D02*
X10211253Y-17660770D01*
X10211253Y-17660770D02*
X10230301Y-17670293D01*
X10230301Y-17670293D02*
X10268396Y-17670293D01*
X10268396Y-17670293D02*
X10287444Y-17660770D01*
X10287444Y-17660770D02*
X10296968Y-17651246D01*
X10296968Y-17651246D02*
X10306491Y-17632198D01*
X10430301Y-17546484D02*
X10449349Y-17546484D01*
X10449349Y-17546484D02*
X10468396Y-17556008D01*
X10468396Y-17556008D02*
X10477920Y-17565531D01*
X10477920Y-17565531D02*
X10487444Y-17584579D01*
X10487444Y-17584579D02*
X10496968Y-17622674D01*
X10496968Y-17622674D02*
X10496968Y-17670293D01*
X10496968Y-17670293D02*
X10487444Y-17708389D01*
X10487444Y-17708389D02*
X10477920Y-17727436D01*
X10477920Y-17727436D02*
X10468396Y-17736960D01*
X10468396Y-17736960D02*
X10449349Y-17746484D01*
X10449349Y-17746484D02*
X10430301Y-17746484D01*
X10430301Y-17746484D02*
X10411253Y-17736960D01*
X10411253Y-17736960D02*
X10401729Y-17727436D01*
X10401729Y-17727436D02*
X10392206Y-17708389D01*
X10392206Y-17708389D02*
X10382682Y-17670293D01*
X10382682Y-17670293D02*
X10382682Y-17622674D01*
X10382682Y-17622674D02*
X10392206Y-17584579D01*
X10392206Y-17584579D02*
X10401729Y-17565531D01*
X10401729Y-17565531D02*
X10411253Y-17556008D01*
X10411253Y-17556008D02*
X10430301Y-17546484D01*
X10620777Y-17546484D02*
X10639825Y-17546484D01*
X10639825Y-17546484D02*
X10658872Y-17556008D01*
X10658872Y-17556008D02*
X10668396Y-17565531D01*
X10668396Y-17565531D02*
X10677920Y-17584579D01*
X10677920Y-17584579D02*
X10687444Y-17622674D01*
X10687444Y-17622674D02*
X10687444Y-17670293D01*
X10687444Y-17670293D02*
X10677920Y-17708389D01*
X10677920Y-17708389D02*
X10668396Y-17727436D01*
X10668396Y-17727436D02*
X10658872Y-17736960D01*
X10658872Y-17736960D02*
X10639825Y-17746484D01*
X10639825Y-17746484D02*
X10620777Y-17746484D01*
X10620777Y-17746484D02*
X10601729Y-17736960D01*
X10601729Y-17736960D02*
X10592206Y-17727436D01*
X10592206Y-17727436D02*
X10582682Y-17708389D01*
X10582682Y-17708389D02*
X10573158Y-17670293D01*
X10573158Y-17670293D02*
X10573158Y-17622674D01*
X10573158Y-17622674D02*
X10582682Y-17584579D01*
X10582682Y-17584579D02*
X10592206Y-17565531D01*
X10592206Y-17565531D02*
X10601729Y-17556008D01*
X10601729Y-17556008D02*
X10620777Y-17546484D01*
X10763634Y-17546484D02*
X10763634Y-17584579D01*
X10839825Y-17546484D02*
X10839825Y-17584579D01*
X11135063Y-17822674D02*
X11125539Y-17813150D01*
X11125539Y-17813150D02*
X11106491Y-17784579D01*
X11106491Y-17784579D02*
X11096968Y-17765531D01*
X11096968Y-17765531D02*
X11087444Y-17736960D01*
X11087444Y-17736960D02*
X11077920Y-17689341D01*
X11077920Y-17689341D02*
X11077920Y-17651246D01*
X11077920Y-17651246D02*
X11087444Y-17603627D01*
X11087444Y-17603627D02*
X11096968Y-17575055D01*
X11096968Y-17575055D02*
X11106491Y-17556008D01*
X11106491Y-17556008D02*
X11125539Y-17527436D01*
X11125539Y-17527436D02*
X11135063Y-17517912D01*
X11201729Y-17565531D02*
X11211253Y-17556008D01*
X11211253Y-17556008D02*
X11230301Y-17546484D01*
X11230301Y-17546484D02*
X11277920Y-17546484D01*
X11277920Y-17546484D02*
X11296968Y-17556008D01*
X11296968Y-17556008D02*
X11306491Y-17565531D01*
X11306491Y-17565531D02*
X11316015Y-17584579D01*
X11316015Y-17584579D02*
X11316015Y-17603627D01*
X11316015Y-17603627D02*
X11306491Y-17632198D01*
X11306491Y-17632198D02*
X11192206Y-17746484D01*
X11192206Y-17746484D02*
X11316015Y-17746484D01*
X11554110Y-17746484D02*
X11554110Y-17546484D01*
X11639825Y-17746484D02*
X11639825Y-17641722D01*
X11639825Y-17641722D02*
X11630301Y-17622674D01*
X11630301Y-17622674D02*
X11611253Y-17613150D01*
X11611253Y-17613150D02*
X11582682Y-17613150D01*
X11582682Y-17613150D02*
X11563634Y-17622674D01*
X11563634Y-17622674D02*
X11554110Y-17632198D01*
X11763634Y-17746484D02*
X11744587Y-17736960D01*
X11744587Y-17736960D02*
X11735063Y-17727436D01*
X11735063Y-17727436D02*
X11725539Y-17708389D01*
X11725539Y-17708389D02*
X11725539Y-17651246D01*
X11725539Y-17651246D02*
X11735063Y-17632198D01*
X11735063Y-17632198D02*
X11744587Y-17622674D01*
X11744587Y-17622674D02*
X11763634Y-17613150D01*
X11763634Y-17613150D02*
X11792206Y-17613150D01*
X11792206Y-17613150D02*
X11811253Y-17622674D01*
X11811253Y-17622674D02*
X11820777Y-17632198D01*
X11820777Y-17632198D02*
X11830301Y-17651246D01*
X11830301Y-17651246D02*
X11830301Y-17708389D01*
X11830301Y-17708389D02*
X11820777Y-17727436D01*
X11820777Y-17727436D02*
X11811253Y-17736960D01*
X11811253Y-17736960D02*
X11792206Y-17746484D01*
X11792206Y-17746484D02*
X11763634Y-17746484D01*
X11944587Y-17746484D02*
X11925539Y-17736960D01*
X11925539Y-17736960D02*
X11916015Y-17717912D01*
X11916015Y-17717912D02*
X11916015Y-17546484D01*
X12096968Y-17736960D02*
X12077920Y-17746484D01*
X12077920Y-17746484D02*
X12039825Y-17746484D01*
X12039825Y-17746484D02*
X12020777Y-17736960D01*
X12020777Y-17736960D02*
X12011253Y-17717912D01*
X12011253Y-17717912D02*
X12011253Y-17641722D01*
X12011253Y-17641722D02*
X12020777Y-17622674D01*
X12020777Y-17622674D02*
X12039825Y-17613150D01*
X12039825Y-17613150D02*
X12077920Y-17613150D01*
X12077920Y-17613150D02*
X12096968Y-17622674D01*
X12096968Y-17622674D02*
X12106491Y-17641722D01*
X12106491Y-17641722D02*
X12106491Y-17660770D01*
X12106491Y-17660770D02*
X12011253Y-17679817D01*
X12182682Y-17736960D02*
X12201730Y-17746484D01*
X12201730Y-17746484D02*
X12239825Y-17746484D01*
X12239825Y-17746484D02*
X12258872Y-17736960D01*
X12258872Y-17736960D02*
X12268396Y-17717912D01*
X12268396Y-17717912D02*
X12268396Y-17708389D01*
X12268396Y-17708389D02*
X12258872Y-17689341D01*
X12258872Y-17689341D02*
X12239825Y-17679817D01*
X12239825Y-17679817D02*
X12211253Y-17679817D01*
X12211253Y-17679817D02*
X12192206Y-17670293D01*
X12192206Y-17670293D02*
X12182682Y-17651246D01*
X12182682Y-17651246D02*
X12182682Y-17641722D01*
X12182682Y-17641722D02*
X12192206Y-17622674D01*
X12192206Y-17622674D02*
X12211253Y-17613150D01*
X12211253Y-17613150D02*
X12239825Y-17613150D01*
X12239825Y-17613150D02*
X12258872Y-17622674D01*
X12335063Y-17822674D02*
X12344587Y-17813150D01*
X12344587Y-17813150D02*
X12363634Y-17784579D01*
X12363634Y-17784579D02*
X12373158Y-17765531D01*
X12373158Y-17765531D02*
X12382682Y-17736960D01*
X12382682Y-17736960D02*
X12392206Y-17689341D01*
X12392206Y-17689341D02*
X12392206Y-17651246D01*
X12392206Y-17651246D02*
X12382682Y-17603627D01*
X12382682Y-17603627D02*
X12373158Y-17575055D01*
X12373158Y-17575055D02*
X12363634Y-17556008D01*
X12363634Y-17556008D02*
X12344587Y-17527436D01*
X12344587Y-17527436D02*
X12335063Y-17517912D01*
X12696968Y-17822674D02*
X12687444Y-17813150D01*
X12687444Y-17813150D02*
X12668396Y-17784579D01*
X12668396Y-17784579D02*
X12658872Y-17765531D01*
X12658872Y-17765531D02*
X12649349Y-17736960D01*
X12649349Y-17736960D02*
X12639825Y-17689341D01*
X12639825Y-17689341D02*
X12639825Y-17651246D01*
X12639825Y-17651246D02*
X12649349Y-17603627D01*
X12649349Y-17603627D02*
X12658872Y-17575055D01*
X12658872Y-17575055D02*
X12668396Y-17556008D01*
X12668396Y-17556008D02*
X12687444Y-17527436D01*
X12687444Y-17527436D02*
X12696968Y-17517912D01*
X12773158Y-17613150D02*
X12773158Y-17746484D01*
X12773158Y-17632198D02*
X12782682Y-17622674D01*
X12782682Y-17622674D02*
X12801730Y-17613150D01*
X12801730Y-17613150D02*
X12830301Y-17613150D01*
X12830301Y-17613150D02*
X12849349Y-17622674D01*
X12849349Y-17622674D02*
X12858872Y-17641722D01*
X12858872Y-17641722D02*
X12858872Y-17746484D01*
X12982682Y-17746484D02*
X12963634Y-17736960D01*
X12963634Y-17736960D02*
X12954111Y-17727436D01*
X12954111Y-17727436D02*
X12944587Y-17708389D01*
X12944587Y-17708389D02*
X12944587Y-17651246D01*
X12944587Y-17651246D02*
X12954111Y-17632198D01*
X12954111Y-17632198D02*
X12963634Y-17622674D01*
X12963634Y-17622674D02*
X12982682Y-17613150D01*
X12982682Y-17613150D02*
X13011253Y-17613150D01*
X13011253Y-17613150D02*
X13030301Y-17622674D01*
X13030301Y-17622674D02*
X13039825Y-17632198D01*
X13039825Y-17632198D02*
X13049349Y-17651246D01*
X13049349Y-17651246D02*
X13049349Y-17708389D01*
X13049349Y-17708389D02*
X13039825Y-17727436D01*
X13039825Y-17727436D02*
X13030301Y-17736960D01*
X13030301Y-17736960D02*
X13011253Y-17746484D01*
X13011253Y-17746484D02*
X12982682Y-17746484D01*
X13106492Y-17613150D02*
X13182682Y-17613150D01*
X13135063Y-17546484D02*
X13135063Y-17717912D01*
X13135063Y-17717912D02*
X13144587Y-17736960D01*
X13144587Y-17736960D02*
X13163634Y-17746484D01*
X13163634Y-17746484D02*
X13182682Y-17746484D01*
X13401730Y-17613150D02*
X13401730Y-17813150D01*
X13401730Y-17622674D02*
X13420777Y-17613150D01*
X13420777Y-17613150D02*
X13458873Y-17613150D01*
X13458873Y-17613150D02*
X13477920Y-17622674D01*
X13477920Y-17622674D02*
X13487444Y-17632198D01*
X13487444Y-17632198D02*
X13496968Y-17651246D01*
X13496968Y-17651246D02*
X13496968Y-17708389D01*
X13496968Y-17708389D02*
X13487444Y-17727436D01*
X13487444Y-17727436D02*
X13477920Y-17736960D01*
X13477920Y-17736960D02*
X13458873Y-17746484D01*
X13458873Y-17746484D02*
X13420777Y-17746484D01*
X13420777Y-17746484D02*
X13401730Y-17736960D01*
X13611253Y-17746484D02*
X13592206Y-17736960D01*
X13592206Y-17736960D02*
X13582682Y-17717912D01*
X13582682Y-17717912D02*
X13582682Y-17546484D01*
X13773158Y-17746484D02*
X13773158Y-17641722D01*
X13773158Y-17641722D02*
X13763634Y-17622674D01*
X13763634Y-17622674D02*
X13744587Y-17613150D01*
X13744587Y-17613150D02*
X13706492Y-17613150D01*
X13706492Y-17613150D02*
X13687444Y-17622674D01*
X13773158Y-17736960D02*
X13754111Y-17746484D01*
X13754111Y-17746484D02*
X13706492Y-17746484D01*
X13706492Y-17746484D02*
X13687444Y-17736960D01*
X13687444Y-17736960D02*
X13677920Y-17717912D01*
X13677920Y-17717912D02*
X13677920Y-17698865D01*
X13677920Y-17698865D02*
X13687444Y-17679817D01*
X13687444Y-17679817D02*
X13706492Y-17670293D01*
X13706492Y-17670293D02*
X13754111Y-17670293D01*
X13754111Y-17670293D02*
X13773158Y-17660770D01*
X13839825Y-17613150D02*
X13916015Y-17613150D01*
X13868396Y-17546484D02*
X13868396Y-17717912D01*
X13868396Y-17717912D02*
X13877920Y-17736960D01*
X13877920Y-17736960D02*
X13896968Y-17746484D01*
X13896968Y-17746484D02*
X13916015Y-17746484D01*
X14058873Y-17736960D02*
X14039825Y-17746484D01*
X14039825Y-17746484D02*
X14001730Y-17746484D01*
X14001730Y-17746484D02*
X13982682Y-17736960D01*
X13982682Y-17736960D02*
X13973158Y-17717912D01*
X13973158Y-17717912D02*
X13973158Y-17641722D01*
X13973158Y-17641722D02*
X13982682Y-17622674D01*
X13982682Y-17622674D02*
X14001730Y-17613150D01*
X14001730Y-17613150D02*
X14039825Y-17613150D01*
X14039825Y-17613150D02*
X14058873Y-17622674D01*
X14058873Y-17622674D02*
X14068396Y-17641722D01*
X14068396Y-17641722D02*
X14068396Y-17660770D01*
X14068396Y-17660770D02*
X13973158Y-17679817D01*
X14239825Y-17746484D02*
X14239825Y-17546484D01*
X14239825Y-17736960D02*
X14220777Y-17746484D01*
X14220777Y-17746484D02*
X14182682Y-17746484D01*
X14182682Y-17746484D02*
X14163634Y-17736960D01*
X14163634Y-17736960D02*
X14154111Y-17727436D01*
X14154111Y-17727436D02*
X14144587Y-17708389D01*
X14144587Y-17708389D02*
X14144587Y-17651246D01*
X14144587Y-17651246D02*
X14154111Y-17632198D01*
X14154111Y-17632198D02*
X14163634Y-17622674D01*
X14163634Y-17622674D02*
X14182682Y-17613150D01*
X14182682Y-17613150D02*
X14220777Y-17613150D01*
X14220777Y-17613150D02*
X14239825Y-17622674D01*
X14316015Y-17822674D02*
X14325539Y-17813150D01*
X14325539Y-17813150D02*
X14344587Y-17784579D01*
X14344587Y-17784579D02*
X14354111Y-17765531D01*
X14354111Y-17765531D02*
X14363634Y-17736960D01*
X14363634Y-17736960D02*
X14373158Y-17689341D01*
X14373158Y-17689341D02*
X14373158Y-17651246D01*
X14373158Y-17651246D02*
X14363634Y-17603627D01*
X14363634Y-17603627D02*
X14354111Y-17575055D01*
X14354111Y-17575055D02*
X14344587Y-17556008D01*
X14344587Y-17556008D02*
X14325539Y-17527436D01*
X14325539Y-17527436D02*
X14316015Y-17517912D01*
X7560000Y-17975000D02*
G75*
G02*
X7360000Y-17975000I-100000J0D01*
G01*
X7360000Y-17975000D02*
G75*
G02*
X7560000Y-17975000I100000J0D01*
G01*
X7801729Y-17866484D02*
X7925539Y-17866484D01*
X7925539Y-17866484D02*
X7858872Y-17942674D01*
X7858872Y-17942674D02*
X7887443Y-17942674D01*
X7887443Y-17942674D02*
X7906491Y-17952198D01*
X7906491Y-17952198D02*
X7916015Y-17961722D01*
X7916015Y-17961722D02*
X7925539Y-17980770D01*
X7925539Y-17980770D02*
X7925539Y-18028389D01*
X7925539Y-18028389D02*
X7916015Y-18047436D01*
X7916015Y-18047436D02*
X7906491Y-18056960D01*
X7906491Y-18056960D02*
X7887443Y-18066484D01*
X7887443Y-18066484D02*
X7830301Y-18066484D01*
X7830301Y-18066484D02*
X7811253Y-18056960D01*
X7811253Y-18056960D02*
X7801729Y-18047436D01*
X8011253Y-18047436D02*
X8020777Y-18056960D01*
X8020777Y-18056960D02*
X8011253Y-18066484D01*
X8011253Y-18066484D02*
X8001729Y-18056960D01*
X8001729Y-18056960D02*
X8011253Y-18047436D01*
X8011253Y-18047436D02*
X8011253Y-18066484D01*
X8087443Y-17866484D02*
X8211253Y-17866484D01*
X8211253Y-17866484D02*
X8144586Y-17942674D01*
X8144586Y-17942674D02*
X8173158Y-17942674D01*
X8173158Y-17942674D02*
X8192205Y-17952198D01*
X8192205Y-17952198D02*
X8201729Y-17961722D01*
X8201729Y-17961722D02*
X8211253Y-17980770D01*
X8211253Y-17980770D02*
X8211253Y-18028389D01*
X8211253Y-18028389D02*
X8201729Y-18047436D01*
X8201729Y-18047436D02*
X8192205Y-18056960D01*
X8192205Y-18056960D02*
X8173158Y-18066484D01*
X8173158Y-18066484D02*
X8116015Y-18066484D01*
X8116015Y-18066484D02*
X8096967Y-18056960D01*
X8096967Y-18056960D02*
X8087443Y-18047436D01*
X8335062Y-17866484D02*
X8354110Y-17866484D01*
X8354110Y-17866484D02*
X8373158Y-17876008D01*
X8373158Y-17876008D02*
X8382682Y-17885531D01*
X8382682Y-17885531D02*
X8392205Y-17904579D01*
X8392205Y-17904579D02*
X8401729Y-17942674D01*
X8401729Y-17942674D02*
X8401729Y-17990293D01*
X8401729Y-17990293D02*
X8392205Y-18028389D01*
X8392205Y-18028389D02*
X8382682Y-18047436D01*
X8382682Y-18047436D02*
X8373158Y-18056960D01*
X8373158Y-18056960D02*
X8354110Y-18066484D01*
X8354110Y-18066484D02*
X8335062Y-18066484D01*
X8335062Y-18066484D02*
X8316015Y-18056960D01*
X8316015Y-18056960D02*
X8306491Y-18047436D01*
X8306491Y-18047436D02*
X8296967Y-18028389D01*
X8296967Y-18028389D02*
X8287443Y-17990293D01*
X8287443Y-17990293D02*
X8287443Y-17942674D01*
X8287443Y-17942674D02*
X8296967Y-17904579D01*
X8296967Y-17904579D02*
X8306491Y-17885531D01*
X8306491Y-17885531D02*
X8316015Y-17876008D01*
X8316015Y-17876008D02*
X8335062Y-17866484D01*
X8477920Y-17885531D02*
X8487444Y-17876008D01*
X8487444Y-17876008D02*
X8506491Y-17866484D01*
X8506491Y-17866484D02*
X8554110Y-17866484D01*
X8554110Y-17866484D02*
X8573158Y-17876008D01*
X8573158Y-17876008D02*
X8582682Y-17885531D01*
X8582682Y-17885531D02*
X8592205Y-17904579D01*
X8592205Y-17904579D02*
X8592205Y-17923627D01*
X8592205Y-17923627D02*
X8582682Y-17952198D01*
X8582682Y-17952198D02*
X8468396Y-18066484D01*
X8468396Y-18066484D02*
X8592205Y-18066484D01*
X8677920Y-18066484D02*
X8677920Y-17933150D01*
X8677920Y-17952198D02*
X8687444Y-17942674D01*
X8687444Y-17942674D02*
X8706491Y-17933150D01*
X8706491Y-17933150D02*
X8735063Y-17933150D01*
X8735063Y-17933150D02*
X8754110Y-17942674D01*
X8754110Y-17942674D02*
X8763634Y-17961722D01*
X8763634Y-17961722D02*
X8763634Y-18066484D01*
X8763634Y-17961722D02*
X8773158Y-17942674D01*
X8773158Y-17942674D02*
X8792205Y-17933150D01*
X8792205Y-17933150D02*
X8820777Y-17933150D01*
X8820777Y-17933150D02*
X8839825Y-17942674D01*
X8839825Y-17942674D02*
X8849348Y-17961722D01*
X8849348Y-17961722D02*
X8849348Y-18066484D01*
X8944586Y-18066484D02*
X8944586Y-17933150D01*
X8944586Y-17952198D02*
X8954110Y-17942674D01*
X8954110Y-17942674D02*
X8973158Y-17933150D01*
X8973158Y-17933150D02*
X9001729Y-17933150D01*
X9001729Y-17933150D02*
X9020777Y-17942674D01*
X9020777Y-17942674D02*
X9030301Y-17961722D01*
X9030301Y-17961722D02*
X9030301Y-18066484D01*
X9030301Y-17961722D02*
X9039825Y-17942674D01*
X9039825Y-17942674D02*
X9058872Y-17933150D01*
X9058872Y-17933150D02*
X9087444Y-17933150D01*
X9087444Y-17933150D02*
X9106491Y-17942674D01*
X9106491Y-17942674D02*
X9116015Y-17961722D01*
X9116015Y-17961722D02*
X9116015Y-18066484D01*
X9506491Y-17856960D02*
X9335063Y-18114103D01*
X9763634Y-17866484D02*
X9782682Y-17866484D01*
X9782682Y-17866484D02*
X9801729Y-17876008D01*
X9801729Y-17876008D02*
X9811253Y-17885531D01*
X9811253Y-17885531D02*
X9820777Y-17904579D01*
X9820777Y-17904579D02*
X9830301Y-17942674D01*
X9830301Y-17942674D02*
X9830301Y-17990293D01*
X9830301Y-17990293D02*
X9820777Y-18028389D01*
X9820777Y-18028389D02*
X9811253Y-18047436D01*
X9811253Y-18047436D02*
X9801729Y-18056960D01*
X9801729Y-18056960D02*
X9782682Y-18066484D01*
X9782682Y-18066484D02*
X9763634Y-18066484D01*
X9763634Y-18066484D02*
X9744587Y-18056960D01*
X9744587Y-18056960D02*
X9735063Y-18047436D01*
X9735063Y-18047436D02*
X9725539Y-18028389D01*
X9725539Y-18028389D02*
X9716015Y-17990293D01*
X9716015Y-17990293D02*
X9716015Y-17942674D01*
X9716015Y-17942674D02*
X9725539Y-17904579D01*
X9725539Y-17904579D02*
X9735063Y-17885531D01*
X9735063Y-17885531D02*
X9744587Y-17876008D01*
X9744587Y-17876008D02*
X9763634Y-17866484D01*
X9916015Y-18047436D02*
X9925539Y-18056960D01*
X9925539Y-18056960D02*
X9916015Y-18066484D01*
X9916015Y-18066484D02*
X9906491Y-18056960D01*
X9906491Y-18056960D02*
X9916015Y-18047436D01*
X9916015Y-18047436D02*
X9916015Y-18066484D01*
X10116015Y-18066484D02*
X10001729Y-18066484D01*
X10058872Y-18066484D02*
X10058872Y-17866484D01*
X10058872Y-17866484D02*
X10039825Y-17895055D01*
X10039825Y-17895055D02*
X10020777Y-17914103D01*
X10020777Y-17914103D02*
X10001729Y-17923627D01*
X10182682Y-17866484D02*
X10306491Y-17866484D01*
X10306491Y-17866484D02*
X10239825Y-17942674D01*
X10239825Y-17942674D02*
X10268396Y-17942674D01*
X10268396Y-17942674D02*
X10287444Y-17952198D01*
X10287444Y-17952198D02*
X10296968Y-17961722D01*
X10296968Y-17961722D02*
X10306491Y-17980770D01*
X10306491Y-17980770D02*
X10306491Y-18028389D01*
X10306491Y-18028389D02*
X10296968Y-18047436D01*
X10296968Y-18047436D02*
X10287444Y-18056960D01*
X10287444Y-18056960D02*
X10268396Y-18066484D01*
X10268396Y-18066484D02*
X10211253Y-18066484D01*
X10211253Y-18066484D02*
X10192206Y-18056960D01*
X10192206Y-18056960D02*
X10182682Y-18047436D01*
X10430301Y-17866484D02*
X10449349Y-17866484D01*
X10449349Y-17866484D02*
X10468396Y-17876008D01*
X10468396Y-17876008D02*
X10477920Y-17885531D01*
X10477920Y-17885531D02*
X10487444Y-17904579D01*
X10487444Y-17904579D02*
X10496968Y-17942674D01*
X10496968Y-17942674D02*
X10496968Y-17990293D01*
X10496968Y-17990293D02*
X10487444Y-18028389D01*
X10487444Y-18028389D02*
X10477920Y-18047436D01*
X10477920Y-18047436D02*
X10468396Y-18056960D01*
X10468396Y-18056960D02*
X10449349Y-18066484D01*
X10449349Y-18066484D02*
X10430301Y-18066484D01*
X10430301Y-18066484D02*
X10411253Y-18056960D01*
X10411253Y-18056960D02*
X10401729Y-18047436D01*
X10401729Y-18047436D02*
X10392206Y-18028389D01*
X10392206Y-18028389D02*
X10382682Y-17990293D01*
X10382682Y-17990293D02*
X10382682Y-17942674D01*
X10382682Y-17942674D02*
X10392206Y-17904579D01*
X10392206Y-17904579D02*
X10401729Y-17885531D01*
X10401729Y-17885531D02*
X10411253Y-17876008D01*
X10411253Y-17876008D02*
X10430301Y-17866484D01*
X10620777Y-17866484D02*
X10639825Y-17866484D01*
X10639825Y-17866484D02*
X10658872Y-17876008D01*
X10658872Y-17876008D02*
X10668396Y-17885531D01*
X10668396Y-17885531D02*
X10677920Y-17904579D01*
X10677920Y-17904579D02*
X10687444Y-17942674D01*
X10687444Y-17942674D02*
X10687444Y-17990293D01*
X10687444Y-17990293D02*
X10677920Y-18028389D01*
X10677920Y-18028389D02*
X10668396Y-18047436D01*
X10668396Y-18047436D02*
X10658872Y-18056960D01*
X10658872Y-18056960D02*
X10639825Y-18066484D01*
X10639825Y-18066484D02*
X10620777Y-18066484D01*
X10620777Y-18066484D02*
X10601729Y-18056960D01*
X10601729Y-18056960D02*
X10592206Y-18047436D01*
X10592206Y-18047436D02*
X10582682Y-18028389D01*
X10582682Y-18028389D02*
X10573158Y-17990293D01*
X10573158Y-17990293D02*
X10573158Y-17942674D01*
X10573158Y-17942674D02*
X10582682Y-17904579D01*
X10582682Y-17904579D02*
X10592206Y-17885531D01*
X10592206Y-17885531D02*
X10601729Y-17876008D01*
X10601729Y-17876008D02*
X10620777Y-17866484D01*
X10763634Y-17866484D02*
X10763634Y-17904579D01*
X10839825Y-17866484D02*
X10839825Y-17904579D01*
X11135063Y-18142674D02*
X11125539Y-18133150D01*
X11125539Y-18133150D02*
X11106491Y-18104579D01*
X11106491Y-18104579D02*
X11096968Y-18085531D01*
X11096968Y-18085531D02*
X11087444Y-18056960D01*
X11087444Y-18056960D02*
X11077920Y-18009341D01*
X11077920Y-18009341D02*
X11077920Y-17971246D01*
X11077920Y-17971246D02*
X11087444Y-17923627D01*
X11087444Y-17923627D02*
X11096968Y-17895055D01*
X11096968Y-17895055D02*
X11106491Y-17876008D01*
X11106491Y-17876008D02*
X11125539Y-17847436D01*
X11125539Y-17847436D02*
X11135063Y-17837912D01*
X11201729Y-17885531D02*
X11211253Y-17876008D01*
X11211253Y-17876008D02*
X11230301Y-17866484D01*
X11230301Y-17866484D02*
X11277920Y-17866484D01*
X11277920Y-17866484D02*
X11296968Y-17876008D01*
X11296968Y-17876008D02*
X11306491Y-17885531D01*
X11306491Y-17885531D02*
X11316015Y-17904579D01*
X11316015Y-17904579D02*
X11316015Y-17923627D01*
X11316015Y-17923627D02*
X11306491Y-17952198D01*
X11306491Y-17952198D02*
X11192206Y-18066484D01*
X11192206Y-18066484D02*
X11316015Y-18066484D01*
X11554110Y-18066484D02*
X11554110Y-17866484D01*
X11639825Y-18066484D02*
X11639825Y-17961722D01*
X11639825Y-17961722D02*
X11630301Y-17942674D01*
X11630301Y-17942674D02*
X11611253Y-17933150D01*
X11611253Y-17933150D02*
X11582682Y-17933150D01*
X11582682Y-17933150D02*
X11563634Y-17942674D01*
X11563634Y-17942674D02*
X11554110Y-17952198D01*
X11763634Y-18066484D02*
X11744587Y-18056960D01*
X11744587Y-18056960D02*
X11735063Y-18047436D01*
X11735063Y-18047436D02*
X11725539Y-18028389D01*
X11725539Y-18028389D02*
X11725539Y-17971246D01*
X11725539Y-17971246D02*
X11735063Y-17952198D01*
X11735063Y-17952198D02*
X11744587Y-17942674D01*
X11744587Y-17942674D02*
X11763634Y-17933150D01*
X11763634Y-17933150D02*
X11792206Y-17933150D01*
X11792206Y-17933150D02*
X11811253Y-17942674D01*
X11811253Y-17942674D02*
X11820777Y-17952198D01*
X11820777Y-17952198D02*
X11830301Y-17971246D01*
X11830301Y-17971246D02*
X11830301Y-18028389D01*
X11830301Y-18028389D02*
X11820777Y-18047436D01*
X11820777Y-18047436D02*
X11811253Y-18056960D01*
X11811253Y-18056960D02*
X11792206Y-18066484D01*
X11792206Y-18066484D02*
X11763634Y-18066484D01*
X11944587Y-18066484D02*
X11925539Y-18056960D01*
X11925539Y-18056960D02*
X11916015Y-18037912D01*
X11916015Y-18037912D02*
X11916015Y-17866484D01*
X12096968Y-18056960D02*
X12077920Y-18066484D01*
X12077920Y-18066484D02*
X12039825Y-18066484D01*
X12039825Y-18066484D02*
X12020777Y-18056960D01*
X12020777Y-18056960D02*
X12011253Y-18037912D01*
X12011253Y-18037912D02*
X12011253Y-17961722D01*
X12011253Y-17961722D02*
X12020777Y-17942674D01*
X12020777Y-17942674D02*
X12039825Y-17933150D01*
X12039825Y-17933150D02*
X12077920Y-17933150D01*
X12077920Y-17933150D02*
X12096968Y-17942674D01*
X12096968Y-17942674D02*
X12106491Y-17961722D01*
X12106491Y-17961722D02*
X12106491Y-17980770D01*
X12106491Y-17980770D02*
X12011253Y-17999817D01*
X12182682Y-18056960D02*
X12201730Y-18066484D01*
X12201730Y-18066484D02*
X12239825Y-18066484D01*
X12239825Y-18066484D02*
X12258872Y-18056960D01*
X12258872Y-18056960D02*
X12268396Y-18037912D01*
X12268396Y-18037912D02*
X12268396Y-18028389D01*
X12268396Y-18028389D02*
X12258872Y-18009341D01*
X12258872Y-18009341D02*
X12239825Y-17999817D01*
X12239825Y-17999817D02*
X12211253Y-17999817D01*
X12211253Y-17999817D02*
X12192206Y-17990293D01*
X12192206Y-17990293D02*
X12182682Y-17971246D01*
X12182682Y-17971246D02*
X12182682Y-17961722D01*
X12182682Y-17961722D02*
X12192206Y-17942674D01*
X12192206Y-17942674D02*
X12211253Y-17933150D01*
X12211253Y-17933150D02*
X12239825Y-17933150D01*
X12239825Y-17933150D02*
X12258872Y-17942674D01*
X12335063Y-18142674D02*
X12344587Y-18133150D01*
X12344587Y-18133150D02*
X12363634Y-18104579D01*
X12363634Y-18104579D02*
X12373158Y-18085531D01*
X12373158Y-18085531D02*
X12382682Y-18056960D01*
X12382682Y-18056960D02*
X12392206Y-18009341D01*
X12392206Y-18009341D02*
X12392206Y-17971246D01*
X12392206Y-17971246D02*
X12382682Y-17923627D01*
X12382682Y-17923627D02*
X12373158Y-17895055D01*
X12373158Y-17895055D02*
X12363634Y-17876008D01*
X12363634Y-17876008D02*
X12344587Y-17847436D01*
X12344587Y-17847436D02*
X12335063Y-17837912D01*
X12696968Y-18142674D02*
X12687444Y-18133150D01*
X12687444Y-18133150D02*
X12668396Y-18104579D01*
X12668396Y-18104579D02*
X12658872Y-18085531D01*
X12658872Y-18085531D02*
X12649349Y-18056960D01*
X12649349Y-18056960D02*
X12639825Y-18009341D01*
X12639825Y-18009341D02*
X12639825Y-17971246D01*
X12639825Y-17971246D02*
X12649349Y-17923627D01*
X12649349Y-17923627D02*
X12658872Y-17895055D01*
X12658872Y-17895055D02*
X12668396Y-17876008D01*
X12668396Y-17876008D02*
X12687444Y-17847436D01*
X12687444Y-17847436D02*
X12696968Y-17837912D01*
X12773158Y-17933150D02*
X12773158Y-18066484D01*
X12773158Y-17952198D02*
X12782682Y-17942674D01*
X12782682Y-17942674D02*
X12801730Y-17933150D01*
X12801730Y-17933150D02*
X12830301Y-17933150D01*
X12830301Y-17933150D02*
X12849349Y-17942674D01*
X12849349Y-17942674D02*
X12858872Y-17961722D01*
X12858872Y-17961722D02*
X12858872Y-18066484D01*
X12982682Y-18066484D02*
X12963634Y-18056960D01*
X12963634Y-18056960D02*
X12954111Y-18047436D01*
X12954111Y-18047436D02*
X12944587Y-18028389D01*
X12944587Y-18028389D02*
X12944587Y-17971246D01*
X12944587Y-17971246D02*
X12954111Y-17952198D01*
X12954111Y-17952198D02*
X12963634Y-17942674D01*
X12963634Y-17942674D02*
X12982682Y-17933150D01*
X12982682Y-17933150D02*
X13011253Y-17933150D01*
X13011253Y-17933150D02*
X13030301Y-17942674D01*
X13030301Y-17942674D02*
X13039825Y-17952198D01*
X13039825Y-17952198D02*
X13049349Y-17971246D01*
X13049349Y-17971246D02*
X13049349Y-18028389D01*
X13049349Y-18028389D02*
X13039825Y-18047436D01*
X13039825Y-18047436D02*
X13030301Y-18056960D01*
X13030301Y-18056960D02*
X13011253Y-18066484D01*
X13011253Y-18066484D02*
X12982682Y-18066484D01*
X13106492Y-17933150D02*
X13182682Y-17933150D01*
X13135063Y-17866484D02*
X13135063Y-18037912D01*
X13135063Y-18037912D02*
X13144587Y-18056960D01*
X13144587Y-18056960D02*
X13163634Y-18066484D01*
X13163634Y-18066484D02*
X13182682Y-18066484D01*
X13401730Y-17933150D02*
X13401730Y-18133150D01*
X13401730Y-17942674D02*
X13420777Y-17933150D01*
X13420777Y-17933150D02*
X13458873Y-17933150D01*
X13458873Y-17933150D02*
X13477920Y-17942674D01*
X13477920Y-17942674D02*
X13487444Y-17952198D01*
X13487444Y-17952198D02*
X13496968Y-17971246D01*
X13496968Y-17971246D02*
X13496968Y-18028389D01*
X13496968Y-18028389D02*
X13487444Y-18047436D01*
X13487444Y-18047436D02*
X13477920Y-18056960D01*
X13477920Y-18056960D02*
X13458873Y-18066484D01*
X13458873Y-18066484D02*
X13420777Y-18066484D01*
X13420777Y-18066484D02*
X13401730Y-18056960D01*
X13611253Y-18066484D02*
X13592206Y-18056960D01*
X13592206Y-18056960D02*
X13582682Y-18037912D01*
X13582682Y-18037912D02*
X13582682Y-17866484D01*
X13773158Y-18066484D02*
X13773158Y-17961722D01*
X13773158Y-17961722D02*
X13763634Y-17942674D01*
X13763634Y-17942674D02*
X13744587Y-17933150D01*
X13744587Y-17933150D02*
X13706492Y-17933150D01*
X13706492Y-17933150D02*
X13687444Y-17942674D01*
X13773158Y-18056960D02*
X13754111Y-18066484D01*
X13754111Y-18066484D02*
X13706492Y-18066484D01*
X13706492Y-18066484D02*
X13687444Y-18056960D01*
X13687444Y-18056960D02*
X13677920Y-18037912D01*
X13677920Y-18037912D02*
X13677920Y-18018865D01*
X13677920Y-18018865D02*
X13687444Y-17999817D01*
X13687444Y-17999817D02*
X13706492Y-17990293D01*
X13706492Y-17990293D02*
X13754111Y-17990293D01*
X13754111Y-17990293D02*
X13773158Y-17980770D01*
X13839825Y-17933150D02*
X13916015Y-17933150D01*
X13868396Y-17866484D02*
X13868396Y-18037912D01*
X13868396Y-18037912D02*
X13877920Y-18056960D01*
X13877920Y-18056960D02*
X13896968Y-18066484D01*
X13896968Y-18066484D02*
X13916015Y-18066484D01*
X14058873Y-18056960D02*
X14039825Y-18066484D01*
X14039825Y-18066484D02*
X14001730Y-18066484D01*
X14001730Y-18066484D02*
X13982682Y-18056960D01*
X13982682Y-18056960D02*
X13973158Y-18037912D01*
X13973158Y-18037912D02*
X13973158Y-17961722D01*
X13973158Y-17961722D02*
X13982682Y-17942674D01*
X13982682Y-17942674D02*
X14001730Y-17933150D01*
X14001730Y-17933150D02*
X14039825Y-17933150D01*
X14039825Y-17933150D02*
X14058873Y-17942674D01*
X14058873Y-17942674D02*
X14068396Y-17961722D01*
X14068396Y-17961722D02*
X14068396Y-17980770D01*
X14068396Y-17980770D02*
X13973158Y-17999817D01*
X14239825Y-18066484D02*
X14239825Y-17866484D01*
X14239825Y-18056960D02*
X14220777Y-18066484D01*
X14220777Y-18066484D02*
X14182682Y-18066484D01*
X14182682Y-18066484D02*
X14163634Y-18056960D01*
X14163634Y-18056960D02*
X14154111Y-18047436D01*
X14154111Y-18047436D02*
X14144587Y-18028389D01*
X14144587Y-18028389D02*
X14144587Y-17971246D01*
X14144587Y-17971246D02*
X14154111Y-17952198D01*
X14154111Y-17952198D02*
X14163634Y-17942674D01*
X14163634Y-17942674D02*
X14182682Y-17933150D01*
X14182682Y-17933150D02*
X14220777Y-17933150D01*
X14220777Y-17933150D02*
X14239825Y-17942674D01*
X14316015Y-18142674D02*
X14325539Y-18133150D01*
X14325539Y-18133150D02*
X14344587Y-18104579D01*
X14344587Y-18104579D02*
X14354111Y-18085531D01*
X14354111Y-18085531D02*
X14363634Y-18056960D01*
X14363634Y-18056960D02*
X14373158Y-18009341D01*
X14373158Y-18009341D02*
X14373158Y-17971246D01*
X14373158Y-17971246D02*
X14363634Y-17923627D01*
X14363634Y-17923627D02*
X14354111Y-17895055D01*
X14354111Y-17895055D02*
X14344587Y-17876008D01*
X14344587Y-17876008D02*
X14325539Y-17847436D01*
X14325539Y-17847436D02*
X14316015Y-17837912D01*
M02*
