%TF.GenerationSoftware,KiCad,Pcbnew,9.0.4*%
%TF.CreationDate,2025-11-06T14:53:54-06:00*%
%TF.ProjectId,Spy,5370792e-6b69-4636-9164-5f7063625858,rev?*%
%TF.SameCoordinates,Original*%
%TF.FileFunction,Drillmap*%
%TF.FilePolarity,Positive*%
%FSLAX45Y45*%
G04 Gerber Fmt 4.5, Leading zero omitted, Abs format (unit mm)*
G04 Created by KiCad (PCBNEW 9.0.4) date 2025-11-06 14:53:54*
%MOMM*%
%LPD*%
G01*
G04 APERTURE LIST*
%ADD10C,0.050000*%
%ADD11C,0.200000*%
%ADD12C,0.100000*%
%ADD13C,0.101600*%
%ADD14C,0.108000*%
%ADD15C,0.140000*%
%ADD16C,0.250000*%
G04 APERTURE END LIST*
D10*
X7562500Y-3587500D02*
X16312500Y-3587500D01*
X16312500Y-17012500D01*
X7562500Y-17012500D01*
X7562500Y-3587500D01*
D11*
D12*
X12072500Y-8222500D02*
X12102500Y-8252500D01*
X12102500Y-8222500D02*
X12072500Y-8252500D01*
X12147500Y-10222500D02*
X12177500Y-10252500D01*
X12177500Y-10222500D02*
X12147500Y-10252500D01*
X12597500Y-6647500D02*
X12627500Y-6677500D01*
X12627500Y-6647500D02*
X12597500Y-6677500D01*
X13122500Y-12497500D02*
X13152500Y-12527500D01*
X13152500Y-12497500D02*
X13122500Y-12527500D01*
X11762500Y-11362500D02*
G75*
G02*
X11712500Y-11362500I-25000J0D01*
G01*
X11712500Y-11362500D02*
G75*
G02*
X11762500Y-11362500I25000J0D01*
G01*
X11322500Y-5632156D02*
X11322500Y-5712156D01*
X11282500Y-5672156D02*
X11362500Y-5672156D01*
X11322500Y-5886156D02*
X11322500Y-5966156D01*
X11282500Y-5926156D02*
X11362500Y-5926156D01*
X11322500Y-6140156D02*
X11322500Y-6220156D01*
X11282500Y-6180156D02*
X11362500Y-6180156D01*
X11322500Y-6394156D02*
X11322500Y-6474156D01*
X11282500Y-6434156D02*
X11362500Y-6434156D01*
X11322500Y-6648156D02*
X11322500Y-6728156D01*
X11282500Y-6688156D02*
X11362500Y-6688156D01*
X11322500Y-6902156D02*
X11322500Y-6982156D01*
X11282500Y-6942156D02*
X11362500Y-6942156D01*
X11322500Y-7156156D02*
X11322500Y-7236156D01*
X11282500Y-7196156D02*
X11362500Y-7196156D01*
X11322500Y-7410156D02*
X11322500Y-7490156D01*
X11282500Y-7450156D02*
X11362500Y-7450156D01*
X11322500Y-7664156D02*
X11322500Y-7744156D01*
X11282500Y-7704156D02*
X11362500Y-7704156D01*
X11322500Y-7918156D02*
X11322500Y-7998156D01*
X11282500Y-7958156D02*
X11362500Y-7958156D01*
X11322500Y-8172156D02*
X11322500Y-8252156D01*
X11282500Y-8212156D02*
X11362500Y-8212156D01*
X11322500Y-8426156D02*
X11322500Y-8506156D01*
X11282500Y-8466156D02*
X11362500Y-8466156D01*
X11322500Y-8680156D02*
X11322500Y-8760156D01*
X11282500Y-8720156D02*
X11362500Y-8720156D01*
X11322500Y-8934156D02*
X11322500Y-9014156D01*
X11282500Y-8974156D02*
X11362500Y-8974156D01*
X11322500Y-9188156D02*
X11322500Y-9268156D01*
X11282500Y-9228156D02*
X11362500Y-9228156D01*
X11322500Y-9442156D02*
X11322500Y-9522156D01*
X11282500Y-9482156D02*
X11362500Y-9482156D01*
X11322500Y-9696156D02*
X11322500Y-9776156D01*
X11282500Y-9736156D02*
X11362500Y-9736156D01*
X11322500Y-9950156D02*
X11322500Y-10030156D01*
X11282500Y-9990156D02*
X11362500Y-9990156D01*
X11322500Y-10204156D02*
X11322500Y-10284156D01*
X11282500Y-10244156D02*
X11362500Y-10244156D01*
X13862132Y-9949884D02*
X13862132Y-10029884D01*
X13822132Y-9989884D02*
X13902132Y-9989884D01*
X13862132Y-10203884D02*
X13862132Y-10283884D01*
X13822132Y-10243884D02*
X13902132Y-10243884D01*
X13862500Y-5632156D02*
X13862500Y-5712156D01*
X13822500Y-5672156D02*
X13902500Y-5672156D01*
X13862500Y-5886156D02*
X13862500Y-5966156D01*
X13822500Y-5926156D02*
X13902500Y-5926156D01*
X13862500Y-6140156D02*
X13862500Y-6220156D01*
X13822500Y-6180156D02*
X13902500Y-6180156D01*
X13862500Y-6394156D02*
X13862500Y-6474156D01*
X13822500Y-6434156D02*
X13902500Y-6434156D01*
X13862500Y-6648156D02*
X13862500Y-6728156D01*
X13822500Y-6688156D02*
X13902500Y-6688156D01*
X13862500Y-6902156D02*
X13862500Y-6982156D01*
X13822500Y-6942156D02*
X13902500Y-6942156D01*
X13862500Y-7156156D02*
X13862500Y-7236156D01*
X13822500Y-7196156D02*
X13902500Y-7196156D01*
X13862500Y-7410156D02*
X13862500Y-7490156D01*
X13822500Y-7450156D02*
X13902500Y-7450156D01*
X13862500Y-7664156D02*
X13862500Y-7744156D01*
X13822500Y-7704156D02*
X13902500Y-7704156D01*
X13862500Y-7918156D02*
X13862500Y-7998156D01*
X13822500Y-7958156D02*
X13902500Y-7958156D01*
X13862500Y-8172156D02*
X13862500Y-8252156D01*
X13822500Y-8212156D02*
X13902500Y-8212156D01*
X13862500Y-8426156D02*
X13862500Y-8506156D01*
X13822500Y-8466156D02*
X13902500Y-8466156D01*
X13862500Y-8680156D02*
X13862500Y-8760156D01*
X13822500Y-8720156D02*
X13902500Y-8720156D01*
X13862500Y-8934156D02*
X13862500Y-9014156D01*
X13822500Y-8974156D02*
X13902500Y-8974156D01*
X13862500Y-9188156D02*
X13862500Y-9268156D01*
X13822500Y-9228156D02*
X13902500Y-9228156D01*
X13862500Y-9442156D02*
X13862500Y-9522156D01*
X13822500Y-9482156D02*
X13902500Y-9482156D01*
X13862500Y-9696156D02*
X13862500Y-9776156D01*
X13822500Y-9736156D02*
X13902500Y-9736156D01*
X9397856Y-5589856D02*
X9397856Y-5519144D01*
X9327144Y-5519144D01*
X9327144Y-5589856D01*
X9397856Y-5589856D01*
X9397856Y-5843856D02*
X9397856Y-5773144D01*
X9327144Y-5773144D01*
X9327144Y-5843856D01*
X9397856Y-5843856D01*
X9397856Y-6097856D02*
X9397856Y-6027144D01*
X9327144Y-6027144D01*
X9327144Y-6097856D01*
X9397856Y-6097856D01*
X9897856Y-12153856D02*
X9897856Y-12083144D01*
X9827144Y-12083144D01*
X9827144Y-12153856D01*
X9897856Y-12153856D01*
X9897856Y-12407856D02*
X9897856Y-12337144D01*
X9827144Y-12337144D01*
X9827144Y-12407856D01*
X9897856Y-12407856D01*
X9897856Y-12661856D02*
X9897856Y-12591144D01*
X9827144Y-12591144D01*
X9827144Y-12661856D01*
X9897856Y-12661856D01*
X9897856Y-12915856D02*
X9897856Y-12845144D01*
X9827144Y-12845144D01*
X9827144Y-12915856D01*
X9897856Y-12915856D01*
X10373081Y-9593856D02*
X10373081Y-9523144D01*
X10302369Y-9523144D01*
X10302369Y-9593856D01*
X10373081Y-9593856D01*
X10373081Y-9847856D02*
X10373081Y-9777144D01*
X10302369Y-9777144D01*
X10302369Y-9847856D01*
X10373081Y-9847856D01*
X10373081Y-10101856D02*
X10373081Y-10031144D01*
X10302369Y-10031144D01*
X10302369Y-10101856D01*
X10373081Y-10101856D01*
X11732856Y-4572856D02*
X11732856Y-4502144D01*
X11662144Y-4502144D01*
X11662144Y-4572856D01*
X11732856Y-4572856D01*
X11986856Y-4572856D02*
X11986856Y-4502144D01*
X11916144Y-4502144D01*
X11916144Y-4572856D01*
X11986856Y-4572856D01*
X12240856Y-4572856D02*
X12240856Y-4502144D01*
X12170144Y-4502144D01*
X12170144Y-4572856D01*
X12240856Y-4572856D01*
X12494856Y-4572856D02*
X12494856Y-4502144D01*
X12424144Y-4502144D01*
X12424144Y-4572856D01*
X12494856Y-4572856D01*
X12748856Y-4572856D02*
X12748856Y-4502144D01*
X12678144Y-4502144D01*
X12678144Y-4572856D01*
X12748856Y-4572856D01*
X13002856Y-4572856D02*
X13002856Y-4502144D01*
X12932144Y-4502144D01*
X12932144Y-4572856D01*
X13002856Y-4572856D01*
X13256856Y-4572856D02*
X13256856Y-4502144D01*
X13186144Y-4502144D01*
X13186144Y-4572856D01*
X13256856Y-4572856D01*
X13510856Y-4572856D02*
X13510856Y-4502144D01*
X13440144Y-4502144D01*
X13440144Y-4572856D01*
X13510856Y-4572856D01*
X13764856Y-4572856D02*
X13764856Y-4502144D01*
X13694144Y-4502144D01*
X13694144Y-4572856D01*
X13764856Y-4572856D01*
X14018856Y-4572856D02*
X14018856Y-4502144D01*
X13948144Y-4502144D01*
X13948144Y-4572856D01*
X14018856Y-4572856D01*
X14272856Y-4572856D02*
X14272856Y-4502144D01*
X14202144Y-4502144D01*
X14202144Y-4572856D01*
X14272856Y-4572856D01*
X15372856Y-5468856D02*
X15372856Y-5398144D01*
X15302144Y-5398144D01*
X15302144Y-5468856D01*
X15372856Y-5468856D01*
X15372856Y-5722856D02*
X15372856Y-5652144D01*
X15302144Y-5652144D01*
X15302144Y-5722856D01*
X15372856Y-5722856D01*
X15372856Y-5976856D02*
X15372856Y-5906144D01*
X15302144Y-5906144D01*
X15302144Y-5976856D01*
X15372856Y-5976856D01*
X15422856Y-8989856D02*
X15422856Y-8919144D01*
X15352144Y-8919144D01*
X15352144Y-8989856D01*
X15422856Y-8989856D01*
X15422856Y-9243856D02*
X15422856Y-9173144D01*
X15352144Y-9173144D01*
X15352144Y-9243856D01*
X15422856Y-9243856D01*
X15422856Y-9497856D02*
X15422856Y-9427144D01*
X15352144Y-9427144D01*
X15352144Y-9497856D01*
X15422856Y-9497856D01*
D13*
X11907450Y-14999300D02*
X11958250Y-14948500D01*
X11907450Y-14897700D01*
X11856650Y-14948500D01*
X11907450Y-14999300D01*
X12161450Y-14999300D02*
X12212250Y-14948500D01*
X12161450Y-14897700D01*
X12110650Y-14948500D01*
X12161450Y-14999300D01*
X12415450Y-14999300D02*
X12466250Y-14948500D01*
X12415450Y-14897700D01*
X12364650Y-14948500D01*
X12415450Y-14999300D01*
X12669450Y-14999300D02*
X12720250Y-14948500D01*
X12669450Y-14897700D01*
X12618650Y-14948500D01*
X12669450Y-14999300D01*
X12923450Y-14999300D02*
X12974250Y-14948500D01*
X12923450Y-14897700D01*
X12872650Y-14948500D01*
X12923450Y-14999300D01*
X13177450Y-14999300D02*
X13228250Y-14948500D01*
X13177450Y-14897700D01*
X13126650Y-14948500D01*
X13177450Y-14999300D01*
D14*
X11629500Y-11758500D02*
X11737500Y-11866500D01*
X11737500Y-11758500D02*
X11629500Y-11866500D01*
X11737500Y-11812500D02*
G75*
G02*
X11629500Y-11812500I-54000J0D01*
G01*
X11629500Y-11812500D02*
G75*
G02*
X11737500Y-11812500I54000J0D01*
G01*
X11756500Y-12266500D02*
X11864500Y-12374500D01*
X11864500Y-12266500D02*
X11756500Y-12374500D01*
X11864500Y-12320500D02*
G75*
G02*
X11756500Y-12320500I-54000J0D01*
G01*
X11756500Y-12320500D02*
G75*
G02*
X11864500Y-12320500I54000J0D01*
G01*
X11883500Y-11758500D02*
X11991500Y-11866500D01*
X11991500Y-11758500D02*
X11883500Y-11866500D01*
X11991500Y-11812500D02*
G75*
G02*
X11883500Y-11812500I-54000J0D01*
G01*
X11883500Y-11812500D02*
G75*
G02*
X11991500Y-11812500I54000J0D01*
G01*
X12010500Y-12266500D02*
X12118500Y-12374500D01*
X12118500Y-12266500D02*
X12010500Y-12374500D01*
X12118500Y-12320500D02*
G75*
G02*
X12010500Y-12320500I-54000J0D01*
G01*
X12010500Y-12320500D02*
G75*
G02*
X12118500Y-12320500I54000J0D01*
G01*
X12137500Y-11758500D02*
X12245500Y-11866500D01*
X12245500Y-11758500D02*
X12137500Y-11866500D01*
X12245500Y-11812500D02*
G75*
G02*
X12137500Y-11812500I-54000J0D01*
G01*
X12137500Y-11812500D02*
G75*
G02*
X12245500Y-11812500I54000J0D01*
G01*
X12264500Y-12266500D02*
X12372500Y-12374500D01*
X12372500Y-12266500D02*
X12264500Y-12374500D01*
X12372500Y-12320500D02*
G75*
G02*
X12264500Y-12320500I-54000J0D01*
G01*
X12264500Y-12320500D02*
G75*
G02*
X12372500Y-12320500I54000J0D01*
G01*
X12391500Y-11758500D02*
X12499500Y-11866500D01*
X12499500Y-11758500D02*
X12391500Y-11866500D01*
X12499500Y-11812500D02*
G75*
G02*
X12391500Y-11812500I-54000J0D01*
G01*
X12391500Y-11812500D02*
G75*
G02*
X12499500Y-11812500I54000J0D01*
G01*
X12518500Y-12266500D02*
X12626500Y-12374500D01*
X12626500Y-12266500D02*
X12518500Y-12374500D01*
X12626500Y-12320500D02*
G75*
G02*
X12518500Y-12320500I-54000J0D01*
G01*
X12518500Y-12320500D02*
G75*
G02*
X12626500Y-12320500I54000J0D01*
G01*
X12645500Y-11758500D02*
X12753500Y-11866500D01*
X12753500Y-11758500D02*
X12645500Y-11866500D01*
X12753500Y-11812500D02*
G75*
G02*
X12645500Y-11812500I-54000J0D01*
G01*
X12645500Y-11812500D02*
G75*
G02*
X12753500Y-11812500I54000J0D01*
G01*
X12772500Y-12266500D02*
X12880500Y-12374500D01*
X12880500Y-12266500D02*
X12772500Y-12374500D01*
X12880500Y-12320500D02*
G75*
G02*
X12772500Y-12320500I-54000J0D01*
G01*
X12772500Y-12320500D02*
G75*
G02*
X12880500Y-12320500I54000J0D01*
G01*
X12899500Y-11758500D02*
X13007500Y-11866500D01*
X13007500Y-11758500D02*
X12899500Y-11866500D01*
X13007500Y-11812500D02*
G75*
G02*
X12899500Y-11812500I-54000J0D01*
G01*
X12899500Y-11812500D02*
G75*
G02*
X13007500Y-11812500I54000J0D01*
G01*
X13026500Y-12266500D02*
X13134500Y-12374500D01*
X13134500Y-12266500D02*
X13026500Y-12374500D01*
X13134500Y-12320500D02*
G75*
G02*
X13026500Y-12320500I-54000J0D01*
G01*
X13026500Y-12320500D02*
G75*
G02*
X13134500Y-12320500I54000J0D01*
G01*
X13153500Y-11758500D02*
X13261500Y-11866500D01*
X13261500Y-11758500D02*
X13153500Y-11866500D01*
X13261500Y-11812500D02*
G75*
G02*
X13153500Y-11812500I-54000J0D01*
G01*
X13153500Y-11812500D02*
G75*
G02*
X13261500Y-11812500I54000J0D01*
G01*
X13280500Y-12266500D02*
X13388500Y-12374500D01*
X13388500Y-12266500D02*
X13280500Y-12374500D01*
X13388500Y-12320500D02*
G75*
G02*
X13280500Y-12320500I-54000J0D01*
G01*
X13280500Y-12320500D02*
G75*
G02*
X13388500Y-12320500I54000J0D01*
G01*
X13407500Y-11758500D02*
X13515500Y-11866500D01*
X13515500Y-11758500D02*
X13407500Y-11866500D01*
X13515500Y-11812500D02*
G75*
G02*
X13407500Y-11812500I-54000J0D01*
G01*
X13407500Y-11812500D02*
G75*
G02*
X13515500Y-11812500I54000J0D01*
G01*
D15*
X10847250Y-15417500D02*
X10987250Y-15557500D01*
X10987250Y-15417500D02*
X10847250Y-15557500D01*
X10917250Y-15417500D02*
X10917250Y-15557500D01*
X10847250Y-15487500D02*
X10987250Y-15487500D01*
X10847250Y-15917500D02*
X10987250Y-16057500D01*
X10987250Y-15917500D02*
X10847250Y-16057500D01*
X10917250Y-15917500D02*
X10917250Y-16057500D01*
X10847250Y-15987500D02*
X10987250Y-15987500D01*
X14091750Y-15342500D02*
X14231750Y-15482500D01*
X14231750Y-15342500D02*
X14091750Y-15482500D01*
X14161750Y-15342500D02*
X14161750Y-15482500D01*
X14091750Y-15412500D02*
X14231750Y-15412500D01*
X14091750Y-15842500D02*
X14231750Y-15982500D01*
X14231750Y-15842500D02*
X14091750Y-15982500D01*
X14161750Y-15842500D02*
X14161750Y-15982500D01*
X14091750Y-15912500D02*
X14231750Y-15912500D01*
D16*
X9737500Y-11612500D02*
X9987500Y-11862500D01*
X9987500Y-11612500D02*
X9737500Y-11862500D01*
X9950889Y-11825889D02*
X9950889Y-11649111D01*
X9774111Y-11649111D01*
X9774111Y-11825889D01*
X9950889Y-11825889D01*
X9737500Y-13136500D02*
X9987500Y-13386500D01*
X9987500Y-13136500D02*
X9737500Y-13386500D01*
X9950889Y-13349889D02*
X9950889Y-13173111D01*
X9774111Y-13173111D01*
X9774111Y-13349889D01*
X9950889Y-13349889D01*
D11*
X7820777Y-17326484D02*
X7820777Y-17126484D01*
X7820777Y-17126484D02*
X7868396Y-17126484D01*
X7868396Y-17126484D02*
X7896967Y-17136008D01*
X7896967Y-17136008D02*
X7916015Y-17155055D01*
X7916015Y-17155055D02*
X7925539Y-17174103D01*
X7925539Y-17174103D02*
X7935062Y-17212198D01*
X7935062Y-17212198D02*
X7935062Y-17240770D01*
X7935062Y-17240770D02*
X7925539Y-17278865D01*
X7925539Y-17278865D02*
X7916015Y-17297912D01*
X7916015Y-17297912D02*
X7896967Y-17316960D01*
X7896967Y-17316960D02*
X7868396Y-17326484D01*
X7868396Y-17326484D02*
X7820777Y-17326484D01*
X8020777Y-17326484D02*
X8020777Y-17193150D01*
X8020777Y-17231246D02*
X8030301Y-17212198D01*
X8030301Y-17212198D02*
X8039824Y-17202674D01*
X8039824Y-17202674D02*
X8058872Y-17193150D01*
X8058872Y-17193150D02*
X8077920Y-17193150D01*
X8144586Y-17326484D02*
X8144586Y-17193150D01*
X8144586Y-17126484D02*
X8135062Y-17136008D01*
X8135062Y-17136008D02*
X8144586Y-17145531D01*
X8144586Y-17145531D02*
X8154110Y-17136008D01*
X8154110Y-17136008D02*
X8144586Y-17126484D01*
X8144586Y-17126484D02*
X8144586Y-17145531D01*
X8268396Y-17326484D02*
X8249348Y-17316960D01*
X8249348Y-17316960D02*
X8239824Y-17297912D01*
X8239824Y-17297912D02*
X8239824Y-17126484D01*
X8373158Y-17326484D02*
X8354110Y-17316960D01*
X8354110Y-17316960D02*
X8344586Y-17297912D01*
X8344586Y-17297912D02*
X8344586Y-17126484D01*
X8601729Y-17326484D02*
X8601729Y-17126484D01*
X8601729Y-17126484D02*
X8668396Y-17269341D01*
X8668396Y-17269341D02*
X8735063Y-17126484D01*
X8735063Y-17126484D02*
X8735063Y-17326484D01*
X8916015Y-17326484D02*
X8916015Y-17221722D01*
X8916015Y-17221722D02*
X8906491Y-17202674D01*
X8906491Y-17202674D02*
X8887444Y-17193150D01*
X8887444Y-17193150D02*
X8849348Y-17193150D01*
X8849348Y-17193150D02*
X8830301Y-17202674D01*
X8916015Y-17316960D02*
X8896967Y-17326484D01*
X8896967Y-17326484D02*
X8849348Y-17326484D01*
X8849348Y-17326484D02*
X8830301Y-17316960D01*
X8830301Y-17316960D02*
X8820777Y-17297912D01*
X8820777Y-17297912D02*
X8820777Y-17278865D01*
X8820777Y-17278865D02*
X8830301Y-17259817D01*
X8830301Y-17259817D02*
X8849348Y-17250293D01*
X8849348Y-17250293D02*
X8896967Y-17250293D01*
X8896967Y-17250293D02*
X8916015Y-17240770D01*
X9011253Y-17193150D02*
X9011253Y-17393150D01*
X9011253Y-17202674D02*
X9030301Y-17193150D01*
X9030301Y-17193150D02*
X9068396Y-17193150D01*
X9068396Y-17193150D02*
X9087444Y-17202674D01*
X9087444Y-17202674D02*
X9096967Y-17212198D01*
X9096967Y-17212198D02*
X9106491Y-17231246D01*
X9106491Y-17231246D02*
X9106491Y-17288389D01*
X9106491Y-17288389D02*
X9096967Y-17307436D01*
X9096967Y-17307436D02*
X9087444Y-17316960D01*
X9087444Y-17316960D02*
X9068396Y-17326484D01*
X9068396Y-17326484D02*
X9030301Y-17326484D01*
X9030301Y-17326484D02*
X9011253Y-17316960D01*
X9192205Y-17307436D02*
X9201729Y-17316960D01*
X9201729Y-17316960D02*
X9192205Y-17326484D01*
X9192205Y-17326484D02*
X9182682Y-17316960D01*
X9182682Y-17316960D02*
X9192205Y-17307436D01*
X9192205Y-17307436D02*
X9192205Y-17326484D01*
X9192205Y-17202674D02*
X9201729Y-17212198D01*
X9201729Y-17212198D02*
X9192205Y-17221722D01*
X9192205Y-17221722D02*
X9182682Y-17212198D01*
X9182682Y-17212198D02*
X9192205Y-17202674D01*
X9192205Y-17202674D02*
X9192205Y-17221722D01*
D12*
X7530000Y-17640000D02*
X7560000Y-17670000D01*
X7560000Y-17640000D02*
X7530000Y-17670000D01*
D11*
X7858872Y-17546484D02*
X7877920Y-17546484D01*
X7877920Y-17546484D02*
X7896967Y-17556008D01*
X7896967Y-17556008D02*
X7906491Y-17565531D01*
X7906491Y-17565531D02*
X7916015Y-17584579D01*
X7916015Y-17584579D02*
X7925539Y-17622674D01*
X7925539Y-17622674D02*
X7925539Y-17670293D01*
X7925539Y-17670293D02*
X7916015Y-17708389D01*
X7916015Y-17708389D02*
X7906491Y-17727436D01*
X7906491Y-17727436D02*
X7896967Y-17736960D01*
X7896967Y-17736960D02*
X7877920Y-17746484D01*
X7877920Y-17746484D02*
X7858872Y-17746484D01*
X7858872Y-17746484D02*
X7839824Y-17736960D01*
X7839824Y-17736960D02*
X7830301Y-17727436D01*
X7830301Y-17727436D02*
X7820777Y-17708389D01*
X7820777Y-17708389D02*
X7811253Y-17670293D01*
X7811253Y-17670293D02*
X7811253Y-17622674D01*
X7811253Y-17622674D02*
X7820777Y-17584579D01*
X7820777Y-17584579D02*
X7830301Y-17565531D01*
X7830301Y-17565531D02*
X7839824Y-17556008D01*
X7839824Y-17556008D02*
X7858872Y-17546484D01*
X8011253Y-17727436D02*
X8020777Y-17736960D01*
X8020777Y-17736960D02*
X8011253Y-17746484D01*
X8011253Y-17746484D02*
X8001729Y-17736960D01*
X8001729Y-17736960D02*
X8011253Y-17727436D01*
X8011253Y-17727436D02*
X8011253Y-17746484D01*
X8087443Y-17546484D02*
X8211253Y-17546484D01*
X8211253Y-17546484D02*
X8144586Y-17622674D01*
X8144586Y-17622674D02*
X8173158Y-17622674D01*
X8173158Y-17622674D02*
X8192205Y-17632198D01*
X8192205Y-17632198D02*
X8201729Y-17641722D01*
X8201729Y-17641722D02*
X8211253Y-17660770D01*
X8211253Y-17660770D02*
X8211253Y-17708389D01*
X8211253Y-17708389D02*
X8201729Y-17727436D01*
X8201729Y-17727436D02*
X8192205Y-17736960D01*
X8192205Y-17736960D02*
X8173158Y-17746484D01*
X8173158Y-17746484D02*
X8116015Y-17746484D01*
X8116015Y-17746484D02*
X8096967Y-17736960D01*
X8096967Y-17736960D02*
X8087443Y-17727436D01*
X8335062Y-17546484D02*
X8354110Y-17546484D01*
X8354110Y-17546484D02*
X8373158Y-17556008D01*
X8373158Y-17556008D02*
X8382682Y-17565531D01*
X8382682Y-17565531D02*
X8392205Y-17584579D01*
X8392205Y-17584579D02*
X8401729Y-17622674D01*
X8401729Y-17622674D02*
X8401729Y-17670293D01*
X8401729Y-17670293D02*
X8392205Y-17708389D01*
X8392205Y-17708389D02*
X8382682Y-17727436D01*
X8382682Y-17727436D02*
X8373158Y-17736960D01*
X8373158Y-17736960D02*
X8354110Y-17746484D01*
X8354110Y-17746484D02*
X8335062Y-17746484D01*
X8335062Y-17746484D02*
X8316015Y-17736960D01*
X8316015Y-17736960D02*
X8306491Y-17727436D01*
X8306491Y-17727436D02*
X8296967Y-17708389D01*
X8296967Y-17708389D02*
X8287443Y-17670293D01*
X8287443Y-17670293D02*
X8287443Y-17622674D01*
X8287443Y-17622674D02*
X8296967Y-17584579D01*
X8296967Y-17584579D02*
X8306491Y-17565531D01*
X8306491Y-17565531D02*
X8316015Y-17556008D01*
X8316015Y-17556008D02*
X8335062Y-17546484D01*
X8525539Y-17546484D02*
X8544586Y-17546484D01*
X8544586Y-17546484D02*
X8563634Y-17556008D01*
X8563634Y-17556008D02*
X8573158Y-17565531D01*
X8573158Y-17565531D02*
X8582682Y-17584579D01*
X8582682Y-17584579D02*
X8592205Y-17622674D01*
X8592205Y-17622674D02*
X8592205Y-17670293D01*
X8592205Y-17670293D02*
X8582682Y-17708389D01*
X8582682Y-17708389D02*
X8573158Y-17727436D01*
X8573158Y-17727436D02*
X8563634Y-17736960D01*
X8563634Y-17736960D02*
X8544586Y-17746484D01*
X8544586Y-17746484D02*
X8525539Y-17746484D01*
X8525539Y-17746484D02*
X8506491Y-17736960D01*
X8506491Y-17736960D02*
X8496967Y-17727436D01*
X8496967Y-17727436D02*
X8487444Y-17708389D01*
X8487444Y-17708389D02*
X8477920Y-17670293D01*
X8477920Y-17670293D02*
X8477920Y-17622674D01*
X8477920Y-17622674D02*
X8487444Y-17584579D01*
X8487444Y-17584579D02*
X8496967Y-17565531D01*
X8496967Y-17565531D02*
X8506491Y-17556008D01*
X8506491Y-17556008D02*
X8525539Y-17546484D01*
X8677920Y-17746484D02*
X8677920Y-17613150D01*
X8677920Y-17632198D02*
X8687444Y-17622674D01*
X8687444Y-17622674D02*
X8706491Y-17613150D01*
X8706491Y-17613150D02*
X8735063Y-17613150D01*
X8735063Y-17613150D02*
X8754110Y-17622674D01*
X8754110Y-17622674D02*
X8763634Y-17641722D01*
X8763634Y-17641722D02*
X8763634Y-17746484D01*
X8763634Y-17641722D02*
X8773158Y-17622674D01*
X8773158Y-17622674D02*
X8792205Y-17613150D01*
X8792205Y-17613150D02*
X8820777Y-17613150D01*
X8820777Y-17613150D02*
X8839825Y-17622674D01*
X8839825Y-17622674D02*
X8849348Y-17641722D01*
X8849348Y-17641722D02*
X8849348Y-17746484D01*
X8944586Y-17746484D02*
X8944586Y-17613150D01*
X8944586Y-17632198D02*
X8954110Y-17622674D01*
X8954110Y-17622674D02*
X8973158Y-17613150D01*
X8973158Y-17613150D02*
X9001729Y-17613150D01*
X9001729Y-17613150D02*
X9020777Y-17622674D01*
X9020777Y-17622674D02*
X9030301Y-17641722D01*
X9030301Y-17641722D02*
X9030301Y-17746484D01*
X9030301Y-17641722D02*
X9039825Y-17622674D01*
X9039825Y-17622674D02*
X9058872Y-17613150D01*
X9058872Y-17613150D02*
X9087444Y-17613150D01*
X9087444Y-17613150D02*
X9106491Y-17622674D01*
X9106491Y-17622674D02*
X9116015Y-17641722D01*
X9116015Y-17641722D02*
X9116015Y-17746484D01*
X9506491Y-17536960D02*
X9335063Y-17794103D01*
X9763634Y-17546484D02*
X9782682Y-17546484D01*
X9782682Y-17546484D02*
X9801729Y-17556008D01*
X9801729Y-17556008D02*
X9811253Y-17565531D01*
X9811253Y-17565531D02*
X9820777Y-17584579D01*
X9820777Y-17584579D02*
X9830301Y-17622674D01*
X9830301Y-17622674D02*
X9830301Y-17670293D01*
X9830301Y-17670293D02*
X9820777Y-17708389D01*
X9820777Y-17708389D02*
X9811253Y-17727436D01*
X9811253Y-17727436D02*
X9801729Y-17736960D01*
X9801729Y-17736960D02*
X9782682Y-17746484D01*
X9782682Y-17746484D02*
X9763634Y-17746484D01*
X9763634Y-17746484D02*
X9744587Y-17736960D01*
X9744587Y-17736960D02*
X9735063Y-17727436D01*
X9735063Y-17727436D02*
X9725539Y-17708389D01*
X9725539Y-17708389D02*
X9716015Y-17670293D01*
X9716015Y-17670293D02*
X9716015Y-17622674D01*
X9716015Y-17622674D02*
X9725539Y-17584579D01*
X9725539Y-17584579D02*
X9735063Y-17565531D01*
X9735063Y-17565531D02*
X9744587Y-17556008D01*
X9744587Y-17556008D02*
X9763634Y-17546484D01*
X9916015Y-17727436D02*
X9925539Y-17736960D01*
X9925539Y-17736960D02*
X9916015Y-17746484D01*
X9916015Y-17746484D02*
X9906491Y-17736960D01*
X9906491Y-17736960D02*
X9916015Y-17727436D01*
X9916015Y-17727436D02*
X9916015Y-17746484D01*
X10049348Y-17546484D02*
X10068396Y-17546484D01*
X10068396Y-17546484D02*
X10087444Y-17556008D01*
X10087444Y-17556008D02*
X10096968Y-17565531D01*
X10096968Y-17565531D02*
X10106491Y-17584579D01*
X10106491Y-17584579D02*
X10116015Y-17622674D01*
X10116015Y-17622674D02*
X10116015Y-17670293D01*
X10116015Y-17670293D02*
X10106491Y-17708389D01*
X10106491Y-17708389D02*
X10096968Y-17727436D01*
X10096968Y-17727436D02*
X10087444Y-17736960D01*
X10087444Y-17736960D02*
X10068396Y-17746484D01*
X10068396Y-17746484D02*
X10049348Y-17746484D01*
X10049348Y-17746484D02*
X10030301Y-17736960D01*
X10030301Y-17736960D02*
X10020777Y-17727436D01*
X10020777Y-17727436D02*
X10011253Y-17708389D01*
X10011253Y-17708389D02*
X10001729Y-17670293D01*
X10001729Y-17670293D02*
X10001729Y-17622674D01*
X10001729Y-17622674D02*
X10011253Y-17584579D01*
X10011253Y-17584579D02*
X10020777Y-17565531D01*
X10020777Y-17565531D02*
X10030301Y-17556008D01*
X10030301Y-17556008D02*
X10049348Y-17546484D01*
X10306491Y-17746484D02*
X10192206Y-17746484D01*
X10249348Y-17746484D02*
X10249348Y-17546484D01*
X10249348Y-17546484D02*
X10230301Y-17575055D01*
X10230301Y-17575055D02*
X10211253Y-17594103D01*
X10211253Y-17594103D02*
X10192206Y-17603627D01*
X10496968Y-17746484D02*
X10382682Y-17746484D01*
X10439825Y-17746484D02*
X10439825Y-17546484D01*
X10439825Y-17546484D02*
X10420777Y-17575055D01*
X10420777Y-17575055D02*
X10401729Y-17594103D01*
X10401729Y-17594103D02*
X10382682Y-17603627D01*
X10611253Y-17632198D02*
X10592206Y-17622674D01*
X10592206Y-17622674D02*
X10582682Y-17613150D01*
X10582682Y-17613150D02*
X10573158Y-17594103D01*
X10573158Y-17594103D02*
X10573158Y-17584579D01*
X10573158Y-17584579D02*
X10582682Y-17565531D01*
X10582682Y-17565531D02*
X10592206Y-17556008D01*
X10592206Y-17556008D02*
X10611253Y-17546484D01*
X10611253Y-17546484D02*
X10649349Y-17546484D01*
X10649349Y-17546484D02*
X10668396Y-17556008D01*
X10668396Y-17556008D02*
X10677920Y-17565531D01*
X10677920Y-17565531D02*
X10687444Y-17584579D01*
X10687444Y-17584579D02*
X10687444Y-17594103D01*
X10687444Y-17594103D02*
X10677920Y-17613150D01*
X10677920Y-17613150D02*
X10668396Y-17622674D01*
X10668396Y-17622674D02*
X10649349Y-17632198D01*
X10649349Y-17632198D02*
X10611253Y-17632198D01*
X10611253Y-17632198D02*
X10592206Y-17641722D01*
X10592206Y-17641722D02*
X10582682Y-17651246D01*
X10582682Y-17651246D02*
X10573158Y-17670293D01*
X10573158Y-17670293D02*
X10573158Y-17708389D01*
X10573158Y-17708389D02*
X10582682Y-17727436D01*
X10582682Y-17727436D02*
X10592206Y-17736960D01*
X10592206Y-17736960D02*
X10611253Y-17746484D01*
X10611253Y-17746484D02*
X10649349Y-17746484D01*
X10649349Y-17746484D02*
X10668396Y-17736960D01*
X10668396Y-17736960D02*
X10677920Y-17727436D01*
X10677920Y-17727436D02*
X10687444Y-17708389D01*
X10687444Y-17708389D02*
X10687444Y-17670293D01*
X10687444Y-17670293D02*
X10677920Y-17651246D01*
X10677920Y-17651246D02*
X10668396Y-17641722D01*
X10668396Y-17641722D02*
X10649349Y-17632198D01*
X10763634Y-17546484D02*
X10763634Y-17584579D01*
X10839825Y-17546484D02*
X10839825Y-17584579D01*
X11135063Y-17822674D02*
X11125539Y-17813150D01*
X11125539Y-17813150D02*
X11106491Y-17784579D01*
X11106491Y-17784579D02*
X11096968Y-17765531D01*
X11096968Y-17765531D02*
X11087444Y-17736960D01*
X11087444Y-17736960D02*
X11077920Y-17689341D01*
X11077920Y-17689341D02*
X11077920Y-17651246D01*
X11077920Y-17651246D02*
X11087444Y-17603627D01*
X11087444Y-17603627D02*
X11096968Y-17575055D01*
X11096968Y-17575055D02*
X11106491Y-17556008D01*
X11106491Y-17556008D02*
X11125539Y-17527436D01*
X11125539Y-17527436D02*
X11135063Y-17517912D01*
X11296968Y-17613150D02*
X11296968Y-17746484D01*
X11249348Y-17536960D02*
X11201729Y-17679817D01*
X11201729Y-17679817D02*
X11325539Y-17679817D01*
X11554110Y-17746484D02*
X11554110Y-17546484D01*
X11639825Y-17746484D02*
X11639825Y-17641722D01*
X11639825Y-17641722D02*
X11630301Y-17622674D01*
X11630301Y-17622674D02*
X11611253Y-17613150D01*
X11611253Y-17613150D02*
X11582682Y-17613150D01*
X11582682Y-17613150D02*
X11563634Y-17622674D01*
X11563634Y-17622674D02*
X11554110Y-17632198D01*
X11763634Y-17746484D02*
X11744587Y-17736960D01*
X11744587Y-17736960D02*
X11735063Y-17727436D01*
X11735063Y-17727436D02*
X11725539Y-17708389D01*
X11725539Y-17708389D02*
X11725539Y-17651246D01*
X11725539Y-17651246D02*
X11735063Y-17632198D01*
X11735063Y-17632198D02*
X11744587Y-17622674D01*
X11744587Y-17622674D02*
X11763634Y-17613150D01*
X11763634Y-17613150D02*
X11792206Y-17613150D01*
X11792206Y-17613150D02*
X11811253Y-17622674D01*
X11811253Y-17622674D02*
X11820777Y-17632198D01*
X11820777Y-17632198D02*
X11830301Y-17651246D01*
X11830301Y-17651246D02*
X11830301Y-17708389D01*
X11830301Y-17708389D02*
X11820777Y-17727436D01*
X11820777Y-17727436D02*
X11811253Y-17736960D01*
X11811253Y-17736960D02*
X11792206Y-17746484D01*
X11792206Y-17746484D02*
X11763634Y-17746484D01*
X11944587Y-17746484D02*
X11925539Y-17736960D01*
X11925539Y-17736960D02*
X11916015Y-17717912D01*
X11916015Y-17717912D02*
X11916015Y-17546484D01*
X12096968Y-17736960D02*
X12077920Y-17746484D01*
X12077920Y-17746484D02*
X12039825Y-17746484D01*
X12039825Y-17746484D02*
X12020777Y-17736960D01*
X12020777Y-17736960D02*
X12011253Y-17717912D01*
X12011253Y-17717912D02*
X12011253Y-17641722D01*
X12011253Y-17641722D02*
X12020777Y-17622674D01*
X12020777Y-17622674D02*
X12039825Y-17613150D01*
X12039825Y-17613150D02*
X12077920Y-17613150D01*
X12077920Y-17613150D02*
X12096968Y-17622674D01*
X12096968Y-17622674D02*
X12106491Y-17641722D01*
X12106491Y-17641722D02*
X12106491Y-17660770D01*
X12106491Y-17660770D02*
X12011253Y-17679817D01*
X12182682Y-17736960D02*
X12201730Y-17746484D01*
X12201730Y-17746484D02*
X12239825Y-17746484D01*
X12239825Y-17746484D02*
X12258872Y-17736960D01*
X12258872Y-17736960D02*
X12268396Y-17717912D01*
X12268396Y-17717912D02*
X12268396Y-17708389D01*
X12268396Y-17708389D02*
X12258872Y-17689341D01*
X12258872Y-17689341D02*
X12239825Y-17679817D01*
X12239825Y-17679817D02*
X12211253Y-17679817D01*
X12211253Y-17679817D02*
X12192206Y-17670293D01*
X12192206Y-17670293D02*
X12182682Y-17651246D01*
X12182682Y-17651246D02*
X12182682Y-17641722D01*
X12182682Y-17641722D02*
X12192206Y-17622674D01*
X12192206Y-17622674D02*
X12211253Y-17613150D01*
X12211253Y-17613150D02*
X12239825Y-17613150D01*
X12239825Y-17613150D02*
X12258872Y-17622674D01*
X12335063Y-17822674D02*
X12344587Y-17813150D01*
X12344587Y-17813150D02*
X12363634Y-17784579D01*
X12363634Y-17784579D02*
X12373158Y-17765531D01*
X12373158Y-17765531D02*
X12382682Y-17736960D01*
X12382682Y-17736960D02*
X12392206Y-17689341D01*
X12392206Y-17689341D02*
X12392206Y-17651246D01*
X12392206Y-17651246D02*
X12382682Y-17603627D01*
X12382682Y-17603627D02*
X12373158Y-17575055D01*
X12373158Y-17575055D02*
X12363634Y-17556008D01*
X12363634Y-17556008D02*
X12344587Y-17527436D01*
X12344587Y-17527436D02*
X12335063Y-17517912D01*
D12*
X7560000Y-17919000D02*
G75*
G02*
X7510000Y-17919000I-25000J0D01*
G01*
X7510000Y-17919000D02*
G75*
G02*
X7560000Y-17919000I25000J0D01*
G01*
D11*
X7858872Y-17810484D02*
X7877920Y-17810484D01*
X7877920Y-17810484D02*
X7896967Y-17820008D01*
X7896967Y-17820008D02*
X7906491Y-17829531D01*
X7906491Y-17829531D02*
X7916015Y-17848579D01*
X7916015Y-17848579D02*
X7925539Y-17886674D01*
X7925539Y-17886674D02*
X7925539Y-17934293D01*
X7925539Y-17934293D02*
X7916015Y-17972389D01*
X7916015Y-17972389D02*
X7906491Y-17991436D01*
X7906491Y-17991436D02*
X7896967Y-18000960D01*
X7896967Y-18000960D02*
X7877920Y-18010484D01*
X7877920Y-18010484D02*
X7858872Y-18010484D01*
X7858872Y-18010484D02*
X7839824Y-18000960D01*
X7839824Y-18000960D02*
X7830301Y-17991436D01*
X7830301Y-17991436D02*
X7820777Y-17972389D01*
X7820777Y-17972389D02*
X7811253Y-17934293D01*
X7811253Y-17934293D02*
X7811253Y-17886674D01*
X7811253Y-17886674D02*
X7820777Y-17848579D01*
X7820777Y-17848579D02*
X7830301Y-17829531D01*
X7830301Y-17829531D02*
X7839824Y-17820008D01*
X7839824Y-17820008D02*
X7858872Y-17810484D01*
X8011253Y-17991436D02*
X8020777Y-18000960D01*
X8020777Y-18000960D02*
X8011253Y-18010484D01*
X8011253Y-18010484D02*
X8001729Y-18000960D01*
X8001729Y-18000960D02*
X8011253Y-17991436D01*
X8011253Y-17991436D02*
X8011253Y-18010484D01*
X8201729Y-17810484D02*
X8106491Y-17810484D01*
X8106491Y-17810484D02*
X8096967Y-17905722D01*
X8096967Y-17905722D02*
X8106491Y-17896198D01*
X8106491Y-17896198D02*
X8125539Y-17886674D01*
X8125539Y-17886674D02*
X8173158Y-17886674D01*
X8173158Y-17886674D02*
X8192205Y-17896198D01*
X8192205Y-17896198D02*
X8201729Y-17905722D01*
X8201729Y-17905722D02*
X8211253Y-17924770D01*
X8211253Y-17924770D02*
X8211253Y-17972389D01*
X8211253Y-17972389D02*
X8201729Y-17991436D01*
X8201729Y-17991436D02*
X8192205Y-18000960D01*
X8192205Y-18000960D02*
X8173158Y-18010484D01*
X8173158Y-18010484D02*
X8125539Y-18010484D01*
X8125539Y-18010484D02*
X8106491Y-18000960D01*
X8106491Y-18000960D02*
X8096967Y-17991436D01*
X8335062Y-17810484D02*
X8354110Y-17810484D01*
X8354110Y-17810484D02*
X8373158Y-17820008D01*
X8373158Y-17820008D02*
X8382682Y-17829531D01*
X8382682Y-17829531D02*
X8392205Y-17848579D01*
X8392205Y-17848579D02*
X8401729Y-17886674D01*
X8401729Y-17886674D02*
X8401729Y-17934293D01*
X8401729Y-17934293D02*
X8392205Y-17972389D01*
X8392205Y-17972389D02*
X8382682Y-17991436D01*
X8382682Y-17991436D02*
X8373158Y-18000960D01*
X8373158Y-18000960D02*
X8354110Y-18010484D01*
X8354110Y-18010484D02*
X8335062Y-18010484D01*
X8335062Y-18010484D02*
X8316015Y-18000960D01*
X8316015Y-18000960D02*
X8306491Y-17991436D01*
X8306491Y-17991436D02*
X8296967Y-17972389D01*
X8296967Y-17972389D02*
X8287443Y-17934293D01*
X8287443Y-17934293D02*
X8287443Y-17886674D01*
X8287443Y-17886674D02*
X8296967Y-17848579D01*
X8296967Y-17848579D02*
X8306491Y-17829531D01*
X8306491Y-17829531D02*
X8316015Y-17820008D01*
X8316015Y-17820008D02*
X8335062Y-17810484D01*
X8525539Y-17810484D02*
X8544586Y-17810484D01*
X8544586Y-17810484D02*
X8563634Y-17820008D01*
X8563634Y-17820008D02*
X8573158Y-17829531D01*
X8573158Y-17829531D02*
X8582682Y-17848579D01*
X8582682Y-17848579D02*
X8592205Y-17886674D01*
X8592205Y-17886674D02*
X8592205Y-17934293D01*
X8592205Y-17934293D02*
X8582682Y-17972389D01*
X8582682Y-17972389D02*
X8573158Y-17991436D01*
X8573158Y-17991436D02*
X8563634Y-18000960D01*
X8563634Y-18000960D02*
X8544586Y-18010484D01*
X8544586Y-18010484D02*
X8525539Y-18010484D01*
X8525539Y-18010484D02*
X8506491Y-18000960D01*
X8506491Y-18000960D02*
X8496967Y-17991436D01*
X8496967Y-17991436D02*
X8487444Y-17972389D01*
X8487444Y-17972389D02*
X8477920Y-17934293D01*
X8477920Y-17934293D02*
X8477920Y-17886674D01*
X8477920Y-17886674D02*
X8487444Y-17848579D01*
X8487444Y-17848579D02*
X8496967Y-17829531D01*
X8496967Y-17829531D02*
X8506491Y-17820008D01*
X8506491Y-17820008D02*
X8525539Y-17810484D01*
X8677920Y-18010484D02*
X8677920Y-17877150D01*
X8677920Y-17896198D02*
X8687444Y-17886674D01*
X8687444Y-17886674D02*
X8706491Y-17877150D01*
X8706491Y-17877150D02*
X8735063Y-17877150D01*
X8735063Y-17877150D02*
X8754110Y-17886674D01*
X8754110Y-17886674D02*
X8763634Y-17905722D01*
X8763634Y-17905722D02*
X8763634Y-18010484D01*
X8763634Y-17905722D02*
X8773158Y-17886674D01*
X8773158Y-17886674D02*
X8792205Y-17877150D01*
X8792205Y-17877150D02*
X8820777Y-17877150D01*
X8820777Y-17877150D02*
X8839825Y-17886674D01*
X8839825Y-17886674D02*
X8849348Y-17905722D01*
X8849348Y-17905722D02*
X8849348Y-18010484D01*
X8944586Y-18010484D02*
X8944586Y-17877150D01*
X8944586Y-17896198D02*
X8954110Y-17886674D01*
X8954110Y-17886674D02*
X8973158Y-17877150D01*
X8973158Y-17877150D02*
X9001729Y-17877150D01*
X9001729Y-17877150D02*
X9020777Y-17886674D01*
X9020777Y-17886674D02*
X9030301Y-17905722D01*
X9030301Y-17905722D02*
X9030301Y-18010484D01*
X9030301Y-17905722D02*
X9039825Y-17886674D01*
X9039825Y-17886674D02*
X9058872Y-17877150D01*
X9058872Y-17877150D02*
X9087444Y-17877150D01*
X9087444Y-17877150D02*
X9106491Y-17886674D01*
X9106491Y-17886674D02*
X9116015Y-17905722D01*
X9116015Y-17905722D02*
X9116015Y-18010484D01*
X9506491Y-17800960D02*
X9335063Y-18058103D01*
X9763634Y-17810484D02*
X9782682Y-17810484D01*
X9782682Y-17810484D02*
X9801729Y-17820008D01*
X9801729Y-17820008D02*
X9811253Y-17829531D01*
X9811253Y-17829531D02*
X9820777Y-17848579D01*
X9820777Y-17848579D02*
X9830301Y-17886674D01*
X9830301Y-17886674D02*
X9830301Y-17934293D01*
X9830301Y-17934293D02*
X9820777Y-17972389D01*
X9820777Y-17972389D02*
X9811253Y-17991436D01*
X9811253Y-17991436D02*
X9801729Y-18000960D01*
X9801729Y-18000960D02*
X9782682Y-18010484D01*
X9782682Y-18010484D02*
X9763634Y-18010484D01*
X9763634Y-18010484D02*
X9744587Y-18000960D01*
X9744587Y-18000960D02*
X9735063Y-17991436D01*
X9735063Y-17991436D02*
X9725539Y-17972389D01*
X9725539Y-17972389D02*
X9716015Y-17934293D01*
X9716015Y-17934293D02*
X9716015Y-17886674D01*
X9716015Y-17886674D02*
X9725539Y-17848579D01*
X9725539Y-17848579D02*
X9735063Y-17829531D01*
X9735063Y-17829531D02*
X9744587Y-17820008D01*
X9744587Y-17820008D02*
X9763634Y-17810484D01*
X9916015Y-17991436D02*
X9925539Y-18000960D01*
X9925539Y-18000960D02*
X9916015Y-18010484D01*
X9916015Y-18010484D02*
X9906491Y-18000960D01*
X9906491Y-18000960D02*
X9916015Y-17991436D01*
X9916015Y-17991436D02*
X9916015Y-18010484D01*
X10049348Y-17810484D02*
X10068396Y-17810484D01*
X10068396Y-17810484D02*
X10087444Y-17820008D01*
X10087444Y-17820008D02*
X10096968Y-17829531D01*
X10096968Y-17829531D02*
X10106491Y-17848579D01*
X10106491Y-17848579D02*
X10116015Y-17886674D01*
X10116015Y-17886674D02*
X10116015Y-17934293D01*
X10116015Y-17934293D02*
X10106491Y-17972389D01*
X10106491Y-17972389D02*
X10096968Y-17991436D01*
X10096968Y-17991436D02*
X10087444Y-18000960D01*
X10087444Y-18000960D02*
X10068396Y-18010484D01*
X10068396Y-18010484D02*
X10049348Y-18010484D01*
X10049348Y-18010484D02*
X10030301Y-18000960D01*
X10030301Y-18000960D02*
X10020777Y-17991436D01*
X10020777Y-17991436D02*
X10011253Y-17972389D01*
X10011253Y-17972389D02*
X10001729Y-17934293D01*
X10001729Y-17934293D02*
X10001729Y-17886674D01*
X10001729Y-17886674D02*
X10011253Y-17848579D01*
X10011253Y-17848579D02*
X10020777Y-17829531D01*
X10020777Y-17829531D02*
X10030301Y-17820008D01*
X10030301Y-17820008D02*
X10049348Y-17810484D01*
X10306491Y-18010484D02*
X10192206Y-18010484D01*
X10249348Y-18010484D02*
X10249348Y-17810484D01*
X10249348Y-17810484D02*
X10230301Y-17839055D01*
X10230301Y-17839055D02*
X10211253Y-17858103D01*
X10211253Y-17858103D02*
X10192206Y-17867627D01*
X10401729Y-18010484D02*
X10439825Y-18010484D01*
X10439825Y-18010484D02*
X10458872Y-18000960D01*
X10458872Y-18000960D02*
X10468396Y-17991436D01*
X10468396Y-17991436D02*
X10487444Y-17962865D01*
X10487444Y-17962865D02*
X10496968Y-17924770D01*
X10496968Y-17924770D02*
X10496968Y-17848579D01*
X10496968Y-17848579D02*
X10487444Y-17829531D01*
X10487444Y-17829531D02*
X10477920Y-17820008D01*
X10477920Y-17820008D02*
X10458872Y-17810484D01*
X10458872Y-17810484D02*
X10420777Y-17810484D01*
X10420777Y-17810484D02*
X10401729Y-17820008D01*
X10401729Y-17820008D02*
X10392206Y-17829531D01*
X10392206Y-17829531D02*
X10382682Y-17848579D01*
X10382682Y-17848579D02*
X10382682Y-17896198D01*
X10382682Y-17896198D02*
X10392206Y-17915246D01*
X10392206Y-17915246D02*
X10401729Y-17924770D01*
X10401729Y-17924770D02*
X10420777Y-17934293D01*
X10420777Y-17934293D02*
X10458872Y-17934293D01*
X10458872Y-17934293D02*
X10477920Y-17924770D01*
X10477920Y-17924770D02*
X10487444Y-17915246D01*
X10487444Y-17915246D02*
X10496968Y-17896198D01*
X10563634Y-17810484D02*
X10696968Y-17810484D01*
X10696968Y-17810484D02*
X10611253Y-18010484D01*
X10763634Y-17810484D02*
X10763634Y-17848579D01*
X10839825Y-17810484D02*
X10839825Y-17848579D01*
X11135063Y-18086674D02*
X11125539Y-18077150D01*
X11125539Y-18077150D02*
X11106491Y-18048579D01*
X11106491Y-18048579D02*
X11096968Y-18029531D01*
X11096968Y-18029531D02*
X11087444Y-18000960D01*
X11087444Y-18000960D02*
X11077920Y-17953341D01*
X11077920Y-17953341D02*
X11077920Y-17915246D01*
X11077920Y-17915246D02*
X11087444Y-17867627D01*
X11087444Y-17867627D02*
X11096968Y-17839055D01*
X11096968Y-17839055D02*
X11106491Y-17820008D01*
X11106491Y-17820008D02*
X11125539Y-17791436D01*
X11125539Y-17791436D02*
X11135063Y-17781912D01*
X11316015Y-18010484D02*
X11201729Y-18010484D01*
X11258872Y-18010484D02*
X11258872Y-17810484D01*
X11258872Y-17810484D02*
X11239825Y-17839055D01*
X11239825Y-17839055D02*
X11220777Y-17858103D01*
X11220777Y-17858103D02*
X11201729Y-17867627D01*
X11554110Y-18010484D02*
X11554110Y-17810484D01*
X11639825Y-18010484D02*
X11639825Y-17905722D01*
X11639825Y-17905722D02*
X11630301Y-17886674D01*
X11630301Y-17886674D02*
X11611253Y-17877150D01*
X11611253Y-17877150D02*
X11582682Y-17877150D01*
X11582682Y-17877150D02*
X11563634Y-17886674D01*
X11563634Y-17886674D02*
X11554110Y-17896198D01*
X11763634Y-18010484D02*
X11744587Y-18000960D01*
X11744587Y-18000960D02*
X11735063Y-17991436D01*
X11735063Y-17991436D02*
X11725539Y-17972389D01*
X11725539Y-17972389D02*
X11725539Y-17915246D01*
X11725539Y-17915246D02*
X11735063Y-17896198D01*
X11735063Y-17896198D02*
X11744587Y-17886674D01*
X11744587Y-17886674D02*
X11763634Y-17877150D01*
X11763634Y-17877150D02*
X11792206Y-17877150D01*
X11792206Y-17877150D02*
X11811253Y-17886674D01*
X11811253Y-17886674D02*
X11820777Y-17896198D01*
X11820777Y-17896198D02*
X11830301Y-17915246D01*
X11830301Y-17915246D02*
X11830301Y-17972389D01*
X11830301Y-17972389D02*
X11820777Y-17991436D01*
X11820777Y-17991436D02*
X11811253Y-18000960D01*
X11811253Y-18000960D02*
X11792206Y-18010484D01*
X11792206Y-18010484D02*
X11763634Y-18010484D01*
X11944587Y-18010484D02*
X11925539Y-18000960D01*
X11925539Y-18000960D02*
X11916015Y-17981912D01*
X11916015Y-17981912D02*
X11916015Y-17810484D01*
X12096968Y-18000960D02*
X12077920Y-18010484D01*
X12077920Y-18010484D02*
X12039825Y-18010484D01*
X12039825Y-18010484D02*
X12020777Y-18000960D01*
X12020777Y-18000960D02*
X12011253Y-17981912D01*
X12011253Y-17981912D02*
X12011253Y-17905722D01*
X12011253Y-17905722D02*
X12020777Y-17886674D01*
X12020777Y-17886674D02*
X12039825Y-17877150D01*
X12039825Y-17877150D02*
X12077920Y-17877150D01*
X12077920Y-17877150D02*
X12096968Y-17886674D01*
X12096968Y-17886674D02*
X12106491Y-17905722D01*
X12106491Y-17905722D02*
X12106491Y-17924770D01*
X12106491Y-17924770D02*
X12011253Y-17943817D01*
X12173158Y-18086674D02*
X12182682Y-18077150D01*
X12182682Y-18077150D02*
X12201730Y-18048579D01*
X12201730Y-18048579D02*
X12211253Y-18029531D01*
X12211253Y-18029531D02*
X12220777Y-18000960D01*
X12220777Y-18000960D02*
X12230301Y-17953341D01*
X12230301Y-17953341D02*
X12230301Y-17915246D01*
X12230301Y-17915246D02*
X12220777Y-17867627D01*
X12220777Y-17867627D02*
X12211253Y-17839055D01*
X12211253Y-17839055D02*
X12201730Y-17820008D01*
X12201730Y-17820008D02*
X12182682Y-17791436D01*
X12182682Y-17791436D02*
X12173158Y-17781912D01*
D12*
X7520000Y-18143000D02*
X7520000Y-18223000D01*
X7480000Y-18183000D02*
X7560000Y-18183000D01*
D11*
X7858872Y-18074484D02*
X7877920Y-18074484D01*
X7877920Y-18074484D02*
X7896967Y-18084008D01*
X7896967Y-18084008D02*
X7906491Y-18093531D01*
X7906491Y-18093531D02*
X7916015Y-18112579D01*
X7916015Y-18112579D02*
X7925539Y-18150674D01*
X7925539Y-18150674D02*
X7925539Y-18198293D01*
X7925539Y-18198293D02*
X7916015Y-18236389D01*
X7916015Y-18236389D02*
X7906491Y-18255436D01*
X7906491Y-18255436D02*
X7896967Y-18264960D01*
X7896967Y-18264960D02*
X7877920Y-18274484D01*
X7877920Y-18274484D02*
X7858872Y-18274484D01*
X7858872Y-18274484D02*
X7839824Y-18264960D01*
X7839824Y-18264960D02*
X7830301Y-18255436D01*
X7830301Y-18255436D02*
X7820777Y-18236389D01*
X7820777Y-18236389D02*
X7811253Y-18198293D01*
X7811253Y-18198293D02*
X7811253Y-18150674D01*
X7811253Y-18150674D02*
X7820777Y-18112579D01*
X7820777Y-18112579D02*
X7830301Y-18093531D01*
X7830301Y-18093531D02*
X7839824Y-18084008D01*
X7839824Y-18084008D02*
X7858872Y-18074484D01*
X8011253Y-18255436D02*
X8020777Y-18264960D01*
X8020777Y-18264960D02*
X8011253Y-18274484D01*
X8011253Y-18274484D02*
X8001729Y-18264960D01*
X8001729Y-18264960D02*
X8011253Y-18255436D01*
X8011253Y-18255436D02*
X8011253Y-18274484D01*
X8135062Y-18160198D02*
X8116015Y-18150674D01*
X8116015Y-18150674D02*
X8106491Y-18141150D01*
X8106491Y-18141150D02*
X8096967Y-18122103D01*
X8096967Y-18122103D02*
X8096967Y-18112579D01*
X8096967Y-18112579D02*
X8106491Y-18093531D01*
X8106491Y-18093531D02*
X8116015Y-18084008D01*
X8116015Y-18084008D02*
X8135062Y-18074484D01*
X8135062Y-18074484D02*
X8173158Y-18074484D01*
X8173158Y-18074484D02*
X8192205Y-18084008D01*
X8192205Y-18084008D02*
X8201729Y-18093531D01*
X8201729Y-18093531D02*
X8211253Y-18112579D01*
X8211253Y-18112579D02*
X8211253Y-18122103D01*
X8211253Y-18122103D02*
X8201729Y-18141150D01*
X8201729Y-18141150D02*
X8192205Y-18150674D01*
X8192205Y-18150674D02*
X8173158Y-18160198D01*
X8173158Y-18160198D02*
X8135062Y-18160198D01*
X8135062Y-18160198D02*
X8116015Y-18169722D01*
X8116015Y-18169722D02*
X8106491Y-18179246D01*
X8106491Y-18179246D02*
X8096967Y-18198293D01*
X8096967Y-18198293D02*
X8096967Y-18236389D01*
X8096967Y-18236389D02*
X8106491Y-18255436D01*
X8106491Y-18255436D02*
X8116015Y-18264960D01*
X8116015Y-18264960D02*
X8135062Y-18274484D01*
X8135062Y-18274484D02*
X8173158Y-18274484D01*
X8173158Y-18274484D02*
X8192205Y-18264960D01*
X8192205Y-18264960D02*
X8201729Y-18255436D01*
X8201729Y-18255436D02*
X8211253Y-18236389D01*
X8211253Y-18236389D02*
X8211253Y-18198293D01*
X8211253Y-18198293D02*
X8201729Y-18179246D01*
X8201729Y-18179246D02*
X8192205Y-18169722D01*
X8192205Y-18169722D02*
X8173158Y-18160198D01*
X8335062Y-18074484D02*
X8354110Y-18074484D01*
X8354110Y-18074484D02*
X8373158Y-18084008D01*
X8373158Y-18084008D02*
X8382682Y-18093531D01*
X8382682Y-18093531D02*
X8392205Y-18112579D01*
X8392205Y-18112579D02*
X8401729Y-18150674D01*
X8401729Y-18150674D02*
X8401729Y-18198293D01*
X8401729Y-18198293D02*
X8392205Y-18236389D01*
X8392205Y-18236389D02*
X8382682Y-18255436D01*
X8382682Y-18255436D02*
X8373158Y-18264960D01*
X8373158Y-18264960D02*
X8354110Y-18274484D01*
X8354110Y-18274484D02*
X8335062Y-18274484D01*
X8335062Y-18274484D02*
X8316015Y-18264960D01*
X8316015Y-18264960D02*
X8306491Y-18255436D01*
X8306491Y-18255436D02*
X8296967Y-18236389D01*
X8296967Y-18236389D02*
X8287443Y-18198293D01*
X8287443Y-18198293D02*
X8287443Y-18150674D01*
X8287443Y-18150674D02*
X8296967Y-18112579D01*
X8296967Y-18112579D02*
X8306491Y-18093531D01*
X8306491Y-18093531D02*
X8316015Y-18084008D01*
X8316015Y-18084008D02*
X8335062Y-18074484D01*
X8525539Y-18074484D02*
X8544586Y-18074484D01*
X8544586Y-18074484D02*
X8563634Y-18084008D01*
X8563634Y-18084008D02*
X8573158Y-18093531D01*
X8573158Y-18093531D02*
X8582682Y-18112579D01*
X8582682Y-18112579D02*
X8592205Y-18150674D01*
X8592205Y-18150674D02*
X8592205Y-18198293D01*
X8592205Y-18198293D02*
X8582682Y-18236389D01*
X8582682Y-18236389D02*
X8573158Y-18255436D01*
X8573158Y-18255436D02*
X8563634Y-18264960D01*
X8563634Y-18264960D02*
X8544586Y-18274484D01*
X8544586Y-18274484D02*
X8525539Y-18274484D01*
X8525539Y-18274484D02*
X8506491Y-18264960D01*
X8506491Y-18264960D02*
X8496967Y-18255436D01*
X8496967Y-18255436D02*
X8487444Y-18236389D01*
X8487444Y-18236389D02*
X8477920Y-18198293D01*
X8477920Y-18198293D02*
X8477920Y-18150674D01*
X8477920Y-18150674D02*
X8487444Y-18112579D01*
X8487444Y-18112579D02*
X8496967Y-18093531D01*
X8496967Y-18093531D02*
X8506491Y-18084008D01*
X8506491Y-18084008D02*
X8525539Y-18074484D01*
X8677920Y-18274484D02*
X8677920Y-18141150D01*
X8677920Y-18160198D02*
X8687444Y-18150674D01*
X8687444Y-18150674D02*
X8706491Y-18141150D01*
X8706491Y-18141150D02*
X8735063Y-18141150D01*
X8735063Y-18141150D02*
X8754110Y-18150674D01*
X8754110Y-18150674D02*
X8763634Y-18169722D01*
X8763634Y-18169722D02*
X8763634Y-18274484D01*
X8763634Y-18169722D02*
X8773158Y-18150674D01*
X8773158Y-18150674D02*
X8792205Y-18141150D01*
X8792205Y-18141150D02*
X8820777Y-18141150D01*
X8820777Y-18141150D02*
X8839825Y-18150674D01*
X8839825Y-18150674D02*
X8849348Y-18169722D01*
X8849348Y-18169722D02*
X8849348Y-18274484D01*
X8944586Y-18274484D02*
X8944586Y-18141150D01*
X8944586Y-18160198D02*
X8954110Y-18150674D01*
X8954110Y-18150674D02*
X8973158Y-18141150D01*
X8973158Y-18141150D02*
X9001729Y-18141150D01*
X9001729Y-18141150D02*
X9020777Y-18150674D01*
X9020777Y-18150674D02*
X9030301Y-18169722D01*
X9030301Y-18169722D02*
X9030301Y-18274484D01*
X9030301Y-18169722D02*
X9039825Y-18150674D01*
X9039825Y-18150674D02*
X9058872Y-18141150D01*
X9058872Y-18141150D02*
X9087444Y-18141150D01*
X9087444Y-18141150D02*
X9106491Y-18150674D01*
X9106491Y-18150674D02*
X9116015Y-18169722D01*
X9116015Y-18169722D02*
X9116015Y-18274484D01*
X9506491Y-18064960D02*
X9335063Y-18322103D01*
X9763634Y-18074484D02*
X9782682Y-18074484D01*
X9782682Y-18074484D02*
X9801729Y-18084008D01*
X9801729Y-18084008D02*
X9811253Y-18093531D01*
X9811253Y-18093531D02*
X9820777Y-18112579D01*
X9820777Y-18112579D02*
X9830301Y-18150674D01*
X9830301Y-18150674D02*
X9830301Y-18198293D01*
X9830301Y-18198293D02*
X9820777Y-18236389D01*
X9820777Y-18236389D02*
X9811253Y-18255436D01*
X9811253Y-18255436D02*
X9801729Y-18264960D01*
X9801729Y-18264960D02*
X9782682Y-18274484D01*
X9782682Y-18274484D02*
X9763634Y-18274484D01*
X9763634Y-18274484D02*
X9744587Y-18264960D01*
X9744587Y-18264960D02*
X9735063Y-18255436D01*
X9735063Y-18255436D02*
X9725539Y-18236389D01*
X9725539Y-18236389D02*
X9716015Y-18198293D01*
X9716015Y-18198293D02*
X9716015Y-18150674D01*
X9716015Y-18150674D02*
X9725539Y-18112579D01*
X9725539Y-18112579D02*
X9735063Y-18093531D01*
X9735063Y-18093531D02*
X9744587Y-18084008D01*
X9744587Y-18084008D02*
X9763634Y-18074484D01*
X9916015Y-18255436D02*
X9925539Y-18264960D01*
X9925539Y-18264960D02*
X9916015Y-18274484D01*
X9916015Y-18274484D02*
X9906491Y-18264960D01*
X9906491Y-18264960D02*
X9916015Y-18255436D01*
X9916015Y-18255436D02*
X9916015Y-18274484D01*
X10049348Y-18074484D02*
X10068396Y-18074484D01*
X10068396Y-18074484D02*
X10087444Y-18084008D01*
X10087444Y-18084008D02*
X10096968Y-18093531D01*
X10096968Y-18093531D02*
X10106491Y-18112579D01*
X10106491Y-18112579D02*
X10116015Y-18150674D01*
X10116015Y-18150674D02*
X10116015Y-18198293D01*
X10116015Y-18198293D02*
X10106491Y-18236389D01*
X10106491Y-18236389D02*
X10096968Y-18255436D01*
X10096968Y-18255436D02*
X10087444Y-18264960D01*
X10087444Y-18264960D02*
X10068396Y-18274484D01*
X10068396Y-18274484D02*
X10049348Y-18274484D01*
X10049348Y-18274484D02*
X10030301Y-18264960D01*
X10030301Y-18264960D02*
X10020777Y-18255436D01*
X10020777Y-18255436D02*
X10011253Y-18236389D01*
X10011253Y-18236389D02*
X10001729Y-18198293D01*
X10001729Y-18198293D02*
X10001729Y-18150674D01*
X10001729Y-18150674D02*
X10011253Y-18112579D01*
X10011253Y-18112579D02*
X10020777Y-18093531D01*
X10020777Y-18093531D02*
X10030301Y-18084008D01*
X10030301Y-18084008D02*
X10049348Y-18074484D01*
X10182682Y-18074484D02*
X10306491Y-18074484D01*
X10306491Y-18074484D02*
X10239825Y-18150674D01*
X10239825Y-18150674D02*
X10268396Y-18150674D01*
X10268396Y-18150674D02*
X10287444Y-18160198D01*
X10287444Y-18160198D02*
X10296968Y-18169722D01*
X10296968Y-18169722D02*
X10306491Y-18188770D01*
X10306491Y-18188770D02*
X10306491Y-18236389D01*
X10306491Y-18236389D02*
X10296968Y-18255436D01*
X10296968Y-18255436D02*
X10287444Y-18264960D01*
X10287444Y-18264960D02*
X10268396Y-18274484D01*
X10268396Y-18274484D02*
X10211253Y-18274484D01*
X10211253Y-18274484D02*
X10192206Y-18264960D01*
X10192206Y-18264960D02*
X10182682Y-18255436D01*
X10496968Y-18274484D02*
X10382682Y-18274484D01*
X10439825Y-18274484D02*
X10439825Y-18074484D01*
X10439825Y-18074484D02*
X10420777Y-18103055D01*
X10420777Y-18103055D02*
X10401729Y-18122103D01*
X10401729Y-18122103D02*
X10382682Y-18131627D01*
X10677920Y-18074484D02*
X10582682Y-18074484D01*
X10582682Y-18074484D02*
X10573158Y-18169722D01*
X10573158Y-18169722D02*
X10582682Y-18160198D01*
X10582682Y-18160198D02*
X10601729Y-18150674D01*
X10601729Y-18150674D02*
X10649349Y-18150674D01*
X10649349Y-18150674D02*
X10668396Y-18160198D01*
X10668396Y-18160198D02*
X10677920Y-18169722D01*
X10677920Y-18169722D02*
X10687444Y-18188770D01*
X10687444Y-18188770D02*
X10687444Y-18236389D01*
X10687444Y-18236389D02*
X10677920Y-18255436D01*
X10677920Y-18255436D02*
X10668396Y-18264960D01*
X10668396Y-18264960D02*
X10649349Y-18274484D01*
X10649349Y-18274484D02*
X10601729Y-18274484D01*
X10601729Y-18274484D02*
X10582682Y-18264960D01*
X10582682Y-18264960D02*
X10573158Y-18255436D01*
X10763634Y-18074484D02*
X10763634Y-18112579D01*
X10839825Y-18074484D02*
X10839825Y-18112579D01*
X11135063Y-18350674D02*
X11125539Y-18341150D01*
X11125539Y-18341150D02*
X11106491Y-18312579D01*
X11106491Y-18312579D02*
X11096968Y-18293531D01*
X11096968Y-18293531D02*
X11087444Y-18264960D01*
X11087444Y-18264960D02*
X11077920Y-18217341D01*
X11077920Y-18217341D02*
X11077920Y-18179246D01*
X11077920Y-18179246D02*
X11087444Y-18131627D01*
X11087444Y-18131627D02*
X11096968Y-18103055D01*
X11096968Y-18103055D02*
X11106491Y-18084008D01*
X11106491Y-18084008D02*
X11125539Y-18055436D01*
X11125539Y-18055436D02*
X11135063Y-18045912D01*
X11192206Y-18074484D02*
X11316015Y-18074484D01*
X11316015Y-18074484D02*
X11249348Y-18150674D01*
X11249348Y-18150674D02*
X11277920Y-18150674D01*
X11277920Y-18150674D02*
X11296968Y-18160198D01*
X11296968Y-18160198D02*
X11306491Y-18169722D01*
X11306491Y-18169722D02*
X11316015Y-18188770D01*
X11316015Y-18188770D02*
X11316015Y-18236389D01*
X11316015Y-18236389D02*
X11306491Y-18255436D01*
X11306491Y-18255436D02*
X11296968Y-18264960D01*
X11296968Y-18264960D02*
X11277920Y-18274484D01*
X11277920Y-18274484D02*
X11220777Y-18274484D01*
X11220777Y-18274484D02*
X11201729Y-18264960D01*
X11201729Y-18264960D02*
X11192206Y-18255436D01*
X11430301Y-18160198D02*
X11411253Y-18150674D01*
X11411253Y-18150674D02*
X11401729Y-18141150D01*
X11401729Y-18141150D02*
X11392206Y-18122103D01*
X11392206Y-18122103D02*
X11392206Y-18112579D01*
X11392206Y-18112579D02*
X11401729Y-18093531D01*
X11401729Y-18093531D02*
X11411253Y-18084008D01*
X11411253Y-18084008D02*
X11430301Y-18074484D01*
X11430301Y-18074484D02*
X11468396Y-18074484D01*
X11468396Y-18074484D02*
X11487444Y-18084008D01*
X11487444Y-18084008D02*
X11496968Y-18093531D01*
X11496968Y-18093531D02*
X11506491Y-18112579D01*
X11506491Y-18112579D02*
X11506491Y-18122103D01*
X11506491Y-18122103D02*
X11496968Y-18141150D01*
X11496968Y-18141150D02*
X11487444Y-18150674D01*
X11487444Y-18150674D02*
X11468396Y-18160198D01*
X11468396Y-18160198D02*
X11430301Y-18160198D01*
X11430301Y-18160198D02*
X11411253Y-18169722D01*
X11411253Y-18169722D02*
X11401729Y-18179246D01*
X11401729Y-18179246D02*
X11392206Y-18198293D01*
X11392206Y-18198293D02*
X11392206Y-18236389D01*
X11392206Y-18236389D02*
X11401729Y-18255436D01*
X11401729Y-18255436D02*
X11411253Y-18264960D01*
X11411253Y-18264960D02*
X11430301Y-18274484D01*
X11430301Y-18274484D02*
X11468396Y-18274484D01*
X11468396Y-18274484D02*
X11487444Y-18264960D01*
X11487444Y-18264960D02*
X11496968Y-18255436D01*
X11496968Y-18255436D02*
X11506491Y-18236389D01*
X11506491Y-18236389D02*
X11506491Y-18198293D01*
X11506491Y-18198293D02*
X11496968Y-18179246D01*
X11496968Y-18179246D02*
X11487444Y-18169722D01*
X11487444Y-18169722D02*
X11468396Y-18160198D01*
X11744587Y-18274484D02*
X11744587Y-18074484D01*
X11830301Y-18274484D02*
X11830301Y-18169722D01*
X11830301Y-18169722D02*
X11820777Y-18150674D01*
X11820777Y-18150674D02*
X11801730Y-18141150D01*
X11801730Y-18141150D02*
X11773158Y-18141150D01*
X11773158Y-18141150D02*
X11754110Y-18150674D01*
X11754110Y-18150674D02*
X11744587Y-18160198D01*
X11954110Y-18274484D02*
X11935063Y-18264960D01*
X11935063Y-18264960D02*
X11925539Y-18255436D01*
X11925539Y-18255436D02*
X11916015Y-18236389D01*
X11916015Y-18236389D02*
X11916015Y-18179246D01*
X11916015Y-18179246D02*
X11925539Y-18160198D01*
X11925539Y-18160198D02*
X11935063Y-18150674D01*
X11935063Y-18150674D02*
X11954110Y-18141150D01*
X11954110Y-18141150D02*
X11982682Y-18141150D01*
X11982682Y-18141150D02*
X12001730Y-18150674D01*
X12001730Y-18150674D02*
X12011253Y-18160198D01*
X12011253Y-18160198D02*
X12020777Y-18179246D01*
X12020777Y-18179246D02*
X12020777Y-18236389D01*
X12020777Y-18236389D02*
X12011253Y-18255436D01*
X12011253Y-18255436D02*
X12001730Y-18264960D01*
X12001730Y-18264960D02*
X11982682Y-18274484D01*
X11982682Y-18274484D02*
X11954110Y-18274484D01*
X12135063Y-18274484D02*
X12116015Y-18264960D01*
X12116015Y-18264960D02*
X12106491Y-18245912D01*
X12106491Y-18245912D02*
X12106491Y-18074484D01*
X12287444Y-18264960D02*
X12268396Y-18274484D01*
X12268396Y-18274484D02*
X12230301Y-18274484D01*
X12230301Y-18274484D02*
X12211253Y-18264960D01*
X12211253Y-18264960D02*
X12201730Y-18245912D01*
X12201730Y-18245912D02*
X12201730Y-18169722D01*
X12201730Y-18169722D02*
X12211253Y-18150674D01*
X12211253Y-18150674D02*
X12230301Y-18141150D01*
X12230301Y-18141150D02*
X12268396Y-18141150D01*
X12268396Y-18141150D02*
X12287444Y-18150674D01*
X12287444Y-18150674D02*
X12296968Y-18169722D01*
X12296968Y-18169722D02*
X12296968Y-18188770D01*
X12296968Y-18188770D02*
X12201730Y-18207817D01*
X12373158Y-18264960D02*
X12392206Y-18274484D01*
X12392206Y-18274484D02*
X12430301Y-18274484D01*
X12430301Y-18274484D02*
X12449349Y-18264960D01*
X12449349Y-18264960D02*
X12458872Y-18245912D01*
X12458872Y-18245912D02*
X12458872Y-18236389D01*
X12458872Y-18236389D02*
X12449349Y-18217341D01*
X12449349Y-18217341D02*
X12430301Y-18207817D01*
X12430301Y-18207817D02*
X12401730Y-18207817D01*
X12401730Y-18207817D02*
X12382682Y-18198293D01*
X12382682Y-18198293D02*
X12373158Y-18179246D01*
X12373158Y-18179246D02*
X12373158Y-18169722D01*
X12373158Y-18169722D02*
X12382682Y-18150674D01*
X12382682Y-18150674D02*
X12401730Y-18141150D01*
X12401730Y-18141150D02*
X12430301Y-18141150D01*
X12430301Y-18141150D02*
X12449349Y-18150674D01*
X12525539Y-18350674D02*
X12535063Y-18341150D01*
X12535063Y-18341150D02*
X12554111Y-18312579D01*
X12554111Y-18312579D02*
X12563634Y-18293531D01*
X12563634Y-18293531D02*
X12573158Y-18264960D01*
X12573158Y-18264960D02*
X12582682Y-18217341D01*
X12582682Y-18217341D02*
X12582682Y-18179246D01*
X12582682Y-18179246D02*
X12573158Y-18131627D01*
X12573158Y-18131627D02*
X12563634Y-18103055D01*
X12563634Y-18103055D02*
X12554111Y-18084008D01*
X12554111Y-18084008D02*
X12535063Y-18055436D01*
X12535063Y-18055436D02*
X12525539Y-18045912D01*
D12*
X7545356Y-18482356D02*
X7545356Y-18411644D01*
X7474644Y-18411644D01*
X7474644Y-18482356D01*
X7545356Y-18482356D01*
D11*
X7925539Y-18538484D02*
X7811253Y-18538484D01*
X7868396Y-18538484D02*
X7868396Y-18338484D01*
X7868396Y-18338484D02*
X7849348Y-18367055D01*
X7849348Y-18367055D02*
X7830301Y-18386103D01*
X7830301Y-18386103D02*
X7811253Y-18395627D01*
X8011253Y-18519436D02*
X8020777Y-18528960D01*
X8020777Y-18528960D02*
X8011253Y-18538484D01*
X8011253Y-18538484D02*
X8001729Y-18528960D01*
X8001729Y-18528960D02*
X8011253Y-18519436D01*
X8011253Y-18519436D02*
X8011253Y-18538484D01*
X8144586Y-18338484D02*
X8163634Y-18338484D01*
X8163634Y-18338484D02*
X8182682Y-18348008D01*
X8182682Y-18348008D02*
X8192205Y-18357531D01*
X8192205Y-18357531D02*
X8201729Y-18376579D01*
X8201729Y-18376579D02*
X8211253Y-18414674D01*
X8211253Y-18414674D02*
X8211253Y-18462293D01*
X8211253Y-18462293D02*
X8201729Y-18500389D01*
X8201729Y-18500389D02*
X8192205Y-18519436D01*
X8192205Y-18519436D02*
X8182682Y-18528960D01*
X8182682Y-18528960D02*
X8163634Y-18538484D01*
X8163634Y-18538484D02*
X8144586Y-18538484D01*
X8144586Y-18538484D02*
X8125539Y-18528960D01*
X8125539Y-18528960D02*
X8116015Y-18519436D01*
X8116015Y-18519436D02*
X8106491Y-18500389D01*
X8106491Y-18500389D02*
X8096967Y-18462293D01*
X8096967Y-18462293D02*
X8096967Y-18414674D01*
X8096967Y-18414674D02*
X8106491Y-18376579D01*
X8106491Y-18376579D02*
X8116015Y-18357531D01*
X8116015Y-18357531D02*
X8125539Y-18348008D01*
X8125539Y-18348008D02*
X8144586Y-18338484D01*
X8335062Y-18338484D02*
X8354110Y-18338484D01*
X8354110Y-18338484D02*
X8373158Y-18348008D01*
X8373158Y-18348008D02*
X8382682Y-18357531D01*
X8382682Y-18357531D02*
X8392205Y-18376579D01*
X8392205Y-18376579D02*
X8401729Y-18414674D01*
X8401729Y-18414674D02*
X8401729Y-18462293D01*
X8401729Y-18462293D02*
X8392205Y-18500389D01*
X8392205Y-18500389D02*
X8382682Y-18519436D01*
X8382682Y-18519436D02*
X8373158Y-18528960D01*
X8373158Y-18528960D02*
X8354110Y-18538484D01*
X8354110Y-18538484D02*
X8335062Y-18538484D01*
X8335062Y-18538484D02*
X8316015Y-18528960D01*
X8316015Y-18528960D02*
X8306491Y-18519436D01*
X8306491Y-18519436D02*
X8296967Y-18500389D01*
X8296967Y-18500389D02*
X8287443Y-18462293D01*
X8287443Y-18462293D02*
X8287443Y-18414674D01*
X8287443Y-18414674D02*
X8296967Y-18376579D01*
X8296967Y-18376579D02*
X8306491Y-18357531D01*
X8306491Y-18357531D02*
X8316015Y-18348008D01*
X8316015Y-18348008D02*
X8335062Y-18338484D01*
X8525539Y-18338484D02*
X8544586Y-18338484D01*
X8544586Y-18338484D02*
X8563634Y-18348008D01*
X8563634Y-18348008D02*
X8573158Y-18357531D01*
X8573158Y-18357531D02*
X8582682Y-18376579D01*
X8582682Y-18376579D02*
X8592205Y-18414674D01*
X8592205Y-18414674D02*
X8592205Y-18462293D01*
X8592205Y-18462293D02*
X8582682Y-18500389D01*
X8582682Y-18500389D02*
X8573158Y-18519436D01*
X8573158Y-18519436D02*
X8563634Y-18528960D01*
X8563634Y-18528960D02*
X8544586Y-18538484D01*
X8544586Y-18538484D02*
X8525539Y-18538484D01*
X8525539Y-18538484D02*
X8506491Y-18528960D01*
X8506491Y-18528960D02*
X8496967Y-18519436D01*
X8496967Y-18519436D02*
X8487444Y-18500389D01*
X8487444Y-18500389D02*
X8477920Y-18462293D01*
X8477920Y-18462293D02*
X8477920Y-18414674D01*
X8477920Y-18414674D02*
X8487444Y-18376579D01*
X8487444Y-18376579D02*
X8496967Y-18357531D01*
X8496967Y-18357531D02*
X8506491Y-18348008D01*
X8506491Y-18348008D02*
X8525539Y-18338484D01*
X8677920Y-18538484D02*
X8677920Y-18405150D01*
X8677920Y-18424198D02*
X8687444Y-18414674D01*
X8687444Y-18414674D02*
X8706491Y-18405150D01*
X8706491Y-18405150D02*
X8735063Y-18405150D01*
X8735063Y-18405150D02*
X8754110Y-18414674D01*
X8754110Y-18414674D02*
X8763634Y-18433722D01*
X8763634Y-18433722D02*
X8763634Y-18538484D01*
X8763634Y-18433722D02*
X8773158Y-18414674D01*
X8773158Y-18414674D02*
X8792205Y-18405150D01*
X8792205Y-18405150D02*
X8820777Y-18405150D01*
X8820777Y-18405150D02*
X8839825Y-18414674D01*
X8839825Y-18414674D02*
X8849348Y-18433722D01*
X8849348Y-18433722D02*
X8849348Y-18538484D01*
X8944586Y-18538484D02*
X8944586Y-18405150D01*
X8944586Y-18424198D02*
X8954110Y-18414674D01*
X8954110Y-18414674D02*
X8973158Y-18405150D01*
X8973158Y-18405150D02*
X9001729Y-18405150D01*
X9001729Y-18405150D02*
X9020777Y-18414674D01*
X9020777Y-18414674D02*
X9030301Y-18433722D01*
X9030301Y-18433722D02*
X9030301Y-18538484D01*
X9030301Y-18433722D02*
X9039825Y-18414674D01*
X9039825Y-18414674D02*
X9058872Y-18405150D01*
X9058872Y-18405150D02*
X9087444Y-18405150D01*
X9087444Y-18405150D02*
X9106491Y-18414674D01*
X9106491Y-18414674D02*
X9116015Y-18433722D01*
X9116015Y-18433722D02*
X9116015Y-18538484D01*
X9506491Y-18328960D02*
X9335063Y-18586103D01*
X9763634Y-18338484D02*
X9782682Y-18338484D01*
X9782682Y-18338484D02*
X9801729Y-18348008D01*
X9801729Y-18348008D02*
X9811253Y-18357531D01*
X9811253Y-18357531D02*
X9820777Y-18376579D01*
X9820777Y-18376579D02*
X9830301Y-18414674D01*
X9830301Y-18414674D02*
X9830301Y-18462293D01*
X9830301Y-18462293D02*
X9820777Y-18500389D01*
X9820777Y-18500389D02*
X9811253Y-18519436D01*
X9811253Y-18519436D02*
X9801729Y-18528960D01*
X9801729Y-18528960D02*
X9782682Y-18538484D01*
X9782682Y-18538484D02*
X9763634Y-18538484D01*
X9763634Y-18538484D02*
X9744587Y-18528960D01*
X9744587Y-18528960D02*
X9735063Y-18519436D01*
X9735063Y-18519436D02*
X9725539Y-18500389D01*
X9725539Y-18500389D02*
X9716015Y-18462293D01*
X9716015Y-18462293D02*
X9716015Y-18414674D01*
X9716015Y-18414674D02*
X9725539Y-18376579D01*
X9725539Y-18376579D02*
X9735063Y-18357531D01*
X9735063Y-18357531D02*
X9744587Y-18348008D01*
X9744587Y-18348008D02*
X9763634Y-18338484D01*
X9916015Y-18519436D02*
X9925539Y-18528960D01*
X9925539Y-18528960D02*
X9916015Y-18538484D01*
X9916015Y-18538484D02*
X9906491Y-18528960D01*
X9906491Y-18528960D02*
X9916015Y-18519436D01*
X9916015Y-18519436D02*
X9916015Y-18538484D01*
X10049348Y-18338484D02*
X10068396Y-18338484D01*
X10068396Y-18338484D02*
X10087444Y-18348008D01*
X10087444Y-18348008D02*
X10096968Y-18357531D01*
X10096968Y-18357531D02*
X10106491Y-18376579D01*
X10106491Y-18376579D02*
X10116015Y-18414674D01*
X10116015Y-18414674D02*
X10116015Y-18462293D01*
X10116015Y-18462293D02*
X10106491Y-18500389D01*
X10106491Y-18500389D02*
X10096968Y-18519436D01*
X10096968Y-18519436D02*
X10087444Y-18528960D01*
X10087444Y-18528960D02*
X10068396Y-18538484D01*
X10068396Y-18538484D02*
X10049348Y-18538484D01*
X10049348Y-18538484D02*
X10030301Y-18528960D01*
X10030301Y-18528960D02*
X10020777Y-18519436D01*
X10020777Y-18519436D02*
X10011253Y-18500389D01*
X10011253Y-18500389D02*
X10001729Y-18462293D01*
X10001729Y-18462293D02*
X10001729Y-18414674D01*
X10001729Y-18414674D02*
X10011253Y-18376579D01*
X10011253Y-18376579D02*
X10020777Y-18357531D01*
X10020777Y-18357531D02*
X10030301Y-18348008D01*
X10030301Y-18348008D02*
X10049348Y-18338484D01*
X10182682Y-18338484D02*
X10306491Y-18338484D01*
X10306491Y-18338484D02*
X10239825Y-18414674D01*
X10239825Y-18414674D02*
X10268396Y-18414674D01*
X10268396Y-18414674D02*
X10287444Y-18424198D01*
X10287444Y-18424198D02*
X10296968Y-18433722D01*
X10296968Y-18433722D02*
X10306491Y-18452770D01*
X10306491Y-18452770D02*
X10306491Y-18500389D01*
X10306491Y-18500389D02*
X10296968Y-18519436D01*
X10296968Y-18519436D02*
X10287444Y-18528960D01*
X10287444Y-18528960D02*
X10268396Y-18538484D01*
X10268396Y-18538484D02*
X10211253Y-18538484D01*
X10211253Y-18538484D02*
X10192206Y-18528960D01*
X10192206Y-18528960D02*
X10182682Y-18519436D01*
X10401729Y-18538484D02*
X10439825Y-18538484D01*
X10439825Y-18538484D02*
X10458872Y-18528960D01*
X10458872Y-18528960D02*
X10468396Y-18519436D01*
X10468396Y-18519436D02*
X10487444Y-18490865D01*
X10487444Y-18490865D02*
X10496968Y-18452770D01*
X10496968Y-18452770D02*
X10496968Y-18376579D01*
X10496968Y-18376579D02*
X10487444Y-18357531D01*
X10487444Y-18357531D02*
X10477920Y-18348008D01*
X10477920Y-18348008D02*
X10458872Y-18338484D01*
X10458872Y-18338484D02*
X10420777Y-18338484D01*
X10420777Y-18338484D02*
X10401729Y-18348008D01*
X10401729Y-18348008D02*
X10392206Y-18357531D01*
X10392206Y-18357531D02*
X10382682Y-18376579D01*
X10382682Y-18376579D02*
X10382682Y-18424198D01*
X10382682Y-18424198D02*
X10392206Y-18443246D01*
X10392206Y-18443246D02*
X10401729Y-18452770D01*
X10401729Y-18452770D02*
X10420777Y-18462293D01*
X10420777Y-18462293D02*
X10458872Y-18462293D01*
X10458872Y-18462293D02*
X10477920Y-18452770D01*
X10477920Y-18452770D02*
X10487444Y-18443246D01*
X10487444Y-18443246D02*
X10496968Y-18424198D01*
X10668396Y-18405150D02*
X10668396Y-18538484D01*
X10620777Y-18328960D02*
X10573158Y-18471817D01*
X10573158Y-18471817D02*
X10696968Y-18471817D01*
X10763634Y-18338484D02*
X10763634Y-18376579D01*
X10839825Y-18338484D02*
X10839825Y-18376579D01*
X11135063Y-18614674D02*
X11125539Y-18605150D01*
X11125539Y-18605150D02*
X11106491Y-18576579D01*
X11106491Y-18576579D02*
X11096968Y-18557531D01*
X11096968Y-18557531D02*
X11087444Y-18528960D01*
X11087444Y-18528960D02*
X11077920Y-18481341D01*
X11077920Y-18481341D02*
X11077920Y-18443246D01*
X11077920Y-18443246D02*
X11087444Y-18395627D01*
X11087444Y-18395627D02*
X11096968Y-18367055D01*
X11096968Y-18367055D02*
X11106491Y-18348008D01*
X11106491Y-18348008D02*
X11125539Y-18319436D01*
X11125539Y-18319436D02*
X11135063Y-18309912D01*
X11201729Y-18357531D02*
X11211253Y-18348008D01*
X11211253Y-18348008D02*
X11230301Y-18338484D01*
X11230301Y-18338484D02*
X11277920Y-18338484D01*
X11277920Y-18338484D02*
X11296968Y-18348008D01*
X11296968Y-18348008D02*
X11306491Y-18357531D01*
X11306491Y-18357531D02*
X11316015Y-18376579D01*
X11316015Y-18376579D02*
X11316015Y-18395627D01*
X11316015Y-18395627D02*
X11306491Y-18424198D01*
X11306491Y-18424198D02*
X11192206Y-18538484D01*
X11192206Y-18538484D02*
X11316015Y-18538484D01*
X11382682Y-18338484D02*
X11516015Y-18338484D01*
X11516015Y-18338484D02*
X11430301Y-18538484D01*
X11744587Y-18538484D02*
X11744587Y-18338484D01*
X11830301Y-18538484D02*
X11830301Y-18433722D01*
X11830301Y-18433722D02*
X11820777Y-18414674D01*
X11820777Y-18414674D02*
X11801730Y-18405150D01*
X11801730Y-18405150D02*
X11773158Y-18405150D01*
X11773158Y-18405150D02*
X11754110Y-18414674D01*
X11754110Y-18414674D02*
X11744587Y-18424198D01*
X11954110Y-18538484D02*
X11935063Y-18528960D01*
X11935063Y-18528960D02*
X11925539Y-18519436D01*
X11925539Y-18519436D02*
X11916015Y-18500389D01*
X11916015Y-18500389D02*
X11916015Y-18443246D01*
X11916015Y-18443246D02*
X11925539Y-18424198D01*
X11925539Y-18424198D02*
X11935063Y-18414674D01*
X11935063Y-18414674D02*
X11954110Y-18405150D01*
X11954110Y-18405150D02*
X11982682Y-18405150D01*
X11982682Y-18405150D02*
X12001730Y-18414674D01*
X12001730Y-18414674D02*
X12011253Y-18424198D01*
X12011253Y-18424198D02*
X12020777Y-18443246D01*
X12020777Y-18443246D02*
X12020777Y-18500389D01*
X12020777Y-18500389D02*
X12011253Y-18519436D01*
X12011253Y-18519436D02*
X12001730Y-18528960D01*
X12001730Y-18528960D02*
X11982682Y-18538484D01*
X11982682Y-18538484D02*
X11954110Y-18538484D01*
X12135063Y-18538484D02*
X12116015Y-18528960D01*
X12116015Y-18528960D02*
X12106491Y-18509912D01*
X12106491Y-18509912D02*
X12106491Y-18338484D01*
X12287444Y-18528960D02*
X12268396Y-18538484D01*
X12268396Y-18538484D02*
X12230301Y-18538484D01*
X12230301Y-18538484D02*
X12211253Y-18528960D01*
X12211253Y-18528960D02*
X12201730Y-18509912D01*
X12201730Y-18509912D02*
X12201730Y-18433722D01*
X12201730Y-18433722D02*
X12211253Y-18414674D01*
X12211253Y-18414674D02*
X12230301Y-18405150D01*
X12230301Y-18405150D02*
X12268396Y-18405150D01*
X12268396Y-18405150D02*
X12287444Y-18414674D01*
X12287444Y-18414674D02*
X12296968Y-18433722D01*
X12296968Y-18433722D02*
X12296968Y-18452770D01*
X12296968Y-18452770D02*
X12201730Y-18471817D01*
X12373158Y-18528960D02*
X12392206Y-18538484D01*
X12392206Y-18538484D02*
X12430301Y-18538484D01*
X12430301Y-18538484D02*
X12449349Y-18528960D01*
X12449349Y-18528960D02*
X12458872Y-18509912D01*
X12458872Y-18509912D02*
X12458872Y-18500389D01*
X12458872Y-18500389D02*
X12449349Y-18481341D01*
X12449349Y-18481341D02*
X12430301Y-18471817D01*
X12430301Y-18471817D02*
X12401730Y-18471817D01*
X12401730Y-18471817D02*
X12382682Y-18462293D01*
X12382682Y-18462293D02*
X12373158Y-18443246D01*
X12373158Y-18443246D02*
X12373158Y-18433722D01*
X12373158Y-18433722D02*
X12382682Y-18414674D01*
X12382682Y-18414674D02*
X12401730Y-18405150D01*
X12401730Y-18405150D02*
X12430301Y-18405150D01*
X12430301Y-18405150D02*
X12449349Y-18414674D01*
X12525539Y-18614674D02*
X12535063Y-18605150D01*
X12535063Y-18605150D02*
X12554111Y-18576579D01*
X12554111Y-18576579D02*
X12563634Y-18557531D01*
X12563634Y-18557531D02*
X12573158Y-18528960D01*
X12573158Y-18528960D02*
X12582682Y-18481341D01*
X12582682Y-18481341D02*
X12582682Y-18443246D01*
X12582682Y-18443246D02*
X12573158Y-18395627D01*
X12573158Y-18395627D02*
X12563634Y-18367055D01*
X12563634Y-18367055D02*
X12554111Y-18348008D01*
X12554111Y-18348008D02*
X12535063Y-18319436D01*
X12535063Y-18319436D02*
X12525539Y-18309912D01*
D13*
X7509200Y-18761800D02*
X7560000Y-18711000D01*
X7509200Y-18660200D01*
X7458400Y-18711000D01*
X7509200Y-18761800D01*
D11*
X7925539Y-18802484D02*
X7811253Y-18802484D01*
X7868396Y-18802484D02*
X7868396Y-18602484D01*
X7868396Y-18602484D02*
X7849348Y-18631055D01*
X7849348Y-18631055D02*
X7830301Y-18650103D01*
X7830301Y-18650103D02*
X7811253Y-18659627D01*
X8011253Y-18783436D02*
X8020777Y-18792960D01*
X8020777Y-18792960D02*
X8011253Y-18802484D01*
X8011253Y-18802484D02*
X8001729Y-18792960D01*
X8001729Y-18792960D02*
X8011253Y-18783436D01*
X8011253Y-18783436D02*
X8011253Y-18802484D01*
X8144586Y-18602484D02*
X8163634Y-18602484D01*
X8163634Y-18602484D02*
X8182682Y-18612008D01*
X8182682Y-18612008D02*
X8192205Y-18621531D01*
X8192205Y-18621531D02*
X8201729Y-18640579D01*
X8201729Y-18640579D02*
X8211253Y-18678674D01*
X8211253Y-18678674D02*
X8211253Y-18726293D01*
X8211253Y-18726293D02*
X8201729Y-18764389D01*
X8201729Y-18764389D02*
X8192205Y-18783436D01*
X8192205Y-18783436D02*
X8182682Y-18792960D01*
X8182682Y-18792960D02*
X8163634Y-18802484D01*
X8163634Y-18802484D02*
X8144586Y-18802484D01*
X8144586Y-18802484D02*
X8125539Y-18792960D01*
X8125539Y-18792960D02*
X8116015Y-18783436D01*
X8116015Y-18783436D02*
X8106491Y-18764389D01*
X8106491Y-18764389D02*
X8096967Y-18726293D01*
X8096967Y-18726293D02*
X8096967Y-18678674D01*
X8096967Y-18678674D02*
X8106491Y-18640579D01*
X8106491Y-18640579D02*
X8116015Y-18621531D01*
X8116015Y-18621531D02*
X8125539Y-18612008D01*
X8125539Y-18612008D02*
X8144586Y-18602484D01*
X8401729Y-18802484D02*
X8287443Y-18802484D01*
X8344586Y-18802484D02*
X8344586Y-18602484D01*
X8344586Y-18602484D02*
X8325539Y-18631055D01*
X8325539Y-18631055D02*
X8306491Y-18650103D01*
X8306491Y-18650103D02*
X8287443Y-18659627D01*
X8573158Y-18602484D02*
X8535063Y-18602484D01*
X8535063Y-18602484D02*
X8516015Y-18612008D01*
X8516015Y-18612008D02*
X8506491Y-18621531D01*
X8506491Y-18621531D02*
X8487444Y-18650103D01*
X8487444Y-18650103D02*
X8477920Y-18688198D01*
X8477920Y-18688198D02*
X8477920Y-18764389D01*
X8477920Y-18764389D02*
X8487444Y-18783436D01*
X8487444Y-18783436D02*
X8496967Y-18792960D01*
X8496967Y-18792960D02*
X8516015Y-18802484D01*
X8516015Y-18802484D02*
X8554110Y-18802484D01*
X8554110Y-18802484D02*
X8573158Y-18792960D01*
X8573158Y-18792960D02*
X8582682Y-18783436D01*
X8582682Y-18783436D02*
X8592205Y-18764389D01*
X8592205Y-18764389D02*
X8592205Y-18716770D01*
X8592205Y-18716770D02*
X8582682Y-18697722D01*
X8582682Y-18697722D02*
X8573158Y-18688198D01*
X8573158Y-18688198D02*
X8554110Y-18678674D01*
X8554110Y-18678674D02*
X8516015Y-18678674D01*
X8516015Y-18678674D02*
X8496967Y-18688198D01*
X8496967Y-18688198D02*
X8487444Y-18697722D01*
X8487444Y-18697722D02*
X8477920Y-18716770D01*
X8677920Y-18802484D02*
X8677920Y-18669150D01*
X8677920Y-18688198D02*
X8687444Y-18678674D01*
X8687444Y-18678674D02*
X8706491Y-18669150D01*
X8706491Y-18669150D02*
X8735063Y-18669150D01*
X8735063Y-18669150D02*
X8754110Y-18678674D01*
X8754110Y-18678674D02*
X8763634Y-18697722D01*
X8763634Y-18697722D02*
X8763634Y-18802484D01*
X8763634Y-18697722D02*
X8773158Y-18678674D01*
X8773158Y-18678674D02*
X8792205Y-18669150D01*
X8792205Y-18669150D02*
X8820777Y-18669150D01*
X8820777Y-18669150D02*
X8839825Y-18678674D01*
X8839825Y-18678674D02*
X8849348Y-18697722D01*
X8849348Y-18697722D02*
X8849348Y-18802484D01*
X8944586Y-18802484D02*
X8944586Y-18669150D01*
X8944586Y-18688198D02*
X8954110Y-18678674D01*
X8954110Y-18678674D02*
X8973158Y-18669150D01*
X8973158Y-18669150D02*
X9001729Y-18669150D01*
X9001729Y-18669150D02*
X9020777Y-18678674D01*
X9020777Y-18678674D02*
X9030301Y-18697722D01*
X9030301Y-18697722D02*
X9030301Y-18802484D01*
X9030301Y-18697722D02*
X9039825Y-18678674D01*
X9039825Y-18678674D02*
X9058872Y-18669150D01*
X9058872Y-18669150D02*
X9087444Y-18669150D01*
X9087444Y-18669150D02*
X9106491Y-18678674D01*
X9106491Y-18678674D02*
X9116015Y-18697722D01*
X9116015Y-18697722D02*
X9116015Y-18802484D01*
X9506491Y-18592960D02*
X9335063Y-18850103D01*
X9763634Y-18602484D02*
X9782682Y-18602484D01*
X9782682Y-18602484D02*
X9801729Y-18612008D01*
X9801729Y-18612008D02*
X9811253Y-18621531D01*
X9811253Y-18621531D02*
X9820777Y-18640579D01*
X9820777Y-18640579D02*
X9830301Y-18678674D01*
X9830301Y-18678674D02*
X9830301Y-18726293D01*
X9830301Y-18726293D02*
X9820777Y-18764389D01*
X9820777Y-18764389D02*
X9811253Y-18783436D01*
X9811253Y-18783436D02*
X9801729Y-18792960D01*
X9801729Y-18792960D02*
X9782682Y-18802484D01*
X9782682Y-18802484D02*
X9763634Y-18802484D01*
X9763634Y-18802484D02*
X9744587Y-18792960D01*
X9744587Y-18792960D02*
X9735063Y-18783436D01*
X9735063Y-18783436D02*
X9725539Y-18764389D01*
X9725539Y-18764389D02*
X9716015Y-18726293D01*
X9716015Y-18726293D02*
X9716015Y-18678674D01*
X9716015Y-18678674D02*
X9725539Y-18640579D01*
X9725539Y-18640579D02*
X9735063Y-18621531D01*
X9735063Y-18621531D02*
X9744587Y-18612008D01*
X9744587Y-18612008D02*
X9763634Y-18602484D01*
X9916015Y-18783436D02*
X9925539Y-18792960D01*
X9925539Y-18792960D02*
X9916015Y-18802484D01*
X9916015Y-18802484D02*
X9906491Y-18792960D01*
X9906491Y-18792960D02*
X9916015Y-18783436D01*
X9916015Y-18783436D02*
X9916015Y-18802484D01*
X10049348Y-18602484D02*
X10068396Y-18602484D01*
X10068396Y-18602484D02*
X10087444Y-18612008D01*
X10087444Y-18612008D02*
X10096968Y-18621531D01*
X10096968Y-18621531D02*
X10106491Y-18640579D01*
X10106491Y-18640579D02*
X10116015Y-18678674D01*
X10116015Y-18678674D02*
X10116015Y-18726293D01*
X10116015Y-18726293D02*
X10106491Y-18764389D01*
X10106491Y-18764389D02*
X10096968Y-18783436D01*
X10096968Y-18783436D02*
X10087444Y-18792960D01*
X10087444Y-18792960D02*
X10068396Y-18802484D01*
X10068396Y-18802484D02*
X10049348Y-18802484D01*
X10049348Y-18802484D02*
X10030301Y-18792960D01*
X10030301Y-18792960D02*
X10020777Y-18783436D01*
X10020777Y-18783436D02*
X10011253Y-18764389D01*
X10011253Y-18764389D02*
X10001729Y-18726293D01*
X10001729Y-18726293D02*
X10001729Y-18678674D01*
X10001729Y-18678674D02*
X10011253Y-18640579D01*
X10011253Y-18640579D02*
X10020777Y-18621531D01*
X10020777Y-18621531D02*
X10030301Y-18612008D01*
X10030301Y-18612008D02*
X10049348Y-18602484D01*
X10287444Y-18669150D02*
X10287444Y-18802484D01*
X10239825Y-18592960D02*
X10192206Y-18735817D01*
X10192206Y-18735817D02*
X10316015Y-18735817D01*
X10430301Y-18602484D02*
X10449349Y-18602484D01*
X10449349Y-18602484D02*
X10468396Y-18612008D01*
X10468396Y-18612008D02*
X10477920Y-18621531D01*
X10477920Y-18621531D02*
X10487444Y-18640579D01*
X10487444Y-18640579D02*
X10496968Y-18678674D01*
X10496968Y-18678674D02*
X10496968Y-18726293D01*
X10496968Y-18726293D02*
X10487444Y-18764389D01*
X10487444Y-18764389D02*
X10477920Y-18783436D01*
X10477920Y-18783436D02*
X10468396Y-18792960D01*
X10468396Y-18792960D02*
X10449349Y-18802484D01*
X10449349Y-18802484D02*
X10430301Y-18802484D01*
X10430301Y-18802484D02*
X10411253Y-18792960D01*
X10411253Y-18792960D02*
X10401729Y-18783436D01*
X10401729Y-18783436D02*
X10392206Y-18764389D01*
X10392206Y-18764389D02*
X10382682Y-18726293D01*
X10382682Y-18726293D02*
X10382682Y-18678674D01*
X10382682Y-18678674D02*
X10392206Y-18640579D01*
X10392206Y-18640579D02*
X10401729Y-18621531D01*
X10401729Y-18621531D02*
X10411253Y-18612008D01*
X10411253Y-18612008D02*
X10430301Y-18602484D01*
X10620777Y-18602484D02*
X10639825Y-18602484D01*
X10639825Y-18602484D02*
X10658872Y-18612008D01*
X10658872Y-18612008D02*
X10668396Y-18621531D01*
X10668396Y-18621531D02*
X10677920Y-18640579D01*
X10677920Y-18640579D02*
X10687444Y-18678674D01*
X10687444Y-18678674D02*
X10687444Y-18726293D01*
X10687444Y-18726293D02*
X10677920Y-18764389D01*
X10677920Y-18764389D02*
X10668396Y-18783436D01*
X10668396Y-18783436D02*
X10658872Y-18792960D01*
X10658872Y-18792960D02*
X10639825Y-18802484D01*
X10639825Y-18802484D02*
X10620777Y-18802484D01*
X10620777Y-18802484D02*
X10601729Y-18792960D01*
X10601729Y-18792960D02*
X10592206Y-18783436D01*
X10592206Y-18783436D02*
X10582682Y-18764389D01*
X10582682Y-18764389D02*
X10573158Y-18726293D01*
X10573158Y-18726293D02*
X10573158Y-18678674D01*
X10573158Y-18678674D02*
X10582682Y-18640579D01*
X10582682Y-18640579D02*
X10592206Y-18621531D01*
X10592206Y-18621531D02*
X10601729Y-18612008D01*
X10601729Y-18612008D02*
X10620777Y-18602484D01*
X10763634Y-18602484D02*
X10763634Y-18640579D01*
X10839825Y-18602484D02*
X10839825Y-18640579D01*
X11135063Y-18878674D02*
X11125539Y-18869150D01*
X11125539Y-18869150D02*
X11106491Y-18840579D01*
X11106491Y-18840579D02*
X11096968Y-18821531D01*
X11096968Y-18821531D02*
X11087444Y-18792960D01*
X11087444Y-18792960D02*
X11077920Y-18745341D01*
X11077920Y-18745341D02*
X11077920Y-18707246D01*
X11077920Y-18707246D02*
X11087444Y-18659627D01*
X11087444Y-18659627D02*
X11096968Y-18631055D01*
X11096968Y-18631055D02*
X11106491Y-18612008D01*
X11106491Y-18612008D02*
X11125539Y-18583436D01*
X11125539Y-18583436D02*
X11135063Y-18573912D01*
X11296968Y-18602484D02*
X11258872Y-18602484D01*
X11258872Y-18602484D02*
X11239825Y-18612008D01*
X11239825Y-18612008D02*
X11230301Y-18621531D01*
X11230301Y-18621531D02*
X11211253Y-18650103D01*
X11211253Y-18650103D02*
X11201729Y-18688198D01*
X11201729Y-18688198D02*
X11201729Y-18764389D01*
X11201729Y-18764389D02*
X11211253Y-18783436D01*
X11211253Y-18783436D02*
X11220777Y-18792960D01*
X11220777Y-18792960D02*
X11239825Y-18802484D01*
X11239825Y-18802484D02*
X11277920Y-18802484D01*
X11277920Y-18802484D02*
X11296968Y-18792960D01*
X11296968Y-18792960D02*
X11306491Y-18783436D01*
X11306491Y-18783436D02*
X11316015Y-18764389D01*
X11316015Y-18764389D02*
X11316015Y-18716770D01*
X11316015Y-18716770D02*
X11306491Y-18697722D01*
X11306491Y-18697722D02*
X11296968Y-18688198D01*
X11296968Y-18688198D02*
X11277920Y-18678674D01*
X11277920Y-18678674D02*
X11239825Y-18678674D01*
X11239825Y-18678674D02*
X11220777Y-18688198D01*
X11220777Y-18688198D02*
X11211253Y-18697722D01*
X11211253Y-18697722D02*
X11201729Y-18716770D01*
X11554110Y-18802484D02*
X11554110Y-18602484D01*
X11639825Y-18802484D02*
X11639825Y-18697722D01*
X11639825Y-18697722D02*
X11630301Y-18678674D01*
X11630301Y-18678674D02*
X11611253Y-18669150D01*
X11611253Y-18669150D02*
X11582682Y-18669150D01*
X11582682Y-18669150D02*
X11563634Y-18678674D01*
X11563634Y-18678674D02*
X11554110Y-18688198D01*
X11763634Y-18802484D02*
X11744587Y-18792960D01*
X11744587Y-18792960D02*
X11735063Y-18783436D01*
X11735063Y-18783436D02*
X11725539Y-18764389D01*
X11725539Y-18764389D02*
X11725539Y-18707246D01*
X11725539Y-18707246D02*
X11735063Y-18688198D01*
X11735063Y-18688198D02*
X11744587Y-18678674D01*
X11744587Y-18678674D02*
X11763634Y-18669150D01*
X11763634Y-18669150D02*
X11792206Y-18669150D01*
X11792206Y-18669150D02*
X11811253Y-18678674D01*
X11811253Y-18678674D02*
X11820777Y-18688198D01*
X11820777Y-18688198D02*
X11830301Y-18707246D01*
X11830301Y-18707246D02*
X11830301Y-18764389D01*
X11830301Y-18764389D02*
X11820777Y-18783436D01*
X11820777Y-18783436D02*
X11811253Y-18792960D01*
X11811253Y-18792960D02*
X11792206Y-18802484D01*
X11792206Y-18802484D02*
X11763634Y-18802484D01*
X11944587Y-18802484D02*
X11925539Y-18792960D01*
X11925539Y-18792960D02*
X11916015Y-18773912D01*
X11916015Y-18773912D02*
X11916015Y-18602484D01*
X12096968Y-18792960D02*
X12077920Y-18802484D01*
X12077920Y-18802484D02*
X12039825Y-18802484D01*
X12039825Y-18802484D02*
X12020777Y-18792960D01*
X12020777Y-18792960D02*
X12011253Y-18773912D01*
X12011253Y-18773912D02*
X12011253Y-18697722D01*
X12011253Y-18697722D02*
X12020777Y-18678674D01*
X12020777Y-18678674D02*
X12039825Y-18669150D01*
X12039825Y-18669150D02*
X12077920Y-18669150D01*
X12077920Y-18669150D02*
X12096968Y-18678674D01*
X12096968Y-18678674D02*
X12106491Y-18697722D01*
X12106491Y-18697722D02*
X12106491Y-18716770D01*
X12106491Y-18716770D02*
X12011253Y-18735817D01*
X12182682Y-18792960D02*
X12201730Y-18802484D01*
X12201730Y-18802484D02*
X12239825Y-18802484D01*
X12239825Y-18802484D02*
X12258872Y-18792960D01*
X12258872Y-18792960D02*
X12268396Y-18773912D01*
X12268396Y-18773912D02*
X12268396Y-18764389D01*
X12268396Y-18764389D02*
X12258872Y-18745341D01*
X12258872Y-18745341D02*
X12239825Y-18735817D01*
X12239825Y-18735817D02*
X12211253Y-18735817D01*
X12211253Y-18735817D02*
X12192206Y-18726293D01*
X12192206Y-18726293D02*
X12182682Y-18707246D01*
X12182682Y-18707246D02*
X12182682Y-18697722D01*
X12182682Y-18697722D02*
X12192206Y-18678674D01*
X12192206Y-18678674D02*
X12211253Y-18669150D01*
X12211253Y-18669150D02*
X12239825Y-18669150D01*
X12239825Y-18669150D02*
X12258872Y-18678674D01*
X12335063Y-18878674D02*
X12344587Y-18869150D01*
X12344587Y-18869150D02*
X12363634Y-18840579D01*
X12363634Y-18840579D02*
X12373158Y-18821531D01*
X12373158Y-18821531D02*
X12382682Y-18792960D01*
X12382682Y-18792960D02*
X12392206Y-18745341D01*
X12392206Y-18745341D02*
X12392206Y-18707246D01*
X12392206Y-18707246D02*
X12382682Y-18659627D01*
X12382682Y-18659627D02*
X12373158Y-18631055D01*
X12373158Y-18631055D02*
X12363634Y-18612008D01*
X12363634Y-18612008D02*
X12344587Y-18583436D01*
X12344587Y-18583436D02*
X12335063Y-18573912D01*
D14*
X7452000Y-18921000D02*
X7560000Y-19029000D01*
X7560000Y-18921000D02*
X7452000Y-19029000D01*
X7560000Y-18975000D02*
G75*
G02*
X7452000Y-18975000I-54000J0D01*
G01*
X7452000Y-18975000D02*
G75*
G02*
X7560000Y-18975000I54000J0D01*
G01*
D11*
X7925539Y-19066484D02*
X7811253Y-19066484D01*
X7868396Y-19066484D02*
X7868396Y-18866484D01*
X7868396Y-18866484D02*
X7849348Y-18895055D01*
X7849348Y-18895055D02*
X7830301Y-18914103D01*
X7830301Y-18914103D02*
X7811253Y-18923627D01*
X8011253Y-19047436D02*
X8020777Y-19056960D01*
X8020777Y-19056960D02*
X8011253Y-19066484D01*
X8011253Y-19066484D02*
X8001729Y-19056960D01*
X8001729Y-19056960D02*
X8011253Y-19047436D01*
X8011253Y-19047436D02*
X8011253Y-19066484D01*
X8144586Y-18866484D02*
X8163634Y-18866484D01*
X8163634Y-18866484D02*
X8182682Y-18876008D01*
X8182682Y-18876008D02*
X8192205Y-18885531D01*
X8192205Y-18885531D02*
X8201729Y-18904579D01*
X8201729Y-18904579D02*
X8211253Y-18942674D01*
X8211253Y-18942674D02*
X8211253Y-18990293D01*
X8211253Y-18990293D02*
X8201729Y-19028389D01*
X8201729Y-19028389D02*
X8192205Y-19047436D01*
X8192205Y-19047436D02*
X8182682Y-19056960D01*
X8182682Y-19056960D02*
X8163634Y-19066484D01*
X8163634Y-19066484D02*
X8144586Y-19066484D01*
X8144586Y-19066484D02*
X8125539Y-19056960D01*
X8125539Y-19056960D02*
X8116015Y-19047436D01*
X8116015Y-19047436D02*
X8106491Y-19028389D01*
X8106491Y-19028389D02*
X8096967Y-18990293D01*
X8096967Y-18990293D02*
X8096967Y-18942674D01*
X8096967Y-18942674D02*
X8106491Y-18904579D01*
X8106491Y-18904579D02*
X8116015Y-18885531D01*
X8116015Y-18885531D02*
X8125539Y-18876008D01*
X8125539Y-18876008D02*
X8144586Y-18866484D01*
X8325539Y-18952198D02*
X8306491Y-18942674D01*
X8306491Y-18942674D02*
X8296967Y-18933150D01*
X8296967Y-18933150D02*
X8287443Y-18914103D01*
X8287443Y-18914103D02*
X8287443Y-18904579D01*
X8287443Y-18904579D02*
X8296967Y-18885531D01*
X8296967Y-18885531D02*
X8306491Y-18876008D01*
X8306491Y-18876008D02*
X8325539Y-18866484D01*
X8325539Y-18866484D02*
X8363634Y-18866484D01*
X8363634Y-18866484D02*
X8382682Y-18876008D01*
X8382682Y-18876008D02*
X8392205Y-18885531D01*
X8392205Y-18885531D02*
X8401729Y-18904579D01*
X8401729Y-18904579D02*
X8401729Y-18914103D01*
X8401729Y-18914103D02*
X8392205Y-18933150D01*
X8392205Y-18933150D02*
X8382682Y-18942674D01*
X8382682Y-18942674D02*
X8363634Y-18952198D01*
X8363634Y-18952198D02*
X8325539Y-18952198D01*
X8325539Y-18952198D02*
X8306491Y-18961722D01*
X8306491Y-18961722D02*
X8296967Y-18971246D01*
X8296967Y-18971246D02*
X8287443Y-18990293D01*
X8287443Y-18990293D02*
X8287443Y-19028389D01*
X8287443Y-19028389D02*
X8296967Y-19047436D01*
X8296967Y-19047436D02*
X8306491Y-19056960D01*
X8306491Y-19056960D02*
X8325539Y-19066484D01*
X8325539Y-19066484D02*
X8363634Y-19066484D01*
X8363634Y-19066484D02*
X8382682Y-19056960D01*
X8382682Y-19056960D02*
X8392205Y-19047436D01*
X8392205Y-19047436D02*
X8401729Y-19028389D01*
X8401729Y-19028389D02*
X8401729Y-18990293D01*
X8401729Y-18990293D02*
X8392205Y-18971246D01*
X8392205Y-18971246D02*
X8382682Y-18961722D01*
X8382682Y-18961722D02*
X8363634Y-18952198D01*
X8525539Y-18866484D02*
X8544586Y-18866484D01*
X8544586Y-18866484D02*
X8563634Y-18876008D01*
X8563634Y-18876008D02*
X8573158Y-18885531D01*
X8573158Y-18885531D02*
X8582682Y-18904579D01*
X8582682Y-18904579D02*
X8592205Y-18942674D01*
X8592205Y-18942674D02*
X8592205Y-18990293D01*
X8592205Y-18990293D02*
X8582682Y-19028389D01*
X8582682Y-19028389D02*
X8573158Y-19047436D01*
X8573158Y-19047436D02*
X8563634Y-19056960D01*
X8563634Y-19056960D02*
X8544586Y-19066484D01*
X8544586Y-19066484D02*
X8525539Y-19066484D01*
X8525539Y-19066484D02*
X8506491Y-19056960D01*
X8506491Y-19056960D02*
X8496967Y-19047436D01*
X8496967Y-19047436D02*
X8487444Y-19028389D01*
X8487444Y-19028389D02*
X8477920Y-18990293D01*
X8477920Y-18990293D02*
X8477920Y-18942674D01*
X8477920Y-18942674D02*
X8487444Y-18904579D01*
X8487444Y-18904579D02*
X8496967Y-18885531D01*
X8496967Y-18885531D02*
X8506491Y-18876008D01*
X8506491Y-18876008D02*
X8525539Y-18866484D01*
X8677920Y-19066484D02*
X8677920Y-18933150D01*
X8677920Y-18952198D02*
X8687444Y-18942674D01*
X8687444Y-18942674D02*
X8706491Y-18933150D01*
X8706491Y-18933150D02*
X8735063Y-18933150D01*
X8735063Y-18933150D02*
X8754110Y-18942674D01*
X8754110Y-18942674D02*
X8763634Y-18961722D01*
X8763634Y-18961722D02*
X8763634Y-19066484D01*
X8763634Y-18961722D02*
X8773158Y-18942674D01*
X8773158Y-18942674D02*
X8792205Y-18933150D01*
X8792205Y-18933150D02*
X8820777Y-18933150D01*
X8820777Y-18933150D02*
X8839825Y-18942674D01*
X8839825Y-18942674D02*
X8849348Y-18961722D01*
X8849348Y-18961722D02*
X8849348Y-19066484D01*
X8944586Y-19066484D02*
X8944586Y-18933150D01*
X8944586Y-18952198D02*
X8954110Y-18942674D01*
X8954110Y-18942674D02*
X8973158Y-18933150D01*
X8973158Y-18933150D02*
X9001729Y-18933150D01*
X9001729Y-18933150D02*
X9020777Y-18942674D01*
X9020777Y-18942674D02*
X9030301Y-18961722D01*
X9030301Y-18961722D02*
X9030301Y-19066484D01*
X9030301Y-18961722D02*
X9039825Y-18942674D01*
X9039825Y-18942674D02*
X9058872Y-18933150D01*
X9058872Y-18933150D02*
X9087444Y-18933150D01*
X9087444Y-18933150D02*
X9106491Y-18942674D01*
X9106491Y-18942674D02*
X9116015Y-18961722D01*
X9116015Y-18961722D02*
X9116015Y-19066484D01*
X9506491Y-18856960D02*
X9335063Y-19114103D01*
X9763634Y-18866484D02*
X9782682Y-18866484D01*
X9782682Y-18866484D02*
X9801729Y-18876008D01*
X9801729Y-18876008D02*
X9811253Y-18885531D01*
X9811253Y-18885531D02*
X9820777Y-18904579D01*
X9820777Y-18904579D02*
X9830301Y-18942674D01*
X9830301Y-18942674D02*
X9830301Y-18990293D01*
X9830301Y-18990293D02*
X9820777Y-19028389D01*
X9820777Y-19028389D02*
X9811253Y-19047436D01*
X9811253Y-19047436D02*
X9801729Y-19056960D01*
X9801729Y-19056960D02*
X9782682Y-19066484D01*
X9782682Y-19066484D02*
X9763634Y-19066484D01*
X9763634Y-19066484D02*
X9744587Y-19056960D01*
X9744587Y-19056960D02*
X9735063Y-19047436D01*
X9735063Y-19047436D02*
X9725539Y-19028389D01*
X9725539Y-19028389D02*
X9716015Y-18990293D01*
X9716015Y-18990293D02*
X9716015Y-18942674D01*
X9716015Y-18942674D02*
X9725539Y-18904579D01*
X9725539Y-18904579D02*
X9735063Y-18885531D01*
X9735063Y-18885531D02*
X9744587Y-18876008D01*
X9744587Y-18876008D02*
X9763634Y-18866484D01*
X9916015Y-19047436D02*
X9925539Y-19056960D01*
X9925539Y-19056960D02*
X9916015Y-19066484D01*
X9916015Y-19066484D02*
X9906491Y-19056960D01*
X9906491Y-19056960D02*
X9916015Y-19047436D01*
X9916015Y-19047436D02*
X9916015Y-19066484D01*
X10049348Y-18866484D02*
X10068396Y-18866484D01*
X10068396Y-18866484D02*
X10087444Y-18876008D01*
X10087444Y-18876008D02*
X10096968Y-18885531D01*
X10096968Y-18885531D02*
X10106491Y-18904579D01*
X10106491Y-18904579D02*
X10116015Y-18942674D01*
X10116015Y-18942674D02*
X10116015Y-18990293D01*
X10116015Y-18990293D02*
X10106491Y-19028389D01*
X10106491Y-19028389D02*
X10096968Y-19047436D01*
X10096968Y-19047436D02*
X10087444Y-19056960D01*
X10087444Y-19056960D02*
X10068396Y-19066484D01*
X10068396Y-19066484D02*
X10049348Y-19066484D01*
X10049348Y-19066484D02*
X10030301Y-19056960D01*
X10030301Y-19056960D02*
X10020777Y-19047436D01*
X10020777Y-19047436D02*
X10011253Y-19028389D01*
X10011253Y-19028389D02*
X10001729Y-18990293D01*
X10001729Y-18990293D02*
X10001729Y-18942674D01*
X10001729Y-18942674D02*
X10011253Y-18904579D01*
X10011253Y-18904579D02*
X10020777Y-18885531D01*
X10020777Y-18885531D02*
X10030301Y-18876008D01*
X10030301Y-18876008D02*
X10049348Y-18866484D01*
X10287444Y-18933150D02*
X10287444Y-19066484D01*
X10239825Y-18856960D02*
X10192206Y-18999817D01*
X10192206Y-18999817D02*
X10316015Y-18999817D01*
X10382682Y-18885531D02*
X10392206Y-18876008D01*
X10392206Y-18876008D02*
X10411253Y-18866484D01*
X10411253Y-18866484D02*
X10458872Y-18866484D01*
X10458872Y-18866484D02*
X10477920Y-18876008D01*
X10477920Y-18876008D02*
X10487444Y-18885531D01*
X10487444Y-18885531D02*
X10496968Y-18904579D01*
X10496968Y-18904579D02*
X10496968Y-18923627D01*
X10496968Y-18923627D02*
X10487444Y-18952198D01*
X10487444Y-18952198D02*
X10373158Y-19066484D01*
X10373158Y-19066484D02*
X10496968Y-19066484D01*
X10677920Y-18866484D02*
X10582682Y-18866484D01*
X10582682Y-18866484D02*
X10573158Y-18961722D01*
X10573158Y-18961722D02*
X10582682Y-18952198D01*
X10582682Y-18952198D02*
X10601729Y-18942674D01*
X10601729Y-18942674D02*
X10649349Y-18942674D01*
X10649349Y-18942674D02*
X10668396Y-18952198D01*
X10668396Y-18952198D02*
X10677920Y-18961722D01*
X10677920Y-18961722D02*
X10687444Y-18980770D01*
X10687444Y-18980770D02*
X10687444Y-19028389D01*
X10687444Y-19028389D02*
X10677920Y-19047436D01*
X10677920Y-19047436D02*
X10668396Y-19056960D01*
X10668396Y-19056960D02*
X10649349Y-19066484D01*
X10649349Y-19066484D02*
X10601729Y-19066484D01*
X10601729Y-19066484D02*
X10582682Y-19056960D01*
X10582682Y-19056960D02*
X10573158Y-19047436D01*
X10763634Y-18866484D02*
X10763634Y-18904579D01*
X10839825Y-18866484D02*
X10839825Y-18904579D01*
X11135063Y-19142674D02*
X11125539Y-19133150D01*
X11125539Y-19133150D02*
X11106491Y-19104579D01*
X11106491Y-19104579D02*
X11096968Y-19085531D01*
X11096968Y-19085531D02*
X11087444Y-19056960D01*
X11087444Y-19056960D02*
X11077920Y-19009341D01*
X11077920Y-19009341D02*
X11077920Y-18971246D01*
X11077920Y-18971246D02*
X11087444Y-18923627D01*
X11087444Y-18923627D02*
X11096968Y-18895055D01*
X11096968Y-18895055D02*
X11106491Y-18876008D01*
X11106491Y-18876008D02*
X11125539Y-18847436D01*
X11125539Y-18847436D02*
X11135063Y-18837912D01*
X11316015Y-19066484D02*
X11201729Y-19066484D01*
X11258872Y-19066484D02*
X11258872Y-18866484D01*
X11258872Y-18866484D02*
X11239825Y-18895055D01*
X11239825Y-18895055D02*
X11220777Y-18914103D01*
X11220777Y-18914103D02*
X11201729Y-18923627D01*
X11496968Y-18866484D02*
X11401729Y-18866484D01*
X11401729Y-18866484D02*
X11392206Y-18961722D01*
X11392206Y-18961722D02*
X11401729Y-18952198D01*
X11401729Y-18952198D02*
X11420777Y-18942674D01*
X11420777Y-18942674D02*
X11468396Y-18942674D01*
X11468396Y-18942674D02*
X11487444Y-18952198D01*
X11487444Y-18952198D02*
X11496968Y-18961722D01*
X11496968Y-18961722D02*
X11506491Y-18980770D01*
X11506491Y-18980770D02*
X11506491Y-19028389D01*
X11506491Y-19028389D02*
X11496968Y-19047436D01*
X11496968Y-19047436D02*
X11487444Y-19056960D01*
X11487444Y-19056960D02*
X11468396Y-19066484D01*
X11468396Y-19066484D02*
X11420777Y-19066484D01*
X11420777Y-19066484D02*
X11401729Y-19056960D01*
X11401729Y-19056960D02*
X11392206Y-19047436D01*
X11744587Y-19066484D02*
X11744587Y-18866484D01*
X11830301Y-19066484D02*
X11830301Y-18961722D01*
X11830301Y-18961722D02*
X11820777Y-18942674D01*
X11820777Y-18942674D02*
X11801730Y-18933150D01*
X11801730Y-18933150D02*
X11773158Y-18933150D01*
X11773158Y-18933150D02*
X11754110Y-18942674D01*
X11754110Y-18942674D02*
X11744587Y-18952198D01*
X11954110Y-19066484D02*
X11935063Y-19056960D01*
X11935063Y-19056960D02*
X11925539Y-19047436D01*
X11925539Y-19047436D02*
X11916015Y-19028389D01*
X11916015Y-19028389D02*
X11916015Y-18971246D01*
X11916015Y-18971246D02*
X11925539Y-18952198D01*
X11925539Y-18952198D02*
X11935063Y-18942674D01*
X11935063Y-18942674D02*
X11954110Y-18933150D01*
X11954110Y-18933150D02*
X11982682Y-18933150D01*
X11982682Y-18933150D02*
X12001730Y-18942674D01*
X12001730Y-18942674D02*
X12011253Y-18952198D01*
X12011253Y-18952198D02*
X12020777Y-18971246D01*
X12020777Y-18971246D02*
X12020777Y-19028389D01*
X12020777Y-19028389D02*
X12011253Y-19047436D01*
X12011253Y-19047436D02*
X12001730Y-19056960D01*
X12001730Y-19056960D02*
X11982682Y-19066484D01*
X11982682Y-19066484D02*
X11954110Y-19066484D01*
X12135063Y-19066484D02*
X12116015Y-19056960D01*
X12116015Y-19056960D02*
X12106491Y-19037912D01*
X12106491Y-19037912D02*
X12106491Y-18866484D01*
X12287444Y-19056960D02*
X12268396Y-19066484D01*
X12268396Y-19066484D02*
X12230301Y-19066484D01*
X12230301Y-19066484D02*
X12211253Y-19056960D01*
X12211253Y-19056960D02*
X12201730Y-19037912D01*
X12201730Y-19037912D02*
X12201730Y-18961722D01*
X12201730Y-18961722D02*
X12211253Y-18942674D01*
X12211253Y-18942674D02*
X12230301Y-18933150D01*
X12230301Y-18933150D02*
X12268396Y-18933150D01*
X12268396Y-18933150D02*
X12287444Y-18942674D01*
X12287444Y-18942674D02*
X12296968Y-18961722D01*
X12296968Y-18961722D02*
X12296968Y-18980770D01*
X12296968Y-18980770D02*
X12201730Y-18999817D01*
X12373158Y-19056960D02*
X12392206Y-19066484D01*
X12392206Y-19066484D02*
X12430301Y-19066484D01*
X12430301Y-19066484D02*
X12449349Y-19056960D01*
X12449349Y-19056960D02*
X12458872Y-19037912D01*
X12458872Y-19037912D02*
X12458872Y-19028389D01*
X12458872Y-19028389D02*
X12449349Y-19009341D01*
X12449349Y-19009341D02*
X12430301Y-18999817D01*
X12430301Y-18999817D02*
X12401730Y-18999817D01*
X12401730Y-18999817D02*
X12382682Y-18990293D01*
X12382682Y-18990293D02*
X12373158Y-18971246D01*
X12373158Y-18971246D02*
X12373158Y-18961722D01*
X12373158Y-18961722D02*
X12382682Y-18942674D01*
X12382682Y-18942674D02*
X12401730Y-18933150D01*
X12401730Y-18933150D02*
X12430301Y-18933150D01*
X12430301Y-18933150D02*
X12449349Y-18942674D01*
X12525539Y-19142674D02*
X12535063Y-19133150D01*
X12535063Y-19133150D02*
X12554111Y-19104579D01*
X12554111Y-19104579D02*
X12563634Y-19085531D01*
X12563634Y-19085531D02*
X12573158Y-19056960D01*
X12573158Y-19056960D02*
X12582682Y-19009341D01*
X12582682Y-19009341D02*
X12582682Y-18971246D01*
X12582682Y-18971246D02*
X12573158Y-18923627D01*
X12573158Y-18923627D02*
X12563634Y-18895055D01*
X12563634Y-18895055D02*
X12554111Y-18876008D01*
X12554111Y-18876008D02*
X12535063Y-18847436D01*
X12535063Y-18847436D02*
X12525539Y-18837912D01*
D15*
X7420000Y-19169000D02*
X7560000Y-19309000D01*
X7560000Y-19169000D02*
X7420000Y-19309000D01*
X7490000Y-19169000D02*
X7490000Y-19309000D01*
X7420000Y-19239000D02*
X7560000Y-19239000D01*
D11*
X7925539Y-19330484D02*
X7811253Y-19330484D01*
X7868396Y-19330484D02*
X7868396Y-19130484D01*
X7868396Y-19130484D02*
X7849348Y-19159055D01*
X7849348Y-19159055D02*
X7830301Y-19178103D01*
X7830301Y-19178103D02*
X7811253Y-19187627D01*
X8011253Y-19311436D02*
X8020777Y-19320960D01*
X8020777Y-19320960D02*
X8011253Y-19330484D01*
X8011253Y-19330484D02*
X8001729Y-19320960D01*
X8001729Y-19320960D02*
X8011253Y-19311436D01*
X8011253Y-19311436D02*
X8011253Y-19330484D01*
X8192205Y-19197150D02*
X8192205Y-19330484D01*
X8144586Y-19120960D02*
X8096967Y-19263817D01*
X8096967Y-19263817D02*
X8220777Y-19263817D01*
X8335062Y-19130484D02*
X8354110Y-19130484D01*
X8354110Y-19130484D02*
X8373158Y-19140008D01*
X8373158Y-19140008D02*
X8382682Y-19149531D01*
X8382682Y-19149531D02*
X8392205Y-19168579D01*
X8392205Y-19168579D02*
X8401729Y-19206674D01*
X8401729Y-19206674D02*
X8401729Y-19254293D01*
X8401729Y-19254293D02*
X8392205Y-19292389D01*
X8392205Y-19292389D02*
X8382682Y-19311436D01*
X8382682Y-19311436D02*
X8373158Y-19320960D01*
X8373158Y-19320960D02*
X8354110Y-19330484D01*
X8354110Y-19330484D02*
X8335062Y-19330484D01*
X8335062Y-19330484D02*
X8316015Y-19320960D01*
X8316015Y-19320960D02*
X8306491Y-19311436D01*
X8306491Y-19311436D02*
X8296967Y-19292389D01*
X8296967Y-19292389D02*
X8287443Y-19254293D01*
X8287443Y-19254293D02*
X8287443Y-19206674D01*
X8287443Y-19206674D02*
X8296967Y-19168579D01*
X8296967Y-19168579D02*
X8306491Y-19149531D01*
X8306491Y-19149531D02*
X8316015Y-19140008D01*
X8316015Y-19140008D02*
X8335062Y-19130484D01*
X8525539Y-19130484D02*
X8544586Y-19130484D01*
X8544586Y-19130484D02*
X8563634Y-19140008D01*
X8563634Y-19140008D02*
X8573158Y-19149531D01*
X8573158Y-19149531D02*
X8582682Y-19168579D01*
X8582682Y-19168579D02*
X8592205Y-19206674D01*
X8592205Y-19206674D02*
X8592205Y-19254293D01*
X8592205Y-19254293D02*
X8582682Y-19292389D01*
X8582682Y-19292389D02*
X8573158Y-19311436D01*
X8573158Y-19311436D02*
X8563634Y-19320960D01*
X8563634Y-19320960D02*
X8544586Y-19330484D01*
X8544586Y-19330484D02*
X8525539Y-19330484D01*
X8525539Y-19330484D02*
X8506491Y-19320960D01*
X8506491Y-19320960D02*
X8496967Y-19311436D01*
X8496967Y-19311436D02*
X8487444Y-19292389D01*
X8487444Y-19292389D02*
X8477920Y-19254293D01*
X8477920Y-19254293D02*
X8477920Y-19206674D01*
X8477920Y-19206674D02*
X8487444Y-19168579D01*
X8487444Y-19168579D02*
X8496967Y-19149531D01*
X8496967Y-19149531D02*
X8506491Y-19140008D01*
X8506491Y-19140008D02*
X8525539Y-19130484D01*
X8677920Y-19330484D02*
X8677920Y-19197150D01*
X8677920Y-19216198D02*
X8687444Y-19206674D01*
X8687444Y-19206674D02*
X8706491Y-19197150D01*
X8706491Y-19197150D02*
X8735063Y-19197150D01*
X8735063Y-19197150D02*
X8754110Y-19206674D01*
X8754110Y-19206674D02*
X8763634Y-19225722D01*
X8763634Y-19225722D02*
X8763634Y-19330484D01*
X8763634Y-19225722D02*
X8773158Y-19206674D01*
X8773158Y-19206674D02*
X8792205Y-19197150D01*
X8792205Y-19197150D02*
X8820777Y-19197150D01*
X8820777Y-19197150D02*
X8839825Y-19206674D01*
X8839825Y-19206674D02*
X8849348Y-19225722D01*
X8849348Y-19225722D02*
X8849348Y-19330484D01*
X8944586Y-19330484D02*
X8944586Y-19197150D01*
X8944586Y-19216198D02*
X8954110Y-19206674D01*
X8954110Y-19206674D02*
X8973158Y-19197150D01*
X8973158Y-19197150D02*
X9001729Y-19197150D01*
X9001729Y-19197150D02*
X9020777Y-19206674D01*
X9020777Y-19206674D02*
X9030301Y-19225722D01*
X9030301Y-19225722D02*
X9030301Y-19330484D01*
X9030301Y-19225722D02*
X9039825Y-19206674D01*
X9039825Y-19206674D02*
X9058872Y-19197150D01*
X9058872Y-19197150D02*
X9087444Y-19197150D01*
X9087444Y-19197150D02*
X9106491Y-19206674D01*
X9106491Y-19206674D02*
X9116015Y-19225722D01*
X9116015Y-19225722D02*
X9116015Y-19330484D01*
X9506491Y-19120960D02*
X9335063Y-19378103D01*
X9763634Y-19130484D02*
X9782682Y-19130484D01*
X9782682Y-19130484D02*
X9801729Y-19140008D01*
X9801729Y-19140008D02*
X9811253Y-19149531D01*
X9811253Y-19149531D02*
X9820777Y-19168579D01*
X9820777Y-19168579D02*
X9830301Y-19206674D01*
X9830301Y-19206674D02*
X9830301Y-19254293D01*
X9830301Y-19254293D02*
X9820777Y-19292389D01*
X9820777Y-19292389D02*
X9811253Y-19311436D01*
X9811253Y-19311436D02*
X9801729Y-19320960D01*
X9801729Y-19320960D02*
X9782682Y-19330484D01*
X9782682Y-19330484D02*
X9763634Y-19330484D01*
X9763634Y-19330484D02*
X9744587Y-19320960D01*
X9744587Y-19320960D02*
X9735063Y-19311436D01*
X9735063Y-19311436D02*
X9725539Y-19292389D01*
X9725539Y-19292389D02*
X9716015Y-19254293D01*
X9716015Y-19254293D02*
X9716015Y-19206674D01*
X9716015Y-19206674D02*
X9725539Y-19168579D01*
X9725539Y-19168579D02*
X9735063Y-19149531D01*
X9735063Y-19149531D02*
X9744587Y-19140008D01*
X9744587Y-19140008D02*
X9763634Y-19130484D01*
X9916015Y-19311436D02*
X9925539Y-19320960D01*
X9925539Y-19320960D02*
X9916015Y-19330484D01*
X9916015Y-19330484D02*
X9906491Y-19320960D01*
X9906491Y-19320960D02*
X9916015Y-19311436D01*
X9916015Y-19311436D02*
X9916015Y-19330484D01*
X10049348Y-19130484D02*
X10068396Y-19130484D01*
X10068396Y-19130484D02*
X10087444Y-19140008D01*
X10087444Y-19140008D02*
X10096968Y-19149531D01*
X10096968Y-19149531D02*
X10106491Y-19168579D01*
X10106491Y-19168579D02*
X10116015Y-19206674D01*
X10116015Y-19206674D02*
X10116015Y-19254293D01*
X10116015Y-19254293D02*
X10106491Y-19292389D01*
X10106491Y-19292389D02*
X10096968Y-19311436D01*
X10096968Y-19311436D02*
X10087444Y-19320960D01*
X10087444Y-19320960D02*
X10068396Y-19330484D01*
X10068396Y-19330484D02*
X10049348Y-19330484D01*
X10049348Y-19330484D02*
X10030301Y-19320960D01*
X10030301Y-19320960D02*
X10020777Y-19311436D01*
X10020777Y-19311436D02*
X10011253Y-19292389D01*
X10011253Y-19292389D02*
X10001729Y-19254293D01*
X10001729Y-19254293D02*
X10001729Y-19206674D01*
X10001729Y-19206674D02*
X10011253Y-19168579D01*
X10011253Y-19168579D02*
X10020777Y-19149531D01*
X10020777Y-19149531D02*
X10030301Y-19140008D01*
X10030301Y-19140008D02*
X10049348Y-19130484D01*
X10296968Y-19130484D02*
X10201729Y-19130484D01*
X10201729Y-19130484D02*
X10192206Y-19225722D01*
X10192206Y-19225722D02*
X10201729Y-19216198D01*
X10201729Y-19216198D02*
X10220777Y-19206674D01*
X10220777Y-19206674D02*
X10268396Y-19206674D01*
X10268396Y-19206674D02*
X10287444Y-19216198D01*
X10287444Y-19216198D02*
X10296968Y-19225722D01*
X10296968Y-19225722D02*
X10306491Y-19244770D01*
X10306491Y-19244770D02*
X10306491Y-19292389D01*
X10306491Y-19292389D02*
X10296968Y-19311436D01*
X10296968Y-19311436D02*
X10287444Y-19320960D01*
X10287444Y-19320960D02*
X10268396Y-19330484D01*
X10268396Y-19330484D02*
X10220777Y-19330484D01*
X10220777Y-19330484D02*
X10201729Y-19320960D01*
X10201729Y-19320960D02*
X10192206Y-19311436D01*
X10487444Y-19130484D02*
X10392206Y-19130484D01*
X10392206Y-19130484D02*
X10382682Y-19225722D01*
X10382682Y-19225722D02*
X10392206Y-19216198D01*
X10392206Y-19216198D02*
X10411253Y-19206674D01*
X10411253Y-19206674D02*
X10458872Y-19206674D01*
X10458872Y-19206674D02*
X10477920Y-19216198D01*
X10477920Y-19216198D02*
X10487444Y-19225722D01*
X10487444Y-19225722D02*
X10496968Y-19244770D01*
X10496968Y-19244770D02*
X10496968Y-19292389D01*
X10496968Y-19292389D02*
X10487444Y-19311436D01*
X10487444Y-19311436D02*
X10477920Y-19320960D01*
X10477920Y-19320960D02*
X10458872Y-19330484D01*
X10458872Y-19330484D02*
X10411253Y-19330484D01*
X10411253Y-19330484D02*
X10392206Y-19320960D01*
X10392206Y-19320960D02*
X10382682Y-19311436D01*
X10687444Y-19330484D02*
X10573158Y-19330484D01*
X10630301Y-19330484D02*
X10630301Y-19130484D01*
X10630301Y-19130484D02*
X10611253Y-19159055D01*
X10611253Y-19159055D02*
X10592206Y-19178103D01*
X10592206Y-19178103D02*
X10573158Y-19187627D01*
X10763634Y-19130484D02*
X10763634Y-19168579D01*
X10839825Y-19130484D02*
X10839825Y-19168579D01*
X11135063Y-19406674D02*
X11125539Y-19397150D01*
X11125539Y-19397150D02*
X11106491Y-19368579D01*
X11106491Y-19368579D02*
X11096968Y-19349531D01*
X11096968Y-19349531D02*
X11087444Y-19320960D01*
X11087444Y-19320960D02*
X11077920Y-19273341D01*
X11077920Y-19273341D02*
X11077920Y-19235246D01*
X11077920Y-19235246D02*
X11087444Y-19187627D01*
X11087444Y-19187627D02*
X11096968Y-19159055D01*
X11096968Y-19159055D02*
X11106491Y-19140008D01*
X11106491Y-19140008D02*
X11125539Y-19111436D01*
X11125539Y-19111436D02*
X11135063Y-19101912D01*
X11296968Y-19197150D02*
X11296968Y-19330484D01*
X11249348Y-19120960D02*
X11201729Y-19263817D01*
X11201729Y-19263817D02*
X11325539Y-19263817D01*
X11554110Y-19330484D02*
X11554110Y-19130484D01*
X11639825Y-19330484D02*
X11639825Y-19225722D01*
X11639825Y-19225722D02*
X11630301Y-19206674D01*
X11630301Y-19206674D02*
X11611253Y-19197150D01*
X11611253Y-19197150D02*
X11582682Y-19197150D01*
X11582682Y-19197150D02*
X11563634Y-19206674D01*
X11563634Y-19206674D02*
X11554110Y-19216198D01*
X11763634Y-19330484D02*
X11744587Y-19320960D01*
X11744587Y-19320960D02*
X11735063Y-19311436D01*
X11735063Y-19311436D02*
X11725539Y-19292389D01*
X11725539Y-19292389D02*
X11725539Y-19235246D01*
X11725539Y-19235246D02*
X11735063Y-19216198D01*
X11735063Y-19216198D02*
X11744587Y-19206674D01*
X11744587Y-19206674D02*
X11763634Y-19197150D01*
X11763634Y-19197150D02*
X11792206Y-19197150D01*
X11792206Y-19197150D02*
X11811253Y-19206674D01*
X11811253Y-19206674D02*
X11820777Y-19216198D01*
X11820777Y-19216198D02*
X11830301Y-19235246D01*
X11830301Y-19235246D02*
X11830301Y-19292389D01*
X11830301Y-19292389D02*
X11820777Y-19311436D01*
X11820777Y-19311436D02*
X11811253Y-19320960D01*
X11811253Y-19320960D02*
X11792206Y-19330484D01*
X11792206Y-19330484D02*
X11763634Y-19330484D01*
X11944587Y-19330484D02*
X11925539Y-19320960D01*
X11925539Y-19320960D02*
X11916015Y-19301912D01*
X11916015Y-19301912D02*
X11916015Y-19130484D01*
X12096968Y-19320960D02*
X12077920Y-19330484D01*
X12077920Y-19330484D02*
X12039825Y-19330484D01*
X12039825Y-19330484D02*
X12020777Y-19320960D01*
X12020777Y-19320960D02*
X12011253Y-19301912D01*
X12011253Y-19301912D02*
X12011253Y-19225722D01*
X12011253Y-19225722D02*
X12020777Y-19206674D01*
X12020777Y-19206674D02*
X12039825Y-19197150D01*
X12039825Y-19197150D02*
X12077920Y-19197150D01*
X12077920Y-19197150D02*
X12096968Y-19206674D01*
X12096968Y-19206674D02*
X12106491Y-19225722D01*
X12106491Y-19225722D02*
X12106491Y-19244770D01*
X12106491Y-19244770D02*
X12011253Y-19263817D01*
X12182682Y-19320960D02*
X12201730Y-19330484D01*
X12201730Y-19330484D02*
X12239825Y-19330484D01*
X12239825Y-19330484D02*
X12258872Y-19320960D01*
X12258872Y-19320960D02*
X12268396Y-19301912D01*
X12268396Y-19301912D02*
X12268396Y-19292389D01*
X12268396Y-19292389D02*
X12258872Y-19273341D01*
X12258872Y-19273341D02*
X12239825Y-19263817D01*
X12239825Y-19263817D02*
X12211253Y-19263817D01*
X12211253Y-19263817D02*
X12192206Y-19254293D01*
X12192206Y-19254293D02*
X12182682Y-19235246D01*
X12182682Y-19235246D02*
X12182682Y-19225722D01*
X12182682Y-19225722D02*
X12192206Y-19206674D01*
X12192206Y-19206674D02*
X12211253Y-19197150D01*
X12211253Y-19197150D02*
X12239825Y-19197150D01*
X12239825Y-19197150D02*
X12258872Y-19206674D01*
X12335063Y-19406674D02*
X12344587Y-19397150D01*
X12344587Y-19397150D02*
X12363634Y-19368579D01*
X12363634Y-19368579D02*
X12373158Y-19349531D01*
X12373158Y-19349531D02*
X12382682Y-19320960D01*
X12382682Y-19320960D02*
X12392206Y-19273341D01*
X12392206Y-19273341D02*
X12392206Y-19235246D01*
X12392206Y-19235246D02*
X12382682Y-19187627D01*
X12382682Y-19187627D02*
X12373158Y-19159055D01*
X12373158Y-19159055D02*
X12363634Y-19140008D01*
X12363634Y-19140008D02*
X12344587Y-19111436D01*
X12344587Y-19111436D02*
X12335063Y-19101912D01*
X7360000Y-19403000D02*
X7560000Y-19603000D01*
X7560000Y-19403000D02*
X7360000Y-19603000D01*
X7530711Y-19573711D02*
X7530711Y-19432289D01*
X7389289Y-19432289D01*
X7389289Y-19573711D01*
X7530711Y-19573711D01*
X7811253Y-19413531D02*
X7820777Y-19404008D01*
X7820777Y-19404008D02*
X7839824Y-19394484D01*
X7839824Y-19394484D02*
X7887443Y-19394484D01*
X7887443Y-19394484D02*
X7906491Y-19404008D01*
X7906491Y-19404008D02*
X7916015Y-19413531D01*
X7916015Y-19413531D02*
X7925539Y-19432579D01*
X7925539Y-19432579D02*
X7925539Y-19451627D01*
X7925539Y-19451627D02*
X7916015Y-19480198D01*
X7916015Y-19480198D02*
X7801729Y-19594484D01*
X7801729Y-19594484D02*
X7925539Y-19594484D01*
X8011253Y-19575436D02*
X8020777Y-19584960D01*
X8020777Y-19584960D02*
X8011253Y-19594484D01*
X8011253Y-19594484D02*
X8001729Y-19584960D01*
X8001729Y-19584960D02*
X8011253Y-19575436D01*
X8011253Y-19575436D02*
X8011253Y-19594484D01*
X8201729Y-19394484D02*
X8106491Y-19394484D01*
X8106491Y-19394484D02*
X8096967Y-19489722D01*
X8096967Y-19489722D02*
X8106491Y-19480198D01*
X8106491Y-19480198D02*
X8125539Y-19470674D01*
X8125539Y-19470674D02*
X8173158Y-19470674D01*
X8173158Y-19470674D02*
X8192205Y-19480198D01*
X8192205Y-19480198D02*
X8201729Y-19489722D01*
X8201729Y-19489722D02*
X8211253Y-19508770D01*
X8211253Y-19508770D02*
X8211253Y-19556389D01*
X8211253Y-19556389D02*
X8201729Y-19575436D01*
X8201729Y-19575436D02*
X8192205Y-19584960D01*
X8192205Y-19584960D02*
X8173158Y-19594484D01*
X8173158Y-19594484D02*
X8125539Y-19594484D01*
X8125539Y-19594484D02*
X8106491Y-19584960D01*
X8106491Y-19584960D02*
X8096967Y-19575436D01*
X8335062Y-19394484D02*
X8354110Y-19394484D01*
X8354110Y-19394484D02*
X8373158Y-19404008D01*
X8373158Y-19404008D02*
X8382682Y-19413531D01*
X8382682Y-19413531D02*
X8392205Y-19432579D01*
X8392205Y-19432579D02*
X8401729Y-19470674D01*
X8401729Y-19470674D02*
X8401729Y-19518293D01*
X8401729Y-19518293D02*
X8392205Y-19556389D01*
X8392205Y-19556389D02*
X8382682Y-19575436D01*
X8382682Y-19575436D02*
X8373158Y-19584960D01*
X8373158Y-19584960D02*
X8354110Y-19594484D01*
X8354110Y-19594484D02*
X8335062Y-19594484D01*
X8335062Y-19594484D02*
X8316015Y-19584960D01*
X8316015Y-19584960D02*
X8306491Y-19575436D01*
X8306491Y-19575436D02*
X8296967Y-19556389D01*
X8296967Y-19556389D02*
X8287443Y-19518293D01*
X8287443Y-19518293D02*
X8287443Y-19470674D01*
X8287443Y-19470674D02*
X8296967Y-19432579D01*
X8296967Y-19432579D02*
X8306491Y-19413531D01*
X8306491Y-19413531D02*
X8316015Y-19404008D01*
X8316015Y-19404008D02*
X8335062Y-19394484D01*
X8525539Y-19394484D02*
X8544586Y-19394484D01*
X8544586Y-19394484D02*
X8563634Y-19404008D01*
X8563634Y-19404008D02*
X8573158Y-19413531D01*
X8573158Y-19413531D02*
X8582682Y-19432579D01*
X8582682Y-19432579D02*
X8592205Y-19470674D01*
X8592205Y-19470674D02*
X8592205Y-19518293D01*
X8592205Y-19518293D02*
X8582682Y-19556389D01*
X8582682Y-19556389D02*
X8573158Y-19575436D01*
X8573158Y-19575436D02*
X8563634Y-19584960D01*
X8563634Y-19584960D02*
X8544586Y-19594484D01*
X8544586Y-19594484D02*
X8525539Y-19594484D01*
X8525539Y-19594484D02*
X8506491Y-19584960D01*
X8506491Y-19584960D02*
X8496967Y-19575436D01*
X8496967Y-19575436D02*
X8487444Y-19556389D01*
X8487444Y-19556389D02*
X8477920Y-19518293D01*
X8477920Y-19518293D02*
X8477920Y-19470674D01*
X8477920Y-19470674D02*
X8487444Y-19432579D01*
X8487444Y-19432579D02*
X8496967Y-19413531D01*
X8496967Y-19413531D02*
X8506491Y-19404008D01*
X8506491Y-19404008D02*
X8525539Y-19394484D01*
X8677920Y-19594484D02*
X8677920Y-19461150D01*
X8677920Y-19480198D02*
X8687444Y-19470674D01*
X8687444Y-19470674D02*
X8706491Y-19461150D01*
X8706491Y-19461150D02*
X8735063Y-19461150D01*
X8735063Y-19461150D02*
X8754110Y-19470674D01*
X8754110Y-19470674D02*
X8763634Y-19489722D01*
X8763634Y-19489722D02*
X8763634Y-19594484D01*
X8763634Y-19489722D02*
X8773158Y-19470674D01*
X8773158Y-19470674D02*
X8792205Y-19461150D01*
X8792205Y-19461150D02*
X8820777Y-19461150D01*
X8820777Y-19461150D02*
X8839825Y-19470674D01*
X8839825Y-19470674D02*
X8849348Y-19489722D01*
X8849348Y-19489722D02*
X8849348Y-19594484D01*
X8944586Y-19594484D02*
X8944586Y-19461150D01*
X8944586Y-19480198D02*
X8954110Y-19470674D01*
X8954110Y-19470674D02*
X8973158Y-19461150D01*
X8973158Y-19461150D02*
X9001729Y-19461150D01*
X9001729Y-19461150D02*
X9020777Y-19470674D01*
X9020777Y-19470674D02*
X9030301Y-19489722D01*
X9030301Y-19489722D02*
X9030301Y-19594484D01*
X9030301Y-19489722D02*
X9039825Y-19470674D01*
X9039825Y-19470674D02*
X9058872Y-19461150D01*
X9058872Y-19461150D02*
X9087444Y-19461150D01*
X9087444Y-19461150D02*
X9106491Y-19470674D01*
X9106491Y-19470674D02*
X9116015Y-19489722D01*
X9116015Y-19489722D02*
X9116015Y-19594484D01*
X9506491Y-19384960D02*
X9335063Y-19642103D01*
X9763634Y-19394484D02*
X9782682Y-19394484D01*
X9782682Y-19394484D02*
X9801729Y-19404008D01*
X9801729Y-19404008D02*
X9811253Y-19413531D01*
X9811253Y-19413531D02*
X9820777Y-19432579D01*
X9820777Y-19432579D02*
X9830301Y-19470674D01*
X9830301Y-19470674D02*
X9830301Y-19518293D01*
X9830301Y-19518293D02*
X9820777Y-19556389D01*
X9820777Y-19556389D02*
X9811253Y-19575436D01*
X9811253Y-19575436D02*
X9801729Y-19584960D01*
X9801729Y-19584960D02*
X9782682Y-19594484D01*
X9782682Y-19594484D02*
X9763634Y-19594484D01*
X9763634Y-19594484D02*
X9744587Y-19584960D01*
X9744587Y-19584960D02*
X9735063Y-19575436D01*
X9735063Y-19575436D02*
X9725539Y-19556389D01*
X9725539Y-19556389D02*
X9716015Y-19518293D01*
X9716015Y-19518293D02*
X9716015Y-19470674D01*
X9716015Y-19470674D02*
X9725539Y-19432579D01*
X9725539Y-19432579D02*
X9735063Y-19413531D01*
X9735063Y-19413531D02*
X9744587Y-19404008D01*
X9744587Y-19404008D02*
X9763634Y-19394484D01*
X9916015Y-19575436D02*
X9925539Y-19584960D01*
X9925539Y-19584960D02*
X9916015Y-19594484D01*
X9916015Y-19594484D02*
X9906491Y-19584960D01*
X9906491Y-19584960D02*
X9916015Y-19575436D01*
X9916015Y-19575436D02*
X9916015Y-19594484D01*
X10049348Y-19394484D02*
X10068396Y-19394484D01*
X10068396Y-19394484D02*
X10087444Y-19404008D01*
X10087444Y-19404008D02*
X10096968Y-19413531D01*
X10096968Y-19413531D02*
X10106491Y-19432579D01*
X10106491Y-19432579D02*
X10116015Y-19470674D01*
X10116015Y-19470674D02*
X10116015Y-19518293D01*
X10116015Y-19518293D02*
X10106491Y-19556389D01*
X10106491Y-19556389D02*
X10096968Y-19575436D01*
X10096968Y-19575436D02*
X10087444Y-19584960D01*
X10087444Y-19584960D02*
X10068396Y-19594484D01*
X10068396Y-19594484D02*
X10049348Y-19594484D01*
X10049348Y-19594484D02*
X10030301Y-19584960D01*
X10030301Y-19584960D02*
X10020777Y-19575436D01*
X10020777Y-19575436D02*
X10011253Y-19556389D01*
X10011253Y-19556389D02*
X10001729Y-19518293D01*
X10001729Y-19518293D02*
X10001729Y-19470674D01*
X10001729Y-19470674D02*
X10011253Y-19432579D01*
X10011253Y-19432579D02*
X10020777Y-19413531D01*
X10020777Y-19413531D02*
X10030301Y-19404008D01*
X10030301Y-19404008D02*
X10049348Y-19394484D01*
X10211253Y-19594484D02*
X10249348Y-19594484D01*
X10249348Y-19594484D02*
X10268396Y-19584960D01*
X10268396Y-19584960D02*
X10277920Y-19575436D01*
X10277920Y-19575436D02*
X10296968Y-19546865D01*
X10296968Y-19546865D02*
X10306491Y-19508770D01*
X10306491Y-19508770D02*
X10306491Y-19432579D01*
X10306491Y-19432579D02*
X10296968Y-19413531D01*
X10296968Y-19413531D02*
X10287444Y-19404008D01*
X10287444Y-19404008D02*
X10268396Y-19394484D01*
X10268396Y-19394484D02*
X10230301Y-19394484D01*
X10230301Y-19394484D02*
X10211253Y-19404008D01*
X10211253Y-19404008D02*
X10201729Y-19413531D01*
X10201729Y-19413531D02*
X10192206Y-19432579D01*
X10192206Y-19432579D02*
X10192206Y-19480198D01*
X10192206Y-19480198D02*
X10201729Y-19499246D01*
X10201729Y-19499246D02*
X10211253Y-19508770D01*
X10211253Y-19508770D02*
X10230301Y-19518293D01*
X10230301Y-19518293D02*
X10268396Y-19518293D01*
X10268396Y-19518293D02*
X10287444Y-19508770D01*
X10287444Y-19508770D02*
X10296968Y-19499246D01*
X10296968Y-19499246D02*
X10306491Y-19480198D01*
X10420777Y-19480198D02*
X10401729Y-19470674D01*
X10401729Y-19470674D02*
X10392206Y-19461150D01*
X10392206Y-19461150D02*
X10382682Y-19442103D01*
X10382682Y-19442103D02*
X10382682Y-19432579D01*
X10382682Y-19432579D02*
X10392206Y-19413531D01*
X10392206Y-19413531D02*
X10401729Y-19404008D01*
X10401729Y-19404008D02*
X10420777Y-19394484D01*
X10420777Y-19394484D02*
X10458872Y-19394484D01*
X10458872Y-19394484D02*
X10477920Y-19404008D01*
X10477920Y-19404008D02*
X10487444Y-19413531D01*
X10487444Y-19413531D02*
X10496968Y-19432579D01*
X10496968Y-19432579D02*
X10496968Y-19442103D01*
X10496968Y-19442103D02*
X10487444Y-19461150D01*
X10487444Y-19461150D02*
X10477920Y-19470674D01*
X10477920Y-19470674D02*
X10458872Y-19480198D01*
X10458872Y-19480198D02*
X10420777Y-19480198D01*
X10420777Y-19480198D02*
X10401729Y-19489722D01*
X10401729Y-19489722D02*
X10392206Y-19499246D01*
X10392206Y-19499246D02*
X10382682Y-19518293D01*
X10382682Y-19518293D02*
X10382682Y-19556389D01*
X10382682Y-19556389D02*
X10392206Y-19575436D01*
X10392206Y-19575436D02*
X10401729Y-19584960D01*
X10401729Y-19584960D02*
X10420777Y-19594484D01*
X10420777Y-19594484D02*
X10458872Y-19594484D01*
X10458872Y-19594484D02*
X10477920Y-19584960D01*
X10477920Y-19584960D02*
X10487444Y-19575436D01*
X10487444Y-19575436D02*
X10496968Y-19556389D01*
X10496968Y-19556389D02*
X10496968Y-19518293D01*
X10496968Y-19518293D02*
X10487444Y-19499246D01*
X10487444Y-19499246D02*
X10477920Y-19489722D01*
X10477920Y-19489722D02*
X10458872Y-19480198D01*
X10668396Y-19461150D02*
X10668396Y-19594484D01*
X10620777Y-19384960D02*
X10573158Y-19527817D01*
X10573158Y-19527817D02*
X10696968Y-19527817D01*
X10763634Y-19394484D02*
X10763634Y-19432579D01*
X10839825Y-19394484D02*
X10839825Y-19432579D01*
X11135063Y-19670674D02*
X11125539Y-19661150D01*
X11125539Y-19661150D02*
X11106491Y-19632579D01*
X11106491Y-19632579D02*
X11096968Y-19613531D01*
X11096968Y-19613531D02*
X11087444Y-19584960D01*
X11087444Y-19584960D02*
X11077920Y-19537341D01*
X11077920Y-19537341D02*
X11077920Y-19499246D01*
X11077920Y-19499246D02*
X11087444Y-19451627D01*
X11087444Y-19451627D02*
X11096968Y-19423055D01*
X11096968Y-19423055D02*
X11106491Y-19404008D01*
X11106491Y-19404008D02*
X11125539Y-19375436D01*
X11125539Y-19375436D02*
X11135063Y-19365912D01*
X11201729Y-19413531D02*
X11211253Y-19404008D01*
X11211253Y-19404008D02*
X11230301Y-19394484D01*
X11230301Y-19394484D02*
X11277920Y-19394484D01*
X11277920Y-19394484D02*
X11296968Y-19404008D01*
X11296968Y-19404008D02*
X11306491Y-19413531D01*
X11306491Y-19413531D02*
X11316015Y-19432579D01*
X11316015Y-19432579D02*
X11316015Y-19451627D01*
X11316015Y-19451627D02*
X11306491Y-19480198D01*
X11306491Y-19480198D02*
X11192206Y-19594484D01*
X11192206Y-19594484D02*
X11316015Y-19594484D01*
X11554110Y-19594484D02*
X11554110Y-19394484D01*
X11639825Y-19594484D02*
X11639825Y-19489722D01*
X11639825Y-19489722D02*
X11630301Y-19470674D01*
X11630301Y-19470674D02*
X11611253Y-19461150D01*
X11611253Y-19461150D02*
X11582682Y-19461150D01*
X11582682Y-19461150D02*
X11563634Y-19470674D01*
X11563634Y-19470674D02*
X11554110Y-19480198D01*
X11763634Y-19594484D02*
X11744587Y-19584960D01*
X11744587Y-19584960D02*
X11735063Y-19575436D01*
X11735063Y-19575436D02*
X11725539Y-19556389D01*
X11725539Y-19556389D02*
X11725539Y-19499246D01*
X11725539Y-19499246D02*
X11735063Y-19480198D01*
X11735063Y-19480198D02*
X11744587Y-19470674D01*
X11744587Y-19470674D02*
X11763634Y-19461150D01*
X11763634Y-19461150D02*
X11792206Y-19461150D01*
X11792206Y-19461150D02*
X11811253Y-19470674D01*
X11811253Y-19470674D02*
X11820777Y-19480198D01*
X11820777Y-19480198D02*
X11830301Y-19499246D01*
X11830301Y-19499246D02*
X11830301Y-19556389D01*
X11830301Y-19556389D02*
X11820777Y-19575436D01*
X11820777Y-19575436D02*
X11811253Y-19584960D01*
X11811253Y-19584960D02*
X11792206Y-19594484D01*
X11792206Y-19594484D02*
X11763634Y-19594484D01*
X11944587Y-19594484D02*
X11925539Y-19584960D01*
X11925539Y-19584960D02*
X11916015Y-19565912D01*
X11916015Y-19565912D02*
X11916015Y-19394484D01*
X12096968Y-19584960D02*
X12077920Y-19594484D01*
X12077920Y-19594484D02*
X12039825Y-19594484D01*
X12039825Y-19594484D02*
X12020777Y-19584960D01*
X12020777Y-19584960D02*
X12011253Y-19565912D01*
X12011253Y-19565912D02*
X12011253Y-19489722D01*
X12011253Y-19489722D02*
X12020777Y-19470674D01*
X12020777Y-19470674D02*
X12039825Y-19461150D01*
X12039825Y-19461150D02*
X12077920Y-19461150D01*
X12077920Y-19461150D02*
X12096968Y-19470674D01*
X12096968Y-19470674D02*
X12106491Y-19489722D01*
X12106491Y-19489722D02*
X12106491Y-19508770D01*
X12106491Y-19508770D02*
X12011253Y-19527817D01*
X12182682Y-19584960D02*
X12201730Y-19594484D01*
X12201730Y-19594484D02*
X12239825Y-19594484D01*
X12239825Y-19594484D02*
X12258872Y-19584960D01*
X12258872Y-19584960D02*
X12268396Y-19565912D01*
X12268396Y-19565912D02*
X12268396Y-19556389D01*
X12268396Y-19556389D02*
X12258872Y-19537341D01*
X12258872Y-19537341D02*
X12239825Y-19527817D01*
X12239825Y-19527817D02*
X12211253Y-19527817D01*
X12211253Y-19527817D02*
X12192206Y-19518293D01*
X12192206Y-19518293D02*
X12182682Y-19499246D01*
X12182682Y-19499246D02*
X12182682Y-19489722D01*
X12182682Y-19489722D02*
X12192206Y-19470674D01*
X12192206Y-19470674D02*
X12211253Y-19461150D01*
X12211253Y-19461150D02*
X12239825Y-19461150D01*
X12239825Y-19461150D02*
X12258872Y-19470674D01*
X12335063Y-19670674D02*
X12344587Y-19661150D01*
X12344587Y-19661150D02*
X12363634Y-19632579D01*
X12363634Y-19632579D02*
X12373158Y-19613531D01*
X12373158Y-19613531D02*
X12382682Y-19584960D01*
X12382682Y-19584960D02*
X12392206Y-19537341D01*
X12392206Y-19537341D02*
X12392206Y-19499246D01*
X12392206Y-19499246D02*
X12382682Y-19451627D01*
X12382682Y-19451627D02*
X12373158Y-19423055D01*
X12373158Y-19423055D02*
X12363634Y-19404008D01*
X12363634Y-19404008D02*
X12344587Y-19375436D01*
X12344587Y-19375436D02*
X12335063Y-19365912D01*
M02*
