%TF.GenerationSoftware,KiCad,Pcbnew,9.0.4*%
%TF.CreationDate,2025-11-06T14:51:33-06:00*%
%TF.ProjectId,Spy,5370792e-6b69-4636-9164-5f7063625858,rev?*%
%TF.SameCoordinates,Original*%
%TF.FileFunction,Plated,1,2,PTH,Drill*%
%TF.FilePolarity,Positive*%
%FSLAX46Y46*%
G04 Gerber Fmt 4.6, Leading zero omitted, Abs format (unit mm)*
G04 Created by KiCad (PCBNEW 9.0.4) date 2025-11-06 14:51:33*
%MOMM*%
%LPD*%
G01*
G04 APERTURE LIST*
%TA.AperFunction,ViaDrill*%
%ADD10C,0.300000*%
%TD*%
%TA.AperFunction,ViaDrill*%
%ADD11C,0.500000*%
%TD*%
%TA.AperFunction,ComponentDrill*%
%ADD12C,0.800000*%
%TD*%
%TA.AperFunction,ComponentDrill*%
%ADD13C,1.000000*%
%TD*%
%TA.AperFunction,ComponentDrill*%
%ADD14C,1.016000*%
%TD*%
%TA.AperFunction,ComponentDrill*%
%ADD15C,1.080000*%
%TD*%
%TA.AperFunction,ComponentDrill*%
%ADD16C,1.400000*%
%TD*%
%TA.AperFunction,ComponentDrill*%
%ADD17C,2.500000*%
%TD*%
G04 APERTURE END LIST*
D10*
X120875000Y-82375000D03*
X121625000Y-102375000D03*
X126125000Y-66625000D03*
X131375000Y-125125000D03*
D11*
X117375000Y-113625000D03*
D12*
%TO.C,U1*%
X113225000Y-56721560D03*
X113225000Y-59261560D03*
X113225000Y-61801560D03*
X113225000Y-64341560D03*
X113225000Y-66881560D03*
X113225000Y-69421560D03*
X113225000Y-71961560D03*
X113225000Y-74501560D03*
X113225000Y-77041560D03*
X113225000Y-79581560D03*
X113225000Y-82121560D03*
X113225000Y-84661560D03*
X113225000Y-87201560D03*
X113225000Y-89741560D03*
X113225000Y-92281560D03*
X113225000Y-94821560D03*
X113225000Y-97361560D03*
X113225000Y-99901560D03*
X113225000Y-102441560D03*
X138621320Y-99898840D03*
X138621320Y-102438840D03*
X138625000Y-56721560D03*
X138625000Y-59261560D03*
X138625000Y-61801560D03*
X138625000Y-64341560D03*
X138625000Y-66881560D03*
X138625000Y-69421560D03*
X138625000Y-71961560D03*
X138625000Y-74501560D03*
X138625000Y-77041560D03*
X138625000Y-79581560D03*
X138625000Y-82121560D03*
X138625000Y-84661560D03*
X138625000Y-87201560D03*
X138625000Y-89741560D03*
X138625000Y-92281560D03*
X138625000Y-94821560D03*
X138625000Y-97361560D03*
D13*
%TO.C,Servo1*%
X93625000Y-55545000D03*
X93625000Y-58085000D03*
X93625000Y-60625000D03*
%TO.C,U7*%
X98625000Y-121185000D03*
X98625000Y-123725000D03*
X98625000Y-126265000D03*
X98625000Y-128805000D03*
%TO.C,Servo2*%
X103377250Y-95585000D03*
X103377250Y-98125000D03*
X103377250Y-100665000D03*
%TO.C,U6*%
X116975000Y-45375000D03*
X119515000Y-45375000D03*
X122055000Y-45375000D03*
X124595000Y-45375000D03*
X127135000Y-45375000D03*
X129675000Y-45375000D03*
X132215000Y-45375000D03*
X134755000Y-45375000D03*
X137295000Y-45375000D03*
X139835000Y-45375000D03*
X142375000Y-45375000D03*
%TO.C,U2*%
X153375000Y-54335000D03*
X153375000Y-56875000D03*
X153375000Y-59415000D03*
%TO.C,U3*%
X153875000Y-89545000D03*
X153875000Y-92085000D03*
X153875000Y-94625000D03*
D14*
%TO.C,U4*%
X119074500Y-149485000D03*
X121614500Y-149485000D03*
X124154500Y-149485000D03*
X126694500Y-149485000D03*
X129234500Y-149485000D03*
X131774500Y-149485000D03*
D15*
%TO.C,U5*%
X116835000Y-118125000D03*
X118105000Y-123205000D03*
X119375000Y-118125000D03*
X120645000Y-123205000D03*
X121915000Y-118125000D03*
X123185000Y-123205000D03*
X124455000Y-118125000D03*
X125725000Y-123205000D03*
X126995000Y-118125000D03*
X128265000Y-123205000D03*
X129535000Y-118125000D03*
X130805000Y-123205000D03*
X132075000Y-118125000D03*
X133345000Y-123205000D03*
X134615000Y-118125000D03*
D16*
%TO.C,J1*%
X109172500Y-154875000D03*
X109172500Y-159875000D03*
%TO.C,J2*%
X141617500Y-154125000D03*
X141617500Y-159125000D03*
D17*
%TO.C,U7*%
X98625000Y-117375000D03*
X98625000Y-132615000D03*
M02*
