M48
; DRILL file {KiCad 9.0.4} date 2025-11-06T14:53:44-0600
; FORMAT={-:-/ absolute / metric / decimal}
; #@! TF.CreationDate,2025-11-06T14:53:44-06:00
; #@! TF.GenerationSoftware,Kicad,Pcbnew,9.0.4
; #@! TF.FileFunction,Plated,1,2,PTH
FMAT,2
METRIC
; #@! TA.AperFunction,Plated,PTH,ViaDrill
T1C0.300
; #@! TA.AperFunction,Plated,PTH,ViaDrill
T2C0.500
; #@! TA.AperFunction,Plated,PTH,ComponentDrill
T3C0.800
; #@! TA.AperFunction,Plated,PTH,ComponentDrill
T4C1.000
; #@! TA.AperFunction,Plated,PTH,ComponentDrill
T5C1.016
; #@! TA.AperFunction,Plated,PTH,ComponentDrill
T6C1.080
; #@! TA.AperFunction,Plated,PTH,ComponentDrill
T7C1.400
; #@! TA.AperFunction,Plated,PTH,ComponentDrill
T8C2.500
%
G90
G05
T1
X120.875Y-82.375
X121.625Y-102.375
X126.125Y-66.625
X131.375Y-125.125
T2
X117.375Y-113.625
T3
X113.225Y-56.722
X113.225Y-59.262
X113.225Y-61.802
X113.225Y-64.342
X113.225Y-66.882
X113.225Y-69.422
X113.225Y-71.962
X113.225Y-74.502
X113.225Y-77.042
X113.225Y-79.582
X113.225Y-82.122
X113.225Y-84.662
X113.225Y-87.202
X113.225Y-89.742
X113.225Y-92.282
X113.225Y-94.822
X113.225Y-97.362
X113.225Y-99.902
X113.225Y-102.442
X138.621Y-99.899
X138.621Y-102.439
X138.625Y-56.722
X138.625Y-59.262
X138.625Y-61.802
X138.625Y-64.342
X138.625Y-66.882
X138.625Y-69.422
X138.625Y-71.962
X138.625Y-74.502
X138.625Y-77.042
X138.625Y-79.582
X138.625Y-82.122
X138.625Y-84.662
X138.625Y-87.202
X138.625Y-89.742
X138.625Y-92.282
X138.625Y-94.822
X138.625Y-97.362
T4
X93.625Y-55.545
X93.625Y-58.085
X93.625Y-60.625
X98.625Y-121.185
X98.625Y-123.725
X98.625Y-126.265
X98.625Y-128.805
X103.377Y-95.585
X103.377Y-98.125
X103.377Y-100.665
X116.975Y-45.375
X119.515Y-45.375
X122.055Y-45.375
X124.595Y-45.375
X127.135Y-45.375
X129.675Y-45.375
X132.215Y-45.375
X134.755Y-45.375
X137.295Y-45.375
X139.835Y-45.375
X142.375Y-45.375
X153.375Y-54.335
X153.375Y-56.875
X153.375Y-59.415
X153.875Y-89.545
X153.875Y-92.085
X153.875Y-94.625
T5
X119.075Y-149.485
X121.614Y-149.485
X124.154Y-149.485
X126.694Y-149.485
X129.234Y-149.485
X131.774Y-149.485
T6
X116.835Y-118.125
X118.105Y-123.205
X119.375Y-118.125
X120.645Y-123.205
X121.915Y-118.125
X123.185Y-123.205
X124.455Y-118.125
X125.725Y-123.205
X126.995Y-118.125
X128.265Y-123.205
X129.535Y-118.125
X130.805Y-123.205
X132.075Y-118.125
X133.345Y-123.205
X134.615Y-118.125
T7
X109.172Y-154.875
X109.172Y-159.875
X141.618Y-154.125
X141.618Y-159.125
T8
X98.625Y-117.375
X98.625Y-132.615
M30
